; NON-PLATED HOLES START AT T1
; THROUGH (PLATED) HOLES START AT T100
M48
INCH
T1C0.047244
T2C0.086614
T3C0.070866
T100C0.035433
T101C0.088356
T102C0.015748
T103C0.041333
T104C0.038000
T105C0.043307
T106C0.030000
T107C0.041361
T108C0.035000
T109C0.040000
%
T1
X036085Y013451
X038449Y013452
T2
X038618Y000755
X000766Y011052
T3
X025193Y000590
X017854Y000590
X032638Y000590
X032638Y004133
X003115Y004133
X017854Y004133
X003115Y000590
X010545Y004133
X025193Y004133
X010545Y000590
T100
X013586Y010926
X010586Y010926
T101
X030700Y008471
X001142Y008471
X019857Y008471
X034583Y008471
X005025Y008471
X012490Y008471
X008607Y008471
X023256Y008471
X027139Y008471
X015974Y008471
T102
X023842Y016589
X033109Y014722
X031909Y014656
X017176Y016434
T103
X009549Y005518
X017915Y005518
X010549Y005518
X031641Y005518
X003084Y005518
X025197Y005518
X016915Y005518
X032641Y005518
X002084Y005518
X024197Y005518
T104
X020315Y001377
X035098Y001377
X019156Y015232
X005576Y003346
X026200Y017091
X025200Y015091
X032200Y011091
X022733Y003346
X025200Y012091
X029200Y011091
X025200Y014091
X025200Y011091
X008085Y003346
X015393Y003346
X027654Y003346
X029200Y017091
X030177Y001377
X031200Y017091
X025200Y017091
X013006Y001377
X000654Y003346
X032200Y017091
X026200Y011091
X025200Y016091
X027200Y017091
X015393Y001377
X027654Y001377
X021125Y013657
X021125Y014444
X030177Y003346
X028200Y017091
X021125Y015232
X033200Y017091
X030200Y011091
X000654Y001377
X013006Y003346
X030200Y017091
X033200Y011091
X019156Y014444
X035098Y003346
X020315Y003346
X005576Y001377
X025200Y013091
X031200Y011101
X027200Y011091
X008085Y001377
X022733Y001377
X028200Y011091
X019156Y013657
T105
X021864Y011428
X036411Y006898
X036411Y007898
X019864Y011428
X036411Y005898
X018864Y011428
X036411Y004898
X020864Y011428
T106
X016169Y017176
X018169Y017176
T107
X018915Y005518
X004084Y005518
X026197Y005518
X033641Y005518
X011549Y005518
T108
X029279Y015400
X030279Y015400
X017004Y010844
X010890Y015440
X013134Y015522
X028279Y015400
X017004Y013844
X013134Y012522
X027279Y015400
X014134Y015522
X010890Y012440
X028279Y012400
X029279Y012400
X015134Y012522
X012134Y015522
X030279Y012400
X015134Y015522
X027279Y012400
X012134Y012522
X014134Y012522
T109
X038334Y002613
X038334Y008583
X038334Y009653
X038334Y003683
X038334Y004753
X038334Y007513
T00
M30
