G04 MADE WITH FRITZING*
G04 WWW.FRITZING.ORG*
G04 DOUBLE SIDED*
G04 HOLES PLATED*
G04 CONTOUR ON CENTER OF CONTOUR VECTOR*
%ASAXBY*%
%FSLAX23Y23*%
%MOIN*%
%OFA0B0*%
%SFA1.0B1.0*%
%ADD10C,0.010000*%
%ADD11R,0.001000X0.001000*%
%LNSILK0*%
G90*
G70*
G54D10*
X3927Y1232D02*
X3927Y1248D01*
D02*
X3927Y1451D02*
X3927Y1467D01*
D02*
X3078Y1190D02*
X2678Y1190D01*
D02*
X2678Y1190D02*
X2678Y1590D01*
D02*
X2678Y1590D02*
X3078Y1590D01*
D02*
X3078Y1190D02*
X3078Y1340D01*
D02*
X3078Y1440D02*
X3078Y1590D01*
G54D11*
X3482Y1472D02*
X3722Y1472D01*
X3811Y1472D02*
X3925Y1472D01*
X3482Y1471D02*
X3722Y1471D01*
X3811Y1471D02*
X3925Y1471D01*
X3482Y1470D02*
X3722Y1470D01*
X3811Y1470D02*
X3925Y1470D01*
X3482Y1469D02*
X3722Y1469D01*
X3811Y1469D02*
X3925Y1469D01*
X3482Y1468D02*
X3722Y1468D01*
X3811Y1468D02*
X3925Y1468D01*
X3477Y1467D02*
X3722Y1467D01*
X3811Y1467D02*
X3925Y1467D01*
X3477Y1466D02*
X3722Y1466D01*
X3811Y1466D02*
X3925Y1466D01*
X3477Y1465D02*
X3722Y1465D01*
X3811Y1465D02*
X3925Y1465D01*
X3477Y1464D02*
X3722Y1464D01*
X3811Y1464D02*
X3925Y1464D01*
X2791Y1463D02*
X2814Y1463D01*
X2834Y1463D02*
X2864Y1463D01*
X2884Y1463D02*
X2914Y1463D01*
X2937Y1463D02*
X2961Y1463D01*
X3477Y1463D02*
X3722Y1463D01*
X3811Y1463D02*
X3925Y1463D01*
X2790Y1462D02*
X2815Y1462D01*
X2833Y1462D02*
X2865Y1462D01*
X2883Y1462D02*
X2915Y1462D01*
X2936Y1462D02*
X2963Y1462D01*
X3477Y1462D02*
X3486Y1462D01*
X2789Y1461D02*
X2815Y1461D01*
X2832Y1461D02*
X2866Y1461D01*
X2883Y1461D02*
X2916Y1461D01*
X2934Y1461D02*
X2964Y1461D01*
X3477Y1461D02*
X3486Y1461D01*
X2789Y1460D02*
X2816Y1460D01*
X2832Y1460D02*
X2866Y1460D01*
X2882Y1460D02*
X2916Y1460D01*
X2934Y1460D02*
X2965Y1460D01*
X3477Y1460D02*
X3486Y1460D01*
X2789Y1459D02*
X2816Y1459D01*
X2832Y1459D02*
X2866Y1459D01*
X2883Y1459D02*
X2916Y1459D01*
X2933Y1459D02*
X2966Y1459D01*
X3477Y1459D02*
X3486Y1459D01*
X2790Y1458D02*
X2816Y1458D01*
X2833Y1458D02*
X2866Y1458D01*
X2883Y1458D02*
X2916Y1458D01*
X2933Y1458D02*
X2966Y1458D01*
X3477Y1458D02*
X3486Y1458D01*
X2791Y1457D02*
X2816Y1457D01*
X2834Y1457D02*
X2866Y1457D01*
X2884Y1457D02*
X2916Y1457D01*
X2933Y1457D02*
X2966Y1457D01*
X3477Y1457D02*
X3486Y1457D01*
X2809Y1456D02*
X2816Y1456D01*
X2846Y1456D02*
X2852Y1456D01*
X2860Y1456D02*
X2866Y1456D01*
X2896Y1456D02*
X2902Y1456D01*
X2910Y1456D02*
X2916Y1456D01*
X2933Y1456D02*
X2939Y1456D01*
X2960Y1456D02*
X2966Y1456D01*
X3477Y1456D02*
X3486Y1456D01*
X2810Y1455D02*
X2816Y1455D01*
X2846Y1455D02*
X2852Y1455D01*
X2860Y1455D02*
X2866Y1455D01*
X2896Y1455D02*
X2902Y1455D01*
X2910Y1455D02*
X2916Y1455D01*
X2933Y1455D02*
X2939Y1455D01*
X2960Y1455D02*
X2966Y1455D01*
X3477Y1455D02*
X3486Y1455D01*
X2810Y1454D02*
X2816Y1454D01*
X2846Y1454D02*
X2852Y1454D01*
X2860Y1454D02*
X2866Y1454D01*
X2896Y1454D02*
X2902Y1454D01*
X2910Y1454D02*
X2916Y1454D01*
X2933Y1454D02*
X2939Y1454D01*
X2960Y1454D02*
X2966Y1454D01*
X3477Y1454D02*
X3486Y1454D01*
X2810Y1453D02*
X2816Y1453D01*
X2846Y1453D02*
X2852Y1453D01*
X2860Y1453D02*
X2866Y1453D01*
X2896Y1453D02*
X2902Y1453D01*
X2910Y1453D02*
X2916Y1453D01*
X2933Y1453D02*
X2939Y1453D01*
X2960Y1453D02*
X2966Y1453D01*
X3477Y1453D02*
X3486Y1453D01*
X3928Y1453D02*
X3939Y1453D01*
X2810Y1452D02*
X2816Y1452D01*
X2846Y1452D02*
X2852Y1452D01*
X2860Y1452D02*
X2866Y1452D01*
X2896Y1452D02*
X2902Y1452D01*
X2910Y1452D02*
X2916Y1452D01*
X2933Y1452D02*
X2939Y1452D01*
X2960Y1452D02*
X2966Y1452D01*
X3477Y1452D02*
X3486Y1452D01*
X3928Y1452D02*
X3939Y1452D01*
X2810Y1451D02*
X2816Y1451D01*
X2846Y1451D02*
X2852Y1451D01*
X2860Y1451D02*
X2866Y1451D01*
X2896Y1451D02*
X2902Y1451D01*
X2910Y1451D02*
X2916Y1451D01*
X2933Y1451D02*
X2939Y1451D01*
X2960Y1451D02*
X2966Y1451D01*
X3477Y1451D02*
X3486Y1451D01*
X3928Y1451D02*
X3939Y1451D01*
X2810Y1450D02*
X2816Y1450D01*
X2846Y1450D02*
X2852Y1450D01*
X2860Y1450D02*
X2866Y1450D01*
X2896Y1450D02*
X2902Y1450D01*
X2910Y1450D02*
X2916Y1450D01*
X2933Y1450D02*
X2939Y1450D01*
X2960Y1450D02*
X2966Y1450D01*
X3477Y1450D02*
X3486Y1450D01*
X3928Y1450D02*
X3939Y1450D01*
X2810Y1449D02*
X2816Y1449D01*
X2846Y1449D02*
X2852Y1449D01*
X2860Y1449D02*
X2866Y1449D01*
X2896Y1449D02*
X2902Y1449D01*
X2910Y1449D02*
X2916Y1449D01*
X2933Y1449D02*
X2939Y1449D01*
X2960Y1449D02*
X2966Y1449D01*
X3477Y1449D02*
X3486Y1449D01*
X3928Y1449D02*
X3939Y1449D01*
X2810Y1448D02*
X2816Y1448D01*
X2846Y1448D02*
X2852Y1448D01*
X2860Y1448D02*
X2866Y1448D01*
X2896Y1448D02*
X2902Y1448D01*
X2910Y1448D02*
X2916Y1448D01*
X2933Y1448D02*
X2939Y1448D01*
X2960Y1448D02*
X2966Y1448D01*
X3477Y1448D02*
X3486Y1448D01*
X3928Y1448D02*
X3939Y1448D01*
X2810Y1447D02*
X2816Y1447D01*
X2846Y1447D02*
X2852Y1447D01*
X2860Y1447D02*
X2866Y1447D01*
X2896Y1447D02*
X2902Y1447D01*
X2910Y1447D02*
X2916Y1447D01*
X2933Y1447D02*
X2939Y1447D01*
X2960Y1447D02*
X2966Y1447D01*
X3477Y1447D02*
X3486Y1447D01*
X3928Y1447D02*
X3939Y1447D01*
X2810Y1446D02*
X2816Y1446D01*
X2846Y1446D02*
X2852Y1446D01*
X2860Y1446D02*
X2866Y1446D01*
X2896Y1446D02*
X2902Y1446D01*
X2910Y1446D02*
X2916Y1446D01*
X2933Y1446D02*
X2939Y1446D01*
X2960Y1446D02*
X2966Y1446D01*
X3477Y1446D02*
X3486Y1446D01*
X3928Y1446D02*
X3939Y1446D01*
X2810Y1445D02*
X2816Y1445D01*
X2846Y1445D02*
X2852Y1445D01*
X2860Y1445D02*
X2866Y1445D01*
X2896Y1445D02*
X2902Y1445D01*
X2910Y1445D02*
X2916Y1445D01*
X2933Y1445D02*
X2939Y1445D01*
X2960Y1445D02*
X2966Y1445D01*
X3477Y1445D02*
X3486Y1445D01*
X3928Y1445D02*
X3939Y1445D01*
X2810Y1444D02*
X2816Y1444D01*
X2846Y1444D02*
X2852Y1444D01*
X2860Y1444D02*
X2865Y1444D01*
X2896Y1444D02*
X2902Y1444D01*
X2911Y1444D02*
X2915Y1444D01*
X2933Y1444D02*
X2939Y1444D01*
X2960Y1444D02*
X2966Y1444D01*
X3477Y1444D02*
X3486Y1444D01*
X3928Y1444D02*
X3939Y1444D01*
X2810Y1443D02*
X2816Y1443D01*
X2846Y1443D02*
X2852Y1443D01*
X2861Y1443D02*
X2864Y1443D01*
X2896Y1443D02*
X2902Y1443D01*
X2912Y1443D02*
X2914Y1443D01*
X2933Y1443D02*
X2939Y1443D01*
X2960Y1443D02*
X2966Y1443D01*
X3477Y1443D02*
X3486Y1443D01*
X2810Y1442D02*
X2816Y1442D01*
X2846Y1442D02*
X2852Y1442D01*
X2896Y1442D02*
X2902Y1442D01*
X2933Y1442D02*
X2939Y1442D01*
X2960Y1442D02*
X2966Y1442D01*
X3477Y1442D02*
X3486Y1442D01*
X2810Y1441D02*
X2816Y1441D01*
X2846Y1441D02*
X2852Y1441D01*
X2896Y1441D02*
X2902Y1441D01*
X2933Y1441D02*
X2939Y1441D01*
X2960Y1441D02*
X2966Y1441D01*
X3477Y1441D02*
X3486Y1441D01*
X2810Y1440D02*
X2816Y1440D01*
X2846Y1440D02*
X2852Y1440D01*
X2896Y1440D02*
X2902Y1440D01*
X2933Y1440D02*
X2939Y1440D01*
X2960Y1440D02*
X2966Y1440D01*
X3477Y1440D02*
X3486Y1440D01*
X2810Y1439D02*
X2816Y1439D01*
X2846Y1439D02*
X2852Y1439D01*
X2896Y1439D02*
X2902Y1439D01*
X2933Y1439D02*
X2939Y1439D01*
X2960Y1439D02*
X2966Y1439D01*
X3477Y1439D02*
X3486Y1439D01*
X2810Y1438D02*
X2816Y1438D01*
X2846Y1438D02*
X2852Y1438D01*
X2896Y1438D02*
X2902Y1438D01*
X2933Y1438D02*
X2939Y1438D01*
X2960Y1438D02*
X2966Y1438D01*
X3477Y1438D02*
X3486Y1438D01*
X2810Y1437D02*
X2816Y1437D01*
X2846Y1437D02*
X2852Y1437D01*
X2896Y1437D02*
X2902Y1437D01*
X2933Y1437D02*
X2939Y1437D01*
X2960Y1437D02*
X2966Y1437D01*
X3477Y1437D02*
X3486Y1437D01*
X2786Y1436D02*
X2816Y1436D01*
X2846Y1436D02*
X2852Y1436D01*
X2896Y1436D02*
X2902Y1436D01*
X2933Y1436D02*
X2939Y1436D01*
X2960Y1436D02*
X2966Y1436D01*
X3477Y1436D02*
X3486Y1436D01*
X2783Y1435D02*
X2816Y1435D01*
X2846Y1435D02*
X2852Y1435D01*
X2896Y1435D02*
X2902Y1435D01*
X2933Y1435D02*
X2939Y1435D01*
X2960Y1435D02*
X2966Y1435D01*
X3477Y1435D02*
X3486Y1435D01*
X2782Y1434D02*
X2816Y1434D01*
X2846Y1434D02*
X2852Y1434D01*
X2896Y1434D02*
X2902Y1434D01*
X2933Y1434D02*
X2939Y1434D01*
X2960Y1434D02*
X2966Y1434D01*
X3477Y1434D02*
X3486Y1434D01*
X2782Y1433D02*
X2816Y1433D01*
X2846Y1433D02*
X2852Y1433D01*
X2896Y1433D02*
X2902Y1433D01*
X2933Y1433D02*
X2939Y1433D01*
X2960Y1433D02*
X2966Y1433D01*
X3477Y1433D02*
X3486Y1433D01*
X2782Y1432D02*
X2816Y1432D01*
X2846Y1432D02*
X2852Y1432D01*
X2896Y1432D02*
X2902Y1432D01*
X2933Y1432D02*
X2939Y1432D01*
X2960Y1432D02*
X2966Y1432D01*
X3477Y1432D02*
X3486Y1432D01*
X2782Y1431D02*
X2816Y1431D01*
X2846Y1431D02*
X2852Y1431D01*
X2896Y1431D02*
X2902Y1431D01*
X2933Y1431D02*
X2939Y1431D01*
X2960Y1431D02*
X2966Y1431D01*
X3477Y1431D02*
X3486Y1431D01*
X2782Y1430D02*
X2816Y1430D01*
X2846Y1430D02*
X2852Y1430D01*
X2896Y1430D02*
X2902Y1430D01*
X2933Y1430D02*
X2939Y1430D01*
X2960Y1430D02*
X2966Y1430D01*
X3477Y1430D02*
X3486Y1430D01*
X2782Y1429D02*
X2788Y1429D01*
X2809Y1429D02*
X2816Y1429D01*
X2846Y1429D02*
X2852Y1429D01*
X2896Y1429D02*
X2902Y1429D01*
X2933Y1429D02*
X2939Y1429D01*
X2960Y1429D02*
X2966Y1429D01*
X3477Y1429D02*
X3486Y1429D01*
X2782Y1428D02*
X2788Y1428D01*
X2810Y1428D02*
X2816Y1428D01*
X2846Y1428D02*
X2852Y1428D01*
X2896Y1428D02*
X2902Y1428D01*
X2933Y1428D02*
X2939Y1428D01*
X2960Y1428D02*
X2966Y1428D01*
X3477Y1428D02*
X3486Y1428D01*
X2782Y1427D02*
X2788Y1427D01*
X2810Y1427D02*
X2816Y1427D01*
X2846Y1427D02*
X2852Y1427D01*
X2896Y1427D02*
X2902Y1427D01*
X2933Y1427D02*
X2939Y1427D01*
X2960Y1427D02*
X2966Y1427D01*
X3477Y1427D02*
X3486Y1427D01*
X2782Y1426D02*
X2788Y1426D01*
X2810Y1426D02*
X2816Y1426D01*
X2846Y1426D02*
X2852Y1426D01*
X2896Y1426D02*
X2902Y1426D01*
X2933Y1426D02*
X2939Y1426D01*
X2960Y1426D02*
X2966Y1426D01*
X3477Y1426D02*
X3486Y1426D01*
X2782Y1425D02*
X2788Y1425D01*
X2810Y1425D02*
X2816Y1425D01*
X2846Y1425D02*
X2852Y1425D01*
X2896Y1425D02*
X2902Y1425D01*
X2933Y1425D02*
X2939Y1425D01*
X2960Y1425D02*
X2966Y1425D01*
X3477Y1425D02*
X3486Y1425D01*
X2782Y1424D02*
X2788Y1424D01*
X2810Y1424D02*
X2816Y1424D01*
X2846Y1424D02*
X2852Y1424D01*
X2896Y1424D02*
X2902Y1424D01*
X2933Y1424D02*
X2939Y1424D01*
X2960Y1424D02*
X2966Y1424D01*
X3477Y1424D02*
X3486Y1424D01*
X2782Y1423D02*
X2788Y1423D01*
X2810Y1423D02*
X2816Y1423D01*
X2846Y1423D02*
X2852Y1423D01*
X2896Y1423D02*
X2902Y1423D01*
X2933Y1423D02*
X2939Y1423D01*
X2960Y1423D02*
X2966Y1423D01*
X3477Y1423D02*
X3486Y1423D01*
X2782Y1422D02*
X2788Y1422D01*
X2810Y1422D02*
X2816Y1422D01*
X2846Y1422D02*
X2852Y1422D01*
X2896Y1422D02*
X2902Y1422D01*
X2933Y1422D02*
X2939Y1422D01*
X2960Y1422D02*
X2966Y1422D01*
X3477Y1422D02*
X3486Y1422D01*
X2782Y1421D02*
X2788Y1421D01*
X2810Y1421D02*
X2816Y1421D01*
X2846Y1421D02*
X2852Y1421D01*
X2896Y1421D02*
X2902Y1421D01*
X2933Y1421D02*
X2939Y1421D01*
X2960Y1421D02*
X2966Y1421D01*
X3477Y1421D02*
X3486Y1421D01*
X2782Y1420D02*
X2788Y1420D01*
X2810Y1420D02*
X2816Y1420D01*
X2846Y1420D02*
X2852Y1420D01*
X2896Y1420D02*
X2902Y1420D01*
X2933Y1420D02*
X2939Y1420D01*
X2960Y1420D02*
X2966Y1420D01*
X3477Y1420D02*
X3486Y1420D01*
X2782Y1419D02*
X2788Y1419D01*
X2810Y1419D02*
X2816Y1419D01*
X2846Y1419D02*
X2852Y1419D01*
X2896Y1419D02*
X2902Y1419D01*
X2933Y1419D02*
X2939Y1419D01*
X2960Y1419D02*
X2966Y1419D01*
X3477Y1419D02*
X3486Y1419D01*
X2782Y1418D02*
X2788Y1418D01*
X2810Y1418D02*
X2816Y1418D01*
X2846Y1418D02*
X2852Y1418D01*
X2896Y1418D02*
X2902Y1418D01*
X2933Y1418D02*
X2939Y1418D01*
X2960Y1418D02*
X2966Y1418D01*
X3477Y1418D02*
X3486Y1418D01*
X2782Y1417D02*
X2788Y1417D01*
X2810Y1417D02*
X2816Y1417D01*
X2846Y1417D02*
X2852Y1417D01*
X2896Y1417D02*
X2902Y1417D01*
X2933Y1417D02*
X2939Y1417D01*
X2960Y1417D02*
X2966Y1417D01*
X3477Y1417D02*
X3486Y1417D01*
X2782Y1416D02*
X2816Y1416D01*
X2835Y1416D02*
X2852Y1416D01*
X2885Y1416D02*
X2902Y1416D01*
X2933Y1416D02*
X2966Y1416D01*
X3477Y1416D02*
X3486Y1416D01*
X2782Y1415D02*
X2816Y1415D01*
X2833Y1415D02*
X2852Y1415D01*
X2883Y1415D02*
X2902Y1415D01*
X2933Y1415D02*
X2966Y1415D01*
X3477Y1415D02*
X3486Y1415D01*
X2782Y1414D02*
X2816Y1414D01*
X2832Y1414D02*
X2852Y1414D01*
X2883Y1414D02*
X2902Y1414D01*
X2933Y1414D02*
X2966Y1414D01*
X3477Y1414D02*
X3486Y1414D01*
X2782Y1413D02*
X2816Y1413D01*
X2832Y1413D02*
X2852Y1413D01*
X2882Y1413D02*
X2902Y1413D01*
X2934Y1413D02*
X2965Y1413D01*
X3477Y1413D02*
X3486Y1413D01*
X2782Y1412D02*
X2815Y1412D01*
X2832Y1412D02*
X2852Y1412D01*
X2883Y1412D02*
X2902Y1412D01*
X2934Y1412D02*
X2965Y1412D01*
X3477Y1412D02*
X3486Y1412D01*
X2783Y1411D02*
X2815Y1411D01*
X2833Y1411D02*
X2852Y1411D01*
X2883Y1411D02*
X2902Y1411D01*
X2935Y1411D02*
X2964Y1411D01*
X3477Y1411D02*
X3486Y1411D01*
X2783Y1410D02*
X2814Y1410D01*
X2834Y1410D02*
X2852Y1410D01*
X2884Y1410D02*
X2902Y1410D01*
X2937Y1410D02*
X2962Y1410D01*
X3477Y1410D02*
X3486Y1410D01*
X3477Y1409D02*
X3486Y1409D01*
X3477Y1408D02*
X3486Y1408D01*
X3477Y1407D02*
X3486Y1407D01*
X3477Y1406D02*
X3486Y1406D01*
X3477Y1405D02*
X3486Y1405D01*
X3477Y1404D02*
X3486Y1404D01*
X3477Y1403D02*
X3486Y1403D01*
X3477Y1402D02*
X3486Y1402D01*
X3477Y1401D02*
X3486Y1401D01*
X3477Y1400D02*
X3486Y1400D01*
X3477Y1399D02*
X3486Y1399D01*
X3477Y1398D02*
X3486Y1398D01*
X3477Y1397D02*
X3486Y1397D01*
X3477Y1396D02*
X3486Y1396D01*
X3477Y1395D02*
X3486Y1395D01*
X3477Y1394D02*
X3486Y1394D01*
X3477Y1393D02*
X3486Y1393D01*
X3477Y1392D02*
X3486Y1392D01*
X3477Y1391D02*
X3486Y1391D01*
X3477Y1390D02*
X3486Y1390D01*
X3477Y1389D02*
X3486Y1389D01*
X3477Y1388D02*
X3486Y1388D01*
X3477Y1387D02*
X3486Y1387D01*
X3477Y1386D02*
X3486Y1386D01*
X3477Y1385D02*
X3486Y1385D01*
X3477Y1384D02*
X3486Y1384D01*
X3477Y1383D02*
X3486Y1383D01*
X3477Y1382D02*
X3486Y1382D01*
X3477Y1381D02*
X3486Y1381D01*
X3477Y1380D02*
X3486Y1380D01*
X3477Y1379D02*
X3486Y1379D01*
X3477Y1378D02*
X3486Y1378D01*
X3477Y1377D02*
X3486Y1377D01*
X3477Y1376D02*
X3486Y1376D01*
X3477Y1375D02*
X3486Y1375D01*
X3477Y1374D02*
X3486Y1374D01*
X3477Y1373D02*
X3486Y1373D01*
X3477Y1372D02*
X3486Y1372D01*
X3477Y1371D02*
X3486Y1371D01*
X3477Y1370D02*
X3486Y1370D01*
X3477Y1369D02*
X3486Y1369D01*
X3477Y1368D02*
X3486Y1368D01*
X3477Y1367D02*
X3486Y1367D01*
X3477Y1366D02*
X3486Y1366D01*
X3477Y1365D02*
X3486Y1365D01*
X3477Y1364D02*
X3486Y1364D01*
X3477Y1363D02*
X3486Y1363D01*
X3477Y1362D02*
X3486Y1362D01*
X3477Y1361D02*
X3486Y1361D01*
X3477Y1360D02*
X3486Y1360D01*
X3477Y1359D02*
X3486Y1359D01*
X3477Y1358D02*
X3486Y1358D01*
X3477Y1357D02*
X3486Y1357D01*
X3477Y1356D02*
X3486Y1356D01*
X3477Y1355D02*
X3486Y1355D01*
X3477Y1354D02*
X3486Y1354D01*
X3477Y1353D02*
X3486Y1353D01*
X3477Y1352D02*
X3486Y1352D01*
X3477Y1351D02*
X3486Y1351D01*
X3477Y1350D02*
X3486Y1350D01*
X3477Y1349D02*
X3486Y1349D01*
X3477Y1348D02*
X3486Y1348D01*
X3477Y1347D02*
X3486Y1347D01*
X3477Y1346D02*
X3486Y1346D01*
X3477Y1345D02*
X3486Y1345D01*
X3477Y1344D02*
X3486Y1344D01*
X3477Y1343D02*
X3486Y1343D01*
X3477Y1342D02*
X3486Y1342D01*
X3477Y1341D02*
X3486Y1341D01*
X3477Y1340D02*
X3486Y1340D01*
X3477Y1339D02*
X3486Y1339D01*
X3477Y1338D02*
X3486Y1338D01*
X3477Y1337D02*
X3486Y1337D01*
X3477Y1336D02*
X3486Y1336D01*
X3477Y1335D02*
X3486Y1335D01*
X3477Y1334D02*
X3486Y1334D01*
X3477Y1333D02*
X3486Y1333D01*
X3477Y1332D02*
X3486Y1332D01*
X3477Y1331D02*
X3486Y1331D01*
X3477Y1330D02*
X3486Y1330D01*
X3477Y1329D02*
X3486Y1329D01*
X3477Y1328D02*
X3486Y1328D01*
X3477Y1327D02*
X3486Y1327D01*
X3477Y1326D02*
X3486Y1326D01*
X3477Y1325D02*
X3486Y1325D01*
X3477Y1324D02*
X3486Y1324D01*
X3477Y1323D02*
X3486Y1323D01*
X3477Y1322D02*
X3486Y1322D01*
X3477Y1321D02*
X3486Y1321D01*
X3477Y1320D02*
X3486Y1320D01*
X3477Y1319D02*
X3486Y1319D01*
X3477Y1318D02*
X3486Y1318D01*
X3477Y1317D02*
X3486Y1317D01*
X3477Y1316D02*
X3486Y1316D01*
X3477Y1315D02*
X3486Y1315D01*
X3477Y1314D02*
X3486Y1314D01*
X3477Y1313D02*
X3486Y1313D01*
X3477Y1312D02*
X3486Y1312D01*
X3477Y1311D02*
X3486Y1311D01*
X3477Y1310D02*
X3486Y1310D01*
X3477Y1309D02*
X3486Y1309D01*
X3477Y1308D02*
X3486Y1308D01*
X3477Y1307D02*
X3486Y1307D01*
X3477Y1306D02*
X3486Y1306D01*
X3477Y1305D02*
X3486Y1305D01*
X3477Y1304D02*
X3486Y1304D01*
X3477Y1303D02*
X3486Y1303D01*
X3477Y1302D02*
X3486Y1302D01*
X3477Y1301D02*
X3486Y1301D01*
X3477Y1300D02*
X3486Y1300D01*
X3477Y1299D02*
X3486Y1299D01*
X3477Y1298D02*
X3486Y1298D01*
X3477Y1297D02*
X3486Y1297D01*
X3477Y1296D02*
X3486Y1296D01*
X3477Y1295D02*
X3486Y1295D01*
X3477Y1294D02*
X3486Y1294D01*
X3477Y1293D02*
X3486Y1293D01*
X3477Y1292D02*
X3486Y1292D01*
X3477Y1291D02*
X3486Y1291D01*
X3477Y1290D02*
X3486Y1290D01*
X3477Y1289D02*
X3486Y1289D01*
X3477Y1288D02*
X3486Y1288D01*
X3477Y1287D02*
X3486Y1287D01*
X3477Y1286D02*
X3486Y1286D01*
X3477Y1285D02*
X3486Y1285D01*
X3477Y1284D02*
X3486Y1284D01*
X3477Y1283D02*
X3486Y1283D01*
X3477Y1282D02*
X3486Y1282D01*
X3477Y1281D02*
X3486Y1281D01*
X3477Y1280D02*
X3486Y1280D01*
X3477Y1279D02*
X3486Y1279D01*
X3477Y1278D02*
X3486Y1278D01*
X3477Y1277D02*
X3486Y1277D01*
X3477Y1276D02*
X3486Y1276D01*
X3477Y1275D02*
X3486Y1275D01*
X3477Y1274D02*
X3486Y1274D01*
X3477Y1273D02*
X3486Y1273D01*
X3477Y1272D02*
X3486Y1272D01*
X3477Y1271D02*
X3486Y1271D01*
X3477Y1270D02*
X3482Y1270D01*
X3477Y1269D02*
X3482Y1269D01*
X3477Y1268D02*
X3482Y1268D01*
X3477Y1267D02*
X3482Y1267D01*
X3477Y1266D02*
X3482Y1266D01*
X3477Y1265D02*
X3482Y1265D01*
X3477Y1264D02*
X3482Y1264D01*
X3477Y1263D02*
X3482Y1263D01*
X3477Y1262D02*
X3482Y1262D01*
X3477Y1261D02*
X3482Y1261D01*
X3477Y1260D02*
X3482Y1260D01*
X3477Y1259D02*
X3482Y1259D01*
X3477Y1258D02*
X3482Y1258D01*
X3477Y1257D02*
X3482Y1257D01*
X3477Y1256D02*
X3482Y1256D01*
X3927Y1256D02*
X3939Y1256D01*
X3477Y1255D02*
X3482Y1255D01*
X3927Y1255D02*
X3939Y1255D01*
X3477Y1254D02*
X3482Y1254D01*
X3927Y1254D02*
X3939Y1254D01*
X3477Y1253D02*
X3482Y1253D01*
X3927Y1253D02*
X3939Y1253D01*
X3477Y1252D02*
X3482Y1252D01*
X3927Y1252D02*
X3939Y1252D01*
X3477Y1251D02*
X3482Y1251D01*
X3927Y1251D02*
X3939Y1251D01*
X3477Y1250D02*
X3482Y1250D01*
X3927Y1250D02*
X3939Y1250D01*
X3477Y1249D02*
X3482Y1249D01*
X3927Y1249D02*
X3939Y1249D01*
X3477Y1248D02*
X3482Y1248D01*
X3927Y1248D02*
X3939Y1248D01*
X3477Y1247D02*
X3482Y1247D01*
X3927Y1247D02*
X3939Y1247D01*
X3477Y1246D02*
X3482Y1246D01*
X3477Y1245D02*
X3482Y1245D01*
X3477Y1244D02*
X3482Y1244D01*
X3477Y1243D02*
X3482Y1243D01*
X3477Y1242D02*
X3482Y1242D01*
X3477Y1241D02*
X3482Y1241D01*
X3477Y1240D02*
X3482Y1240D01*
X3477Y1239D02*
X3482Y1239D01*
X3477Y1238D02*
X3482Y1238D01*
X3477Y1237D02*
X3482Y1237D01*
X3477Y1236D02*
X3482Y1236D01*
X3572Y1236D02*
X3800Y1236D01*
X3890Y1236D02*
X3925Y1236D01*
X3477Y1235D02*
X3482Y1235D01*
X3572Y1235D02*
X3800Y1235D01*
X3890Y1235D02*
X3925Y1235D01*
X3477Y1234D02*
X3482Y1234D01*
X3572Y1234D02*
X3800Y1234D01*
X3890Y1234D02*
X3925Y1234D01*
X3477Y1233D02*
X3482Y1233D01*
X3572Y1233D02*
X3800Y1233D01*
X3890Y1233D02*
X3925Y1233D01*
X3477Y1232D02*
X3482Y1232D01*
X3572Y1232D02*
X3800Y1232D01*
X3890Y1232D02*
X3925Y1232D01*
X3482Y1231D02*
X3482Y1231D01*
X3572Y1231D02*
X3800Y1231D01*
X3890Y1231D02*
X3925Y1231D01*
X3482Y1230D02*
X3482Y1230D01*
X3572Y1230D02*
X3800Y1230D01*
X3890Y1230D02*
X3925Y1230D01*
X3482Y1229D02*
X3482Y1229D01*
X3572Y1229D02*
X3800Y1229D01*
X3890Y1229D02*
X3925Y1229D01*
X3482Y1228D02*
X3482Y1228D01*
X3572Y1228D02*
X3800Y1228D01*
X3890Y1228D02*
X3925Y1228D01*
X3482Y1227D02*
X3482Y1227D01*
X3572Y1227D02*
X3800Y1227D01*
X3890Y1227D02*
X3925Y1227D01*
X694Y1058D02*
X697Y1058D01*
X693Y1057D02*
X697Y1057D01*
X693Y1056D02*
X698Y1056D01*
X681Y1055D02*
X714Y1055D01*
X680Y1054D02*
X715Y1054D01*
X680Y1053D02*
X716Y1053D01*
X680Y1052D02*
X715Y1052D01*
X680Y1051D02*
X715Y1051D01*
X693Y1050D02*
X698Y1050D01*
X693Y1049D02*
X698Y1049D01*
X693Y1048D02*
X698Y1048D01*
X693Y1047D02*
X698Y1047D01*
X693Y1046D02*
X698Y1046D01*
X693Y1045D02*
X698Y1045D01*
X693Y1044D02*
X698Y1044D01*
X693Y1043D02*
X698Y1043D01*
X693Y1042D02*
X698Y1042D01*
X693Y1041D02*
X698Y1041D01*
X693Y1040D02*
X698Y1040D01*
X693Y1039D02*
X719Y1039D01*
X693Y1038D02*
X720Y1038D01*
X693Y1037D02*
X720Y1037D01*
X693Y1036D02*
X720Y1036D01*
X693Y1035D02*
X719Y1035D01*
X681Y1021D02*
X683Y1021D01*
X701Y1021D02*
X716Y1021D01*
X680Y1020D02*
X684Y1020D01*
X700Y1020D02*
X718Y1020D01*
X680Y1019D02*
X684Y1019D01*
X699Y1019D02*
X719Y1019D01*
X680Y1018D02*
X684Y1018D01*
X698Y1018D02*
X720Y1018D01*
X680Y1017D02*
X684Y1017D01*
X698Y1017D02*
X720Y1017D01*
X680Y1016D02*
X684Y1016D01*
X698Y1016D02*
X720Y1016D01*
X680Y1015D02*
X684Y1015D01*
X698Y1015D02*
X702Y1015D01*
X716Y1015D02*
X720Y1015D01*
X680Y1014D02*
X684Y1014D01*
X698Y1014D02*
X702Y1014D01*
X716Y1014D02*
X720Y1014D01*
X680Y1013D02*
X684Y1013D01*
X698Y1013D02*
X702Y1013D01*
X716Y1013D02*
X720Y1013D01*
X680Y1012D02*
X684Y1012D01*
X698Y1012D02*
X702Y1012D01*
X716Y1012D02*
X720Y1012D01*
X680Y1011D02*
X684Y1011D01*
X698Y1011D02*
X702Y1011D01*
X716Y1011D02*
X720Y1011D01*
X680Y1010D02*
X684Y1010D01*
X698Y1010D02*
X702Y1010D01*
X716Y1010D02*
X720Y1010D01*
X680Y1009D02*
X684Y1009D01*
X698Y1009D02*
X702Y1009D01*
X716Y1009D02*
X720Y1009D01*
X680Y1008D02*
X684Y1008D01*
X698Y1008D02*
X702Y1008D01*
X716Y1008D02*
X720Y1008D01*
X680Y1007D02*
X684Y1007D01*
X698Y1007D02*
X702Y1007D01*
X716Y1007D02*
X720Y1007D01*
X680Y1006D02*
X684Y1006D01*
X698Y1006D02*
X702Y1006D01*
X716Y1006D02*
X720Y1006D01*
X680Y1005D02*
X684Y1005D01*
X698Y1005D02*
X702Y1005D01*
X716Y1005D02*
X720Y1005D01*
X680Y1004D02*
X684Y1004D01*
X698Y1004D02*
X702Y1004D01*
X716Y1004D02*
X720Y1004D01*
X680Y1003D02*
X684Y1003D01*
X698Y1003D02*
X702Y1003D01*
X716Y1003D02*
X720Y1003D01*
X680Y1002D02*
X684Y1002D01*
X698Y1002D02*
X702Y1002D01*
X716Y1002D02*
X720Y1002D01*
X680Y1001D02*
X684Y1001D01*
X698Y1001D02*
X702Y1001D01*
X716Y1001D02*
X720Y1001D01*
X680Y1000D02*
X702Y1000D01*
X716Y1000D02*
X720Y1000D01*
X680Y999D02*
X702Y999D01*
X716Y999D02*
X720Y999D01*
X680Y998D02*
X701Y998D01*
X716Y998D02*
X720Y998D01*
X680Y997D02*
X701Y997D01*
X716Y997D02*
X720Y997D01*
X680Y996D02*
X700Y996D01*
X716Y996D02*
X720Y996D01*
X680Y995D02*
X697Y995D01*
X718Y995D02*
X718Y995D01*
X682Y982D02*
X717Y982D01*
X681Y981D02*
X719Y981D01*
X680Y980D02*
X719Y980D01*
X680Y979D02*
X720Y979D01*
X680Y978D02*
X720Y978D01*
X680Y977D02*
X684Y977D01*
X716Y977D02*
X720Y977D01*
X680Y976D02*
X684Y976D01*
X716Y976D02*
X720Y976D01*
X680Y975D02*
X684Y975D01*
X716Y975D02*
X720Y975D01*
X680Y974D02*
X684Y974D01*
X716Y974D02*
X720Y974D01*
X680Y973D02*
X684Y973D01*
X716Y973D02*
X720Y973D01*
X680Y972D02*
X684Y972D01*
X716Y972D02*
X720Y972D01*
X680Y971D02*
X684Y971D01*
X716Y971D02*
X720Y971D01*
X680Y970D02*
X684Y970D01*
X716Y970D02*
X720Y970D01*
X680Y969D02*
X684Y969D01*
X716Y969D02*
X720Y969D01*
X680Y968D02*
X684Y968D01*
X716Y968D02*
X720Y968D01*
X680Y967D02*
X684Y967D01*
X716Y967D02*
X720Y967D01*
X680Y966D02*
X684Y966D01*
X716Y966D02*
X720Y966D01*
X680Y965D02*
X684Y965D01*
X716Y965D02*
X720Y965D01*
X680Y964D02*
X684Y964D01*
X716Y964D02*
X720Y964D01*
X680Y963D02*
X684Y963D01*
X716Y963D02*
X720Y963D01*
X680Y962D02*
X684Y962D01*
X716Y962D02*
X720Y962D01*
X680Y961D02*
X720Y961D01*
X680Y960D02*
X720Y960D01*
X680Y959D02*
X719Y959D01*
X681Y958D02*
X718Y958D01*
X683Y957D02*
X717Y957D01*
X681Y944D02*
X683Y944D01*
X701Y944D02*
X717Y944D01*
X680Y943D02*
X684Y943D01*
X699Y943D02*
X718Y943D01*
X680Y942D02*
X684Y942D01*
X699Y942D02*
X719Y942D01*
X680Y941D02*
X684Y941D01*
X698Y941D02*
X720Y941D01*
X680Y940D02*
X684Y940D01*
X698Y940D02*
X720Y940D01*
X680Y939D02*
X684Y939D01*
X698Y939D02*
X702Y939D01*
X715Y939D02*
X720Y939D01*
X680Y938D02*
X684Y938D01*
X698Y938D02*
X702Y938D01*
X716Y938D02*
X720Y938D01*
X680Y937D02*
X684Y937D01*
X698Y937D02*
X702Y937D01*
X716Y937D02*
X720Y937D01*
X680Y936D02*
X684Y936D01*
X698Y936D02*
X702Y936D01*
X716Y936D02*
X720Y936D01*
X680Y935D02*
X684Y935D01*
X698Y935D02*
X702Y935D01*
X716Y935D02*
X720Y935D01*
X680Y934D02*
X684Y934D01*
X698Y934D02*
X702Y934D01*
X716Y934D02*
X720Y934D01*
X680Y933D02*
X684Y933D01*
X698Y933D02*
X702Y933D01*
X716Y933D02*
X720Y933D01*
X680Y932D02*
X684Y932D01*
X698Y932D02*
X702Y932D01*
X716Y932D02*
X720Y932D01*
X680Y931D02*
X684Y931D01*
X698Y931D02*
X702Y931D01*
X716Y931D02*
X720Y931D01*
X680Y930D02*
X684Y930D01*
X698Y930D02*
X702Y930D01*
X716Y930D02*
X720Y930D01*
X680Y929D02*
X684Y929D01*
X698Y929D02*
X702Y929D01*
X716Y929D02*
X720Y929D01*
X680Y928D02*
X684Y928D01*
X698Y928D02*
X702Y928D01*
X716Y928D02*
X720Y928D01*
X680Y927D02*
X684Y927D01*
X698Y927D02*
X702Y927D01*
X716Y927D02*
X720Y927D01*
X680Y926D02*
X684Y926D01*
X698Y926D02*
X702Y926D01*
X716Y926D02*
X720Y926D01*
X680Y925D02*
X684Y925D01*
X698Y925D02*
X702Y925D01*
X716Y925D02*
X720Y925D01*
X680Y924D02*
X684Y924D01*
X698Y924D02*
X702Y924D01*
X716Y924D02*
X720Y924D01*
X680Y923D02*
X702Y923D01*
X716Y923D02*
X720Y923D01*
X680Y922D02*
X702Y922D01*
X716Y922D02*
X720Y922D01*
X680Y921D02*
X701Y921D01*
X716Y921D02*
X720Y921D01*
X680Y920D02*
X701Y920D01*
X716Y920D02*
X720Y920D01*
X680Y919D02*
X700Y919D01*
X716Y919D02*
X719Y919D01*
X681Y867D02*
X683Y867D01*
X693Y867D02*
X702Y867D01*
X680Y866D02*
X684Y866D01*
X692Y866D02*
X704Y866D01*
X680Y865D02*
X684Y865D01*
X692Y865D02*
X705Y865D01*
X680Y864D02*
X684Y864D01*
X692Y864D02*
X706Y864D01*
X680Y863D02*
X684Y863D01*
X692Y863D02*
X707Y863D01*
X680Y862D02*
X684Y862D01*
X692Y862D02*
X696Y862D01*
X701Y862D02*
X708Y862D01*
X680Y861D02*
X684Y861D01*
X692Y861D02*
X696Y861D01*
X703Y861D02*
X708Y861D01*
X680Y860D02*
X684Y860D01*
X692Y860D02*
X696Y860D01*
X703Y860D02*
X708Y860D01*
X680Y859D02*
X684Y859D01*
X692Y859D02*
X696Y859D01*
X704Y859D02*
X709Y859D01*
X680Y858D02*
X684Y858D01*
X692Y858D02*
X696Y858D01*
X704Y858D02*
X709Y858D01*
X680Y857D02*
X684Y857D01*
X692Y857D02*
X696Y857D01*
X704Y857D02*
X709Y857D01*
X680Y856D02*
X684Y856D01*
X692Y856D02*
X696Y856D01*
X704Y856D02*
X709Y856D01*
X680Y855D02*
X684Y855D01*
X692Y855D02*
X696Y855D01*
X704Y855D02*
X709Y855D01*
X680Y854D02*
X684Y854D01*
X692Y854D02*
X696Y854D01*
X704Y854D02*
X709Y854D01*
X680Y853D02*
X684Y853D01*
X692Y853D02*
X696Y853D01*
X704Y853D02*
X709Y853D01*
X680Y852D02*
X684Y852D01*
X692Y852D02*
X696Y852D01*
X704Y852D02*
X709Y852D01*
X680Y851D02*
X684Y851D01*
X692Y851D02*
X696Y851D01*
X704Y851D02*
X709Y851D01*
X680Y850D02*
X684Y850D01*
X692Y850D02*
X696Y850D01*
X704Y850D02*
X709Y850D01*
X680Y849D02*
X685Y849D01*
X692Y849D02*
X696Y849D01*
X704Y849D02*
X708Y849D01*
X680Y848D02*
X686Y848D01*
X692Y848D02*
X696Y848D01*
X703Y848D02*
X708Y848D01*
X681Y847D02*
X687Y847D01*
X692Y847D02*
X696Y847D01*
X701Y847D02*
X708Y847D01*
X682Y846D02*
X707Y846D01*
X682Y845D02*
X706Y845D01*
X683Y844D02*
X705Y844D01*
X684Y843D02*
X704Y843D01*
X686Y842D02*
X702Y842D01*
X682Y829D02*
X718Y829D01*
X680Y828D02*
X720Y828D01*
X680Y827D02*
X720Y827D01*
X680Y826D02*
X720Y826D01*
X680Y825D02*
X720Y825D01*
X682Y824D02*
X718Y824D01*
X682Y823D02*
X689Y823D01*
X700Y823D02*
X706Y823D01*
X682Y822D02*
X688Y822D01*
X701Y822D02*
X707Y822D01*
X681Y821D02*
X687Y821D01*
X701Y821D02*
X707Y821D01*
X680Y820D02*
X686Y820D01*
X702Y820D02*
X708Y820D01*
X680Y819D02*
X685Y819D01*
X703Y819D02*
X708Y819D01*
X680Y818D02*
X684Y818D01*
X704Y818D02*
X709Y818D01*
X680Y817D02*
X684Y817D01*
X704Y817D02*
X709Y817D01*
X680Y816D02*
X684Y816D01*
X704Y816D02*
X709Y816D01*
X680Y815D02*
X684Y815D01*
X704Y815D02*
X709Y815D01*
X680Y814D02*
X684Y814D01*
X704Y814D02*
X709Y814D01*
X680Y813D02*
X684Y813D01*
X704Y813D02*
X709Y813D01*
X680Y812D02*
X684Y812D01*
X704Y812D02*
X709Y812D01*
X680Y811D02*
X685Y811D01*
X704Y811D02*
X709Y811D01*
X680Y810D02*
X685Y810D01*
X703Y810D02*
X708Y810D01*
X681Y809D02*
X686Y809D01*
X702Y809D02*
X708Y809D01*
X681Y808D02*
X707Y808D01*
X682Y807D02*
X707Y807D01*
X683Y806D02*
X706Y806D01*
X684Y805D02*
X705Y805D01*
X685Y804D02*
X704Y804D01*
X687Y803D02*
X701Y803D01*
X684Y782D02*
X692Y782D01*
X684Y781D02*
X692Y781D01*
X684Y780D02*
X692Y780D01*
X684Y779D02*
X692Y779D01*
X684Y778D02*
X692Y778D01*
X684Y777D02*
X692Y777D01*
X684Y776D02*
X692Y776D01*
X684Y775D02*
X692Y775D01*
X684Y774D02*
X692Y774D01*
X684Y773D02*
X692Y773D01*
X699Y752D02*
X704Y752D01*
X698Y751D02*
X706Y751D01*
X698Y750D02*
X707Y750D01*
X698Y749D02*
X708Y749D01*
X699Y748D02*
X708Y748D01*
X701Y747D02*
X708Y747D01*
X704Y746D02*
X709Y746D01*
X704Y745D02*
X709Y745D01*
X704Y744D02*
X709Y744D01*
X704Y743D02*
X709Y743D01*
X704Y742D02*
X709Y742D01*
X704Y741D02*
X709Y741D01*
X704Y740D02*
X709Y740D01*
X704Y739D02*
X709Y739D01*
X703Y738D02*
X709Y738D01*
X702Y737D02*
X708Y737D01*
X701Y736D02*
X707Y736D01*
X700Y735D02*
X706Y735D01*
X699Y734D02*
X705Y734D01*
X698Y733D02*
X705Y733D01*
X698Y732D02*
X704Y732D01*
X2105Y732D02*
X2109Y732D01*
X2135Y732D02*
X2138Y732D01*
X681Y731D02*
X707Y731D01*
X2105Y731D02*
X2109Y731D01*
X2134Y731D02*
X2139Y731D01*
X680Y730D02*
X708Y730D01*
X2104Y730D02*
X2110Y730D01*
X2134Y730D02*
X2139Y730D01*
X680Y729D02*
X709Y729D01*
X2104Y729D02*
X2110Y729D01*
X2134Y729D02*
X2139Y729D01*
X680Y728D02*
X709Y728D01*
X2104Y728D02*
X2110Y728D01*
X2134Y728D02*
X2139Y728D01*
X680Y727D02*
X708Y727D01*
X2104Y727D02*
X2110Y727D01*
X2134Y727D02*
X2139Y727D01*
X681Y726D02*
X707Y726D01*
X2104Y726D02*
X2110Y726D01*
X2134Y726D02*
X2139Y726D01*
X2104Y725D02*
X2110Y725D01*
X2134Y725D02*
X2139Y725D01*
X2104Y724D02*
X2110Y724D01*
X2134Y724D02*
X2139Y724D01*
X2104Y723D02*
X2110Y723D01*
X2134Y723D02*
X2139Y723D01*
X2104Y722D02*
X2110Y722D01*
X2134Y722D02*
X2139Y722D01*
X2104Y721D02*
X2110Y721D01*
X2134Y721D02*
X2139Y721D01*
X2104Y720D02*
X2110Y720D01*
X2134Y720D02*
X2139Y720D01*
X2104Y719D02*
X2110Y719D01*
X2134Y719D02*
X2139Y719D01*
X2104Y718D02*
X2110Y718D01*
X2134Y718D02*
X2139Y718D01*
X2104Y717D02*
X2110Y717D01*
X2134Y717D02*
X2139Y717D01*
X2104Y716D02*
X2110Y716D01*
X2134Y716D02*
X2139Y716D01*
X2104Y715D02*
X2110Y715D01*
X2134Y715D02*
X2139Y715D01*
X2105Y714D02*
X2111Y714D01*
X2133Y714D02*
X2139Y714D01*
X680Y713D02*
X683Y713D01*
X693Y713D02*
X703Y713D01*
X2105Y713D02*
X2112Y713D01*
X2132Y713D02*
X2139Y713D01*
X680Y712D02*
X684Y712D01*
X692Y712D02*
X704Y712D01*
X2105Y712D02*
X2112Y712D01*
X2131Y712D02*
X2138Y712D01*
X680Y711D02*
X684Y711D01*
X692Y711D02*
X705Y711D01*
X2106Y711D02*
X2113Y711D01*
X2130Y711D02*
X2138Y711D01*
X680Y710D02*
X684Y710D01*
X692Y710D02*
X706Y710D01*
X2107Y710D02*
X2114Y710D01*
X2130Y710D02*
X2137Y710D01*
X680Y709D02*
X684Y709D01*
X692Y709D02*
X707Y709D01*
X2108Y709D02*
X2115Y709D01*
X2129Y709D02*
X2136Y709D01*
X680Y708D02*
X684Y708D01*
X692Y708D02*
X696Y708D01*
X702Y708D02*
X708Y708D01*
X2108Y708D02*
X2116Y708D01*
X2127Y708D02*
X2136Y708D01*
X680Y707D02*
X684Y707D01*
X692Y707D02*
X696Y707D01*
X703Y707D02*
X708Y707D01*
X2109Y707D02*
X2135Y707D01*
X680Y706D02*
X684Y706D01*
X692Y706D02*
X696Y706D01*
X704Y706D02*
X708Y706D01*
X2110Y706D02*
X2134Y706D01*
X680Y705D02*
X684Y705D01*
X692Y705D02*
X696Y705D01*
X704Y705D02*
X709Y705D01*
X2111Y705D02*
X2133Y705D01*
X680Y704D02*
X684Y704D01*
X692Y704D02*
X696Y704D01*
X704Y704D02*
X709Y704D01*
X2112Y704D02*
X2132Y704D01*
X680Y703D02*
X684Y703D01*
X692Y703D02*
X696Y703D01*
X704Y703D02*
X709Y703D01*
X2113Y703D02*
X2131Y703D01*
X680Y702D02*
X684Y702D01*
X692Y702D02*
X696Y702D01*
X704Y702D02*
X709Y702D01*
X2115Y702D02*
X2129Y702D01*
X680Y701D02*
X684Y701D01*
X692Y701D02*
X696Y701D01*
X704Y701D02*
X709Y701D01*
X680Y700D02*
X684Y700D01*
X692Y700D02*
X696Y700D01*
X704Y700D02*
X709Y700D01*
X680Y699D02*
X684Y699D01*
X692Y699D02*
X696Y699D01*
X704Y699D02*
X709Y699D01*
X680Y698D02*
X684Y698D01*
X692Y698D02*
X696Y698D01*
X704Y698D02*
X709Y698D01*
X680Y697D02*
X684Y697D01*
X692Y697D02*
X696Y697D01*
X704Y697D02*
X709Y697D01*
X680Y696D02*
X684Y696D01*
X692Y696D02*
X696Y696D01*
X704Y696D02*
X709Y696D01*
X680Y695D02*
X685Y695D01*
X692Y695D02*
X696Y695D01*
X703Y695D02*
X708Y695D01*
X680Y694D02*
X686Y694D01*
X692Y694D02*
X696Y694D01*
X702Y694D02*
X708Y694D01*
X681Y693D02*
X688Y693D01*
X692Y693D02*
X697Y693D01*
X701Y693D02*
X707Y693D01*
X682Y692D02*
X707Y692D01*
X683Y691D02*
X706Y691D01*
X683Y690D02*
X705Y690D01*
X684Y689D02*
X704Y689D01*
X686Y688D02*
X702Y688D01*
X2105Y683D02*
X2109Y683D01*
X2105Y682D02*
X2109Y682D01*
X2104Y681D02*
X2110Y681D01*
X2104Y680D02*
X2110Y680D01*
X2104Y679D02*
X2110Y679D01*
X2104Y678D02*
X2110Y678D01*
X2104Y677D02*
X2110Y677D01*
X2104Y676D02*
X2110Y676D01*
X685Y675D02*
X687Y675D01*
X2104Y675D02*
X2110Y675D01*
X683Y674D02*
X688Y674D01*
X2104Y674D02*
X2151Y674D01*
X682Y673D02*
X688Y673D01*
X2104Y673D02*
X2152Y673D01*
X681Y672D02*
X688Y672D01*
X2104Y672D02*
X2153Y672D01*
X681Y671D02*
X688Y671D01*
X706Y671D02*
X707Y671D01*
X2104Y671D02*
X2153Y671D01*
X680Y670D02*
X686Y670D01*
X705Y670D02*
X708Y670D01*
X2104Y670D02*
X2153Y670D01*
X680Y669D02*
X685Y669D01*
X705Y669D02*
X709Y669D01*
X2104Y669D02*
X2153Y669D01*
X680Y668D02*
X684Y668D01*
X704Y668D02*
X709Y668D01*
X2104Y668D02*
X2110Y668D01*
X2147Y668D02*
X2153Y668D01*
X680Y667D02*
X684Y667D01*
X704Y667D02*
X709Y667D01*
X2104Y667D02*
X2110Y667D01*
X2147Y667D02*
X2153Y667D01*
X680Y666D02*
X684Y666D01*
X704Y666D02*
X709Y666D01*
X2104Y666D02*
X2110Y666D01*
X2147Y666D02*
X2153Y666D01*
X680Y665D02*
X684Y665D01*
X704Y665D02*
X709Y665D01*
X2104Y665D02*
X2110Y665D01*
X2147Y665D02*
X2153Y665D01*
X680Y664D02*
X684Y664D01*
X704Y664D02*
X709Y664D01*
X2104Y664D02*
X2110Y664D01*
X2147Y664D02*
X2153Y664D01*
X680Y663D02*
X684Y663D01*
X704Y663D02*
X709Y663D01*
X2104Y663D02*
X2110Y663D01*
X2147Y663D02*
X2153Y663D01*
X680Y662D02*
X684Y662D01*
X704Y662D02*
X709Y662D01*
X2104Y662D02*
X2110Y662D01*
X2147Y662D02*
X2153Y662D01*
X680Y661D02*
X684Y661D01*
X704Y661D02*
X709Y661D01*
X2105Y661D02*
X2110Y661D01*
X2148Y661D02*
X2153Y661D01*
X680Y660D02*
X685Y660D01*
X704Y660D02*
X709Y660D01*
X2105Y660D02*
X2109Y660D01*
X2148Y660D02*
X2152Y660D01*
X680Y659D02*
X717Y659D01*
X2106Y659D02*
X2108Y659D01*
X2149Y659D02*
X2151Y659D01*
X681Y658D02*
X718Y658D01*
X682Y657D02*
X718Y657D01*
X683Y656D02*
X718Y656D01*
X684Y655D02*
X717Y655D01*
X704Y654D02*
X709Y654D01*
X704Y653D02*
X709Y653D01*
X704Y652D02*
X709Y652D01*
X705Y651D02*
X709Y651D01*
X705Y650D02*
X708Y650D01*
X2099Y638D02*
X2137Y638D01*
X2150Y638D02*
X2153Y638D01*
X2096Y637D02*
X2138Y637D01*
X2148Y637D02*
X2155Y637D01*
X684Y636D02*
X691Y636D01*
X703Y636D02*
X705Y636D01*
X2095Y636D02*
X2139Y636D01*
X2148Y636D02*
X2155Y636D01*
X682Y635D02*
X692Y635D01*
X703Y635D02*
X707Y635D01*
X2093Y635D02*
X2139Y635D01*
X2147Y635D02*
X2155Y635D01*
X681Y634D02*
X693Y634D01*
X702Y634D02*
X707Y634D01*
X2093Y634D02*
X2139Y634D01*
X2147Y634D02*
X2156Y634D01*
X681Y633D02*
X694Y633D01*
X702Y633D02*
X708Y633D01*
X2092Y633D02*
X2139Y633D01*
X2147Y633D02*
X2156Y633D01*
X680Y632D02*
X694Y632D01*
X703Y632D02*
X708Y632D01*
X2092Y632D02*
X2139Y632D01*
X2147Y632D02*
X2156Y632D01*
X680Y631D02*
X685Y631D01*
X689Y631D02*
X695Y631D01*
X704Y631D02*
X709Y631D01*
X2091Y631D02*
X2098Y631D01*
X2134Y631D02*
X2139Y631D01*
X2148Y631D02*
X2155Y631D01*
X680Y630D02*
X684Y630D01*
X690Y630D02*
X695Y630D01*
X704Y630D02*
X709Y630D01*
X2091Y630D02*
X2097Y630D01*
X2134Y630D02*
X2139Y630D01*
X2148Y630D02*
X2155Y630D01*
X680Y629D02*
X684Y629D01*
X691Y629D02*
X696Y629D01*
X704Y629D02*
X709Y629D01*
X2091Y629D02*
X2096Y629D01*
X2134Y629D02*
X2139Y629D01*
X2149Y629D02*
X2154Y629D01*
X680Y628D02*
X684Y628D01*
X691Y628D02*
X696Y628D01*
X704Y628D02*
X709Y628D01*
X2091Y628D02*
X2096Y628D01*
X2134Y628D02*
X2139Y628D01*
X680Y627D02*
X684Y627D01*
X692Y627D02*
X696Y627D01*
X704Y627D02*
X709Y627D01*
X2091Y627D02*
X2096Y627D01*
X2134Y627D02*
X2139Y627D01*
X680Y626D02*
X684Y626D01*
X692Y626D02*
X697Y626D01*
X704Y626D02*
X709Y626D01*
X2091Y626D02*
X2096Y626D01*
X2134Y626D02*
X2139Y626D01*
X680Y625D02*
X684Y625D01*
X693Y625D02*
X697Y625D01*
X704Y625D02*
X709Y625D01*
X2091Y625D02*
X2096Y625D01*
X2134Y625D02*
X2139Y625D01*
X680Y624D02*
X684Y624D01*
X693Y624D02*
X698Y624D01*
X704Y624D02*
X709Y624D01*
X2091Y624D02*
X2096Y624D01*
X2134Y624D02*
X2139Y624D01*
X680Y623D02*
X684Y623D01*
X693Y623D02*
X698Y623D01*
X704Y623D02*
X709Y623D01*
X2091Y623D02*
X2096Y623D01*
X2134Y623D02*
X2139Y623D01*
X680Y622D02*
X684Y622D01*
X694Y622D02*
X699Y622D01*
X704Y622D02*
X709Y622D01*
X2091Y622D02*
X2096Y622D01*
X2134Y622D02*
X2139Y622D01*
X680Y621D02*
X684Y621D01*
X694Y621D02*
X699Y621D01*
X704Y621D02*
X709Y621D01*
X2091Y621D02*
X2097Y621D01*
X2134Y621D02*
X2139Y621D01*
X680Y620D02*
X684Y620D01*
X695Y620D02*
X700Y620D01*
X704Y620D02*
X709Y620D01*
X2091Y620D02*
X2097Y620D01*
X2135Y620D02*
X2138Y620D01*
X680Y619D02*
X684Y619D01*
X695Y619D02*
X700Y619D01*
X704Y619D02*
X709Y619D01*
X2092Y619D02*
X2099Y619D01*
X680Y618D02*
X684Y618D01*
X696Y618D02*
X700Y618D01*
X704Y618D02*
X709Y618D01*
X2092Y618D02*
X2101Y618D01*
X680Y617D02*
X684Y617D01*
X696Y617D02*
X701Y617D01*
X704Y617D02*
X709Y617D01*
X2093Y617D02*
X2102Y617D01*
X680Y616D02*
X685Y616D01*
X696Y616D02*
X708Y616D01*
X2093Y616D02*
X2102Y616D01*
X680Y615D02*
X686Y615D01*
X697Y615D02*
X708Y615D01*
X2094Y615D02*
X2102Y615D01*
X681Y614D02*
X686Y614D01*
X698Y614D02*
X707Y614D01*
X2096Y614D02*
X2101Y614D01*
X681Y613D02*
X686Y613D01*
X698Y613D02*
X706Y613D01*
X2098Y613D02*
X2099Y613D01*
X682Y612D02*
X686Y612D01*
X700Y612D02*
X705Y612D01*
X683Y611D02*
X685Y611D01*
X681Y598D02*
X704Y598D01*
X680Y597D02*
X705Y597D01*
X680Y596D02*
X706Y596D01*
X680Y595D02*
X707Y595D01*
X2106Y595D02*
X2108Y595D01*
X2136Y595D02*
X2138Y595D01*
X681Y594D02*
X708Y594D01*
X2105Y594D02*
X2109Y594D01*
X2135Y594D02*
X2139Y594D01*
X682Y593D02*
X687Y593D01*
X692Y593D02*
X697Y593D01*
X703Y593D02*
X708Y593D01*
X2105Y593D02*
X2110Y593D01*
X2134Y593D02*
X2139Y593D01*
X681Y592D02*
X686Y592D01*
X693Y592D02*
X697Y592D01*
X704Y592D02*
X709Y592D01*
X2104Y592D02*
X2110Y592D01*
X2134Y592D02*
X2139Y592D01*
X681Y591D02*
X686Y591D01*
X693Y591D02*
X697Y591D01*
X704Y591D02*
X709Y591D01*
X2104Y591D02*
X2110Y591D01*
X2134Y591D02*
X2139Y591D01*
X680Y590D02*
X685Y590D01*
X693Y590D02*
X697Y590D01*
X705Y590D02*
X709Y590D01*
X2104Y590D02*
X2110Y590D01*
X2134Y590D02*
X2139Y590D01*
X680Y589D02*
X685Y589D01*
X693Y589D02*
X697Y589D01*
X705Y589D02*
X709Y589D01*
X2104Y589D02*
X2110Y589D01*
X2134Y589D02*
X2139Y589D01*
X680Y588D02*
X684Y588D01*
X693Y588D02*
X697Y588D01*
X705Y588D02*
X709Y588D01*
X2104Y588D02*
X2110Y588D01*
X2134Y588D02*
X2139Y588D01*
X680Y587D02*
X684Y587D01*
X693Y587D02*
X697Y587D01*
X705Y587D02*
X709Y587D01*
X2104Y587D02*
X2110Y587D01*
X2134Y587D02*
X2139Y587D01*
X680Y586D02*
X684Y586D01*
X693Y586D02*
X697Y586D01*
X705Y586D02*
X709Y586D01*
X2104Y586D02*
X2110Y586D01*
X2134Y586D02*
X2139Y586D01*
X680Y585D02*
X684Y585D01*
X693Y585D02*
X697Y585D01*
X705Y585D02*
X709Y585D01*
X2104Y585D02*
X2110Y585D01*
X2134Y585D02*
X2139Y585D01*
X680Y584D02*
X684Y584D01*
X693Y584D02*
X697Y584D01*
X705Y584D02*
X709Y584D01*
X2104Y584D02*
X2110Y584D01*
X2134Y584D02*
X2139Y584D01*
X680Y583D02*
X684Y583D01*
X693Y583D02*
X697Y583D01*
X705Y583D02*
X709Y583D01*
X2104Y583D02*
X2110Y583D01*
X2134Y583D02*
X2139Y583D01*
X680Y582D02*
X684Y582D01*
X693Y582D02*
X697Y582D01*
X705Y582D02*
X709Y582D01*
X2104Y582D02*
X2110Y582D01*
X2134Y582D02*
X2139Y582D01*
X680Y581D02*
X684Y581D01*
X693Y581D02*
X697Y581D01*
X705Y581D02*
X709Y581D01*
X2104Y581D02*
X2110Y581D01*
X2134Y581D02*
X2139Y581D01*
X680Y580D02*
X684Y580D01*
X693Y580D02*
X697Y580D01*
X705Y580D02*
X709Y580D01*
X2104Y580D02*
X2110Y580D01*
X2134Y580D02*
X2139Y580D01*
X680Y579D02*
X684Y579D01*
X693Y579D02*
X697Y579D01*
X705Y579D02*
X709Y579D01*
X2104Y579D02*
X2110Y579D01*
X2134Y579D02*
X2139Y579D01*
X680Y578D02*
X685Y578D01*
X692Y578D02*
X697Y578D01*
X705Y578D02*
X709Y578D01*
X2104Y578D02*
X2110Y578D01*
X2134Y578D02*
X2139Y578D01*
X680Y577D02*
X697Y577D01*
X705Y577D02*
X708Y577D01*
X2105Y577D02*
X2110Y577D01*
X2133Y577D02*
X2139Y577D01*
X681Y576D02*
X696Y576D01*
X707Y576D02*
X707Y576D01*
X2105Y576D02*
X2111Y576D01*
X2133Y576D02*
X2139Y576D01*
X682Y575D02*
X696Y575D01*
X2105Y575D02*
X2112Y575D01*
X2132Y575D02*
X2139Y575D01*
X683Y574D02*
X695Y574D01*
X2106Y574D02*
X2113Y574D01*
X2131Y574D02*
X2138Y574D01*
X684Y573D02*
X693Y573D01*
X2106Y573D02*
X2114Y573D01*
X2130Y573D02*
X2138Y573D01*
X2107Y572D02*
X2115Y572D01*
X2129Y572D02*
X2137Y572D01*
X2108Y571D02*
X2116Y571D01*
X2128Y571D02*
X2136Y571D01*
X2109Y570D02*
X2135Y570D01*
X2110Y569D02*
X2134Y569D01*
X2111Y568D02*
X2133Y568D01*
X2112Y567D02*
X2132Y567D01*
X2113Y566D02*
X2131Y566D01*
X2114Y565D02*
X2130Y565D01*
X2117Y564D02*
X2127Y564D01*
X686Y560D02*
X686Y560D01*
X684Y559D02*
X688Y559D01*
X682Y558D02*
X688Y558D01*
X681Y557D02*
X688Y557D01*
X681Y556D02*
X688Y556D01*
X680Y555D02*
X687Y555D01*
X705Y555D02*
X708Y555D01*
X680Y554D02*
X685Y554D01*
X705Y554D02*
X709Y554D01*
X680Y553D02*
X684Y553D01*
X704Y553D02*
X709Y553D01*
X680Y552D02*
X684Y552D01*
X704Y552D02*
X709Y552D01*
X680Y551D02*
X684Y551D01*
X704Y551D02*
X709Y551D01*
X680Y550D02*
X684Y550D01*
X704Y550D02*
X709Y550D01*
X680Y549D02*
X684Y549D01*
X704Y549D02*
X709Y549D01*
X680Y548D02*
X684Y548D01*
X704Y548D02*
X709Y548D01*
X680Y547D02*
X684Y547D01*
X704Y547D02*
X709Y547D01*
X680Y546D02*
X684Y546D01*
X704Y546D02*
X709Y546D01*
X2106Y546D02*
X2108Y546D01*
X680Y545D02*
X685Y545D01*
X704Y545D02*
X709Y545D01*
X2105Y545D02*
X2109Y545D01*
X680Y544D02*
X716Y544D01*
X2105Y544D02*
X2110Y544D01*
X681Y543D02*
X717Y543D01*
X2104Y543D02*
X2110Y543D01*
X681Y542D02*
X718Y542D01*
X2104Y542D02*
X2110Y542D01*
X682Y541D02*
X718Y541D01*
X2104Y541D02*
X2110Y541D01*
X684Y540D02*
X717Y540D01*
X2104Y540D02*
X2110Y540D01*
X687Y539D02*
X715Y539D01*
X2104Y539D02*
X2110Y539D01*
X704Y538D02*
X709Y538D01*
X2104Y538D02*
X2110Y538D01*
X704Y537D02*
X709Y537D01*
X2104Y537D02*
X2110Y537D01*
X705Y536D02*
X709Y536D01*
X2104Y536D02*
X2152Y536D01*
X705Y535D02*
X708Y535D01*
X2104Y535D02*
X2153Y535D01*
X706Y534D02*
X707Y534D01*
X2104Y534D02*
X2153Y534D01*
X2104Y533D02*
X2153Y533D01*
X2104Y532D02*
X2153Y532D01*
X2104Y531D02*
X2153Y531D01*
X2104Y530D02*
X2110Y530D01*
X2147Y530D02*
X2153Y530D01*
X2104Y529D02*
X2110Y529D01*
X2147Y529D02*
X2153Y529D01*
X2104Y528D02*
X2110Y528D01*
X2147Y528D02*
X2153Y528D01*
X2104Y527D02*
X2110Y527D01*
X2147Y527D02*
X2153Y527D01*
X2104Y526D02*
X2110Y526D01*
X2147Y526D02*
X2153Y526D01*
X2104Y525D02*
X2110Y525D01*
X2147Y525D02*
X2153Y525D01*
X2104Y524D02*
X2110Y524D01*
X2148Y524D02*
X2153Y524D01*
X2105Y523D02*
X2109Y523D01*
X2148Y523D02*
X2152Y523D01*
X2105Y522D02*
X2109Y522D01*
X2149Y522D02*
X2152Y522D01*
X681Y521D02*
X683Y521D01*
X693Y521D02*
X702Y521D01*
X680Y520D02*
X684Y520D01*
X692Y520D02*
X704Y520D01*
X680Y519D02*
X684Y519D01*
X692Y519D02*
X705Y519D01*
X680Y518D02*
X684Y518D01*
X692Y518D02*
X706Y518D01*
X680Y517D02*
X684Y517D01*
X692Y517D02*
X707Y517D01*
X680Y516D02*
X684Y516D01*
X692Y516D02*
X696Y516D01*
X701Y516D02*
X708Y516D01*
X680Y515D02*
X684Y515D01*
X692Y515D02*
X696Y515D01*
X703Y515D02*
X708Y515D01*
X680Y514D02*
X684Y514D01*
X692Y514D02*
X696Y514D01*
X704Y514D02*
X708Y514D01*
X680Y513D02*
X684Y513D01*
X692Y513D02*
X696Y513D01*
X704Y513D02*
X709Y513D01*
X680Y512D02*
X684Y512D01*
X692Y512D02*
X696Y512D01*
X704Y512D02*
X709Y512D01*
X680Y511D02*
X684Y511D01*
X692Y511D02*
X696Y511D01*
X704Y511D02*
X709Y511D01*
X680Y510D02*
X684Y510D01*
X692Y510D02*
X696Y510D01*
X704Y510D02*
X709Y510D01*
X680Y509D02*
X684Y509D01*
X692Y509D02*
X696Y509D01*
X704Y509D02*
X709Y509D01*
X680Y508D02*
X684Y508D01*
X692Y508D02*
X696Y508D01*
X704Y508D02*
X709Y508D01*
X680Y507D02*
X684Y507D01*
X692Y507D02*
X696Y507D01*
X704Y507D02*
X709Y507D01*
X680Y506D02*
X684Y506D01*
X692Y506D02*
X696Y506D01*
X704Y506D02*
X709Y506D01*
X680Y505D02*
X684Y505D01*
X692Y505D02*
X696Y505D01*
X704Y505D02*
X709Y505D01*
X680Y504D02*
X684Y504D01*
X692Y504D02*
X696Y504D01*
X704Y504D02*
X709Y504D01*
X680Y503D02*
X685Y503D01*
X692Y503D02*
X696Y503D01*
X703Y503D02*
X708Y503D01*
X680Y502D02*
X686Y502D01*
X692Y502D02*
X696Y502D01*
X703Y502D02*
X708Y502D01*
X681Y501D02*
X687Y501D01*
X692Y501D02*
X696Y501D01*
X701Y501D02*
X708Y501D01*
X682Y500D02*
X707Y500D01*
X2097Y500D02*
X2138Y500D01*
X2149Y500D02*
X2154Y500D01*
X682Y499D02*
X706Y499D01*
X2095Y499D02*
X2139Y499D01*
X2148Y499D02*
X2155Y499D01*
X683Y498D02*
X705Y498D01*
X2094Y498D02*
X2139Y498D01*
X2148Y498D02*
X2155Y498D01*
X684Y497D02*
X704Y497D01*
X2093Y497D02*
X2139Y497D01*
X2147Y497D02*
X2156Y497D01*
X686Y496D02*
X702Y496D01*
X2092Y496D02*
X2139Y496D01*
X2147Y496D02*
X2156Y496D01*
X2092Y495D02*
X2139Y495D01*
X2147Y495D02*
X2156Y495D01*
X2091Y494D02*
X2098Y494D01*
X2134Y494D02*
X2139Y494D01*
X2147Y494D02*
X2155Y494D01*
X2091Y493D02*
X2097Y493D01*
X2134Y493D02*
X2139Y493D01*
X2148Y493D02*
X2155Y493D01*
X2091Y492D02*
X2097Y492D01*
X2134Y492D02*
X2139Y492D01*
X2148Y492D02*
X2155Y492D01*
X2091Y491D02*
X2096Y491D01*
X2134Y491D02*
X2139Y491D01*
X2091Y490D02*
X2096Y490D01*
X2134Y490D02*
X2139Y490D01*
X2091Y489D02*
X2096Y489D01*
X2134Y489D02*
X2139Y489D01*
X2091Y488D02*
X2096Y488D01*
X2134Y488D02*
X2139Y488D01*
X2091Y487D02*
X2096Y487D01*
X2134Y487D02*
X2139Y487D01*
X2091Y486D02*
X2096Y486D01*
X2134Y486D02*
X2139Y486D01*
X2091Y485D02*
X2096Y485D01*
X2134Y485D02*
X2139Y485D01*
X2091Y484D02*
X2096Y484D01*
X2134Y484D02*
X2139Y484D01*
X687Y483D02*
X701Y483D01*
X2091Y483D02*
X2097Y483D01*
X2135Y483D02*
X2139Y483D01*
X685Y482D02*
X703Y482D01*
X2091Y482D02*
X2098Y482D01*
X2136Y482D02*
X2138Y482D01*
X684Y481D02*
X705Y481D01*
X2092Y481D02*
X2100Y481D01*
X683Y480D02*
X706Y480D01*
X2092Y480D02*
X2101Y480D01*
X682Y479D02*
X707Y479D01*
X2093Y479D02*
X2102Y479D01*
X681Y478D02*
X707Y478D01*
X2094Y478D02*
X2102Y478D01*
X681Y477D02*
X686Y477D01*
X702Y477D02*
X708Y477D01*
X2095Y477D02*
X2101Y477D01*
X680Y476D02*
X685Y476D01*
X703Y476D02*
X708Y476D01*
X2097Y476D02*
X2100Y476D01*
X680Y475D02*
X685Y475D01*
X704Y475D02*
X709Y475D01*
X680Y474D02*
X684Y474D01*
X704Y474D02*
X709Y474D01*
X680Y473D02*
X684Y473D01*
X704Y473D02*
X709Y473D01*
X680Y472D02*
X684Y472D01*
X704Y472D02*
X709Y472D01*
X680Y471D02*
X684Y471D01*
X704Y471D02*
X709Y471D01*
X680Y470D02*
X684Y470D01*
X704Y470D02*
X709Y470D01*
X680Y469D02*
X684Y469D01*
X704Y469D02*
X709Y469D01*
X680Y468D02*
X684Y468D01*
X704Y468D02*
X709Y468D01*
X680Y467D02*
X684Y467D01*
X704Y467D02*
X709Y467D01*
X680Y466D02*
X684Y466D01*
X704Y466D02*
X709Y466D01*
X680Y465D02*
X685Y465D01*
X704Y465D02*
X709Y465D01*
X680Y464D02*
X685Y464D01*
X703Y464D02*
X708Y464D01*
X681Y463D02*
X687Y463D01*
X702Y463D02*
X708Y463D01*
X681Y462D02*
X707Y462D01*
X682Y461D02*
X706Y461D01*
X683Y460D02*
X706Y460D01*
X684Y459D02*
X704Y459D01*
X685Y458D02*
X703Y458D01*
X688Y457D02*
X700Y457D01*
X2105Y457D02*
X2109Y457D01*
X2135Y457D02*
X2138Y457D01*
X2105Y456D02*
X2109Y456D01*
X2134Y456D02*
X2139Y456D01*
X2104Y455D02*
X2110Y455D01*
X2134Y455D02*
X2139Y455D01*
X2104Y454D02*
X2110Y454D01*
X2134Y454D02*
X2139Y454D01*
X2104Y453D02*
X2110Y453D01*
X2134Y453D02*
X2139Y453D01*
X2104Y452D02*
X2110Y452D01*
X2134Y452D02*
X2139Y452D01*
X2104Y451D02*
X2110Y451D01*
X2134Y451D02*
X2139Y451D01*
X2104Y450D02*
X2110Y450D01*
X2134Y450D02*
X2139Y450D01*
X2104Y449D02*
X2110Y449D01*
X2134Y449D02*
X2139Y449D01*
X2104Y448D02*
X2110Y448D01*
X2134Y448D02*
X2139Y448D01*
X2104Y447D02*
X2110Y447D01*
X2134Y447D02*
X2139Y447D01*
X2104Y446D02*
X2110Y446D01*
X2134Y446D02*
X2139Y446D01*
X2104Y445D02*
X2110Y445D01*
X2134Y445D02*
X2139Y445D01*
X687Y444D02*
X701Y444D01*
X2104Y444D02*
X2110Y444D01*
X2134Y444D02*
X2139Y444D01*
X685Y443D02*
X703Y443D01*
X2104Y443D02*
X2110Y443D01*
X2134Y443D02*
X2139Y443D01*
X684Y442D02*
X704Y442D01*
X2104Y442D02*
X2110Y442D01*
X2134Y442D02*
X2139Y442D01*
X683Y441D02*
X705Y441D01*
X2104Y441D02*
X2110Y441D01*
X2134Y441D02*
X2139Y441D01*
X683Y440D02*
X706Y440D01*
X2104Y440D02*
X2110Y440D01*
X2134Y440D02*
X2139Y440D01*
X682Y439D02*
X688Y439D01*
X700Y439D02*
X707Y439D01*
X2105Y439D02*
X2111Y439D01*
X2133Y439D02*
X2139Y439D01*
X681Y438D02*
X687Y438D01*
X701Y438D02*
X707Y438D01*
X2105Y438D02*
X2112Y438D01*
X2132Y438D02*
X2139Y438D01*
X680Y437D02*
X686Y437D01*
X702Y437D02*
X708Y437D01*
X2105Y437D02*
X2112Y437D01*
X2131Y437D02*
X2138Y437D01*
X680Y436D02*
X685Y436D01*
X703Y436D02*
X709Y436D01*
X2106Y436D02*
X2113Y436D01*
X2130Y436D02*
X2138Y436D01*
X679Y435D02*
X684Y435D01*
X704Y435D02*
X709Y435D01*
X2107Y435D02*
X2114Y435D01*
X2130Y435D02*
X2137Y435D01*
X679Y434D02*
X684Y434D01*
X705Y434D02*
X710Y434D01*
X2108Y434D02*
X2115Y434D01*
X2129Y434D02*
X2136Y434D01*
X679Y433D02*
X683Y433D01*
X705Y433D02*
X710Y433D01*
X2108Y433D02*
X2116Y433D01*
X2127Y433D02*
X2136Y433D01*
X679Y432D02*
X683Y432D01*
X706Y432D02*
X710Y432D01*
X2109Y432D02*
X2135Y432D01*
X679Y431D02*
X683Y431D01*
X706Y431D02*
X710Y431D01*
X2110Y431D02*
X2134Y431D01*
X679Y430D02*
X683Y430D01*
X705Y430D02*
X710Y430D01*
X2111Y430D02*
X2133Y430D01*
X679Y429D02*
X684Y429D01*
X705Y429D02*
X710Y429D01*
X2112Y429D02*
X2132Y429D01*
X679Y428D02*
X685Y428D01*
X704Y428D02*
X709Y428D01*
X2113Y428D02*
X2131Y428D01*
X680Y427D02*
X686Y427D01*
X702Y427D02*
X709Y427D01*
X2115Y427D02*
X2129Y427D01*
X680Y426D02*
X687Y426D01*
X701Y426D02*
X708Y426D01*
X681Y425D02*
X688Y425D01*
X700Y425D02*
X707Y425D01*
X682Y424D02*
X689Y424D01*
X699Y424D02*
X706Y424D01*
X669Y423D02*
X709Y423D01*
X669Y422D02*
X710Y422D01*
X668Y421D02*
X710Y421D01*
X669Y420D02*
X710Y420D01*
X669Y419D02*
X709Y419D01*
X2105Y408D02*
X2109Y408D01*
X2105Y407D02*
X2109Y407D01*
X685Y406D02*
X714Y406D01*
X2104Y406D02*
X2110Y406D01*
X683Y405D02*
X716Y405D01*
X2104Y405D02*
X2110Y405D01*
X682Y404D02*
X717Y404D01*
X2104Y404D02*
X2110Y404D01*
X681Y403D02*
X718Y403D01*
X2104Y403D02*
X2110Y403D01*
X680Y402D02*
X719Y402D01*
X2104Y402D02*
X2110Y402D01*
X680Y401D02*
X686Y401D01*
X712Y401D02*
X719Y401D01*
X2104Y401D02*
X2110Y401D01*
X680Y400D02*
X685Y400D01*
X714Y400D02*
X720Y400D01*
X2104Y400D02*
X2110Y400D01*
X680Y399D02*
X684Y399D01*
X715Y399D02*
X720Y399D01*
X2104Y399D02*
X2151Y399D01*
X680Y398D02*
X684Y398D01*
X716Y398D02*
X720Y398D01*
X2104Y398D02*
X2152Y398D01*
X680Y397D02*
X685Y397D01*
X716Y397D02*
X720Y397D01*
X2104Y397D02*
X2153Y397D01*
X680Y396D02*
X686Y396D01*
X716Y396D02*
X720Y396D01*
X2104Y396D02*
X2153Y396D01*
X680Y395D02*
X704Y395D01*
X716Y395D02*
X720Y395D01*
X2104Y395D02*
X2153Y395D01*
X681Y394D02*
X704Y394D01*
X716Y394D02*
X720Y394D01*
X2104Y394D02*
X2153Y394D01*
X681Y393D02*
X704Y393D01*
X716Y393D02*
X720Y393D01*
X2104Y393D02*
X2110Y393D01*
X2147Y393D02*
X2153Y393D01*
X681Y392D02*
X704Y392D01*
X716Y392D02*
X720Y392D01*
X2104Y392D02*
X2110Y392D01*
X2147Y392D02*
X2153Y392D01*
X680Y391D02*
X704Y391D01*
X716Y391D02*
X720Y391D01*
X2104Y391D02*
X2110Y391D01*
X2147Y391D02*
X2153Y391D01*
X680Y390D02*
X685Y390D01*
X700Y390D02*
X704Y390D01*
X716Y390D02*
X720Y390D01*
X2104Y390D02*
X2110Y390D01*
X2147Y390D02*
X2153Y390D01*
X680Y389D02*
X684Y389D01*
X700Y389D02*
X704Y389D01*
X716Y389D02*
X720Y389D01*
X2104Y389D02*
X2110Y389D01*
X2147Y389D02*
X2153Y389D01*
X680Y388D02*
X684Y388D01*
X700Y388D02*
X704Y388D01*
X715Y388D02*
X720Y388D01*
X2104Y388D02*
X2110Y388D01*
X2147Y388D02*
X2153Y388D01*
X680Y387D02*
X684Y387D01*
X700Y387D02*
X704Y387D01*
X715Y387D02*
X720Y387D01*
X2104Y387D02*
X2110Y387D01*
X2147Y387D02*
X2153Y387D01*
X680Y386D02*
X685Y386D01*
X699Y386D02*
X704Y386D01*
X714Y386D02*
X719Y386D01*
X2105Y386D02*
X2110Y386D01*
X2148Y386D02*
X2153Y386D01*
X680Y385D02*
X704Y385D01*
X713Y385D02*
X719Y385D01*
X2105Y385D02*
X2109Y385D01*
X2148Y385D02*
X2152Y385D01*
X681Y384D02*
X703Y384D01*
X712Y384D02*
X718Y384D01*
X2106Y384D02*
X2108Y384D01*
X2149Y384D02*
X2151Y384D01*
X681Y383D02*
X702Y383D01*
X711Y383D02*
X717Y383D01*
X682Y382D02*
X701Y382D01*
X711Y382D02*
X716Y382D01*
X684Y381D02*
X700Y381D01*
X712Y381D02*
X715Y381D01*
X684Y367D02*
X688Y367D01*
X683Y366D02*
X688Y366D01*
X681Y365D02*
X688Y365D01*
X681Y364D02*
X688Y364D01*
X680Y363D02*
X687Y363D01*
X705Y363D02*
X708Y363D01*
X2099Y363D02*
X2137Y363D01*
X2150Y363D02*
X2153Y363D01*
X680Y362D02*
X685Y362D01*
X705Y362D02*
X709Y362D01*
X2096Y362D02*
X2138Y362D01*
X2148Y362D02*
X2155Y362D01*
X680Y361D02*
X684Y361D01*
X704Y361D02*
X709Y361D01*
X2095Y361D02*
X2139Y361D01*
X2148Y361D02*
X2155Y361D01*
X680Y360D02*
X684Y360D01*
X704Y360D02*
X709Y360D01*
X2093Y360D02*
X2139Y360D01*
X2147Y360D02*
X2155Y360D01*
X680Y359D02*
X684Y359D01*
X704Y359D02*
X709Y359D01*
X2093Y359D02*
X2139Y359D01*
X2147Y359D02*
X2156Y359D01*
X680Y358D02*
X684Y358D01*
X704Y358D02*
X709Y358D01*
X2092Y358D02*
X2139Y358D01*
X2147Y358D02*
X2156Y358D01*
X680Y357D02*
X684Y357D01*
X704Y357D02*
X709Y357D01*
X2092Y357D02*
X2139Y357D01*
X2147Y357D02*
X2156Y357D01*
X680Y356D02*
X684Y356D01*
X704Y356D02*
X709Y356D01*
X2091Y356D02*
X2098Y356D01*
X2134Y356D02*
X2139Y356D01*
X2148Y356D02*
X2155Y356D01*
X680Y355D02*
X684Y355D01*
X704Y355D02*
X709Y355D01*
X2091Y355D02*
X2097Y355D01*
X2134Y355D02*
X2139Y355D01*
X2148Y355D02*
X2155Y355D01*
X680Y354D02*
X684Y354D01*
X704Y354D02*
X709Y354D01*
X2091Y354D02*
X2096Y354D01*
X2134Y354D02*
X2139Y354D01*
X2149Y354D02*
X2154Y354D01*
X680Y353D02*
X685Y353D01*
X704Y353D02*
X709Y353D01*
X2091Y353D02*
X2096Y353D01*
X2134Y353D02*
X2139Y353D01*
X680Y352D02*
X716Y352D01*
X2091Y352D02*
X2096Y352D01*
X2134Y352D02*
X2139Y352D01*
X681Y351D02*
X717Y351D01*
X2091Y351D02*
X2096Y351D01*
X2134Y351D02*
X2139Y351D01*
X681Y350D02*
X718Y350D01*
X2091Y350D02*
X2096Y350D01*
X2134Y350D02*
X2139Y350D01*
X682Y349D02*
X718Y349D01*
X2091Y349D02*
X2096Y349D01*
X2134Y349D02*
X2139Y349D01*
X683Y348D02*
X717Y348D01*
X2091Y348D02*
X2096Y348D01*
X2134Y348D02*
X2139Y348D01*
X686Y347D02*
X716Y347D01*
X2091Y347D02*
X2096Y347D01*
X2134Y347D02*
X2139Y347D01*
X704Y346D02*
X709Y346D01*
X2091Y346D02*
X2097Y346D01*
X2134Y346D02*
X2139Y346D01*
X704Y345D02*
X709Y345D01*
X2091Y345D02*
X2097Y345D01*
X2135Y345D02*
X2138Y345D01*
X704Y344D02*
X709Y344D01*
X2092Y344D02*
X2099Y344D01*
X705Y343D02*
X708Y343D01*
X2092Y343D02*
X2101Y343D01*
X706Y342D02*
X708Y342D01*
X2093Y342D02*
X2102Y342D01*
X2093Y341D02*
X2102Y341D01*
X2094Y340D02*
X2102Y340D01*
X2096Y339D02*
X2101Y339D01*
X2098Y338D02*
X2099Y338D01*
X681Y329D02*
X703Y329D01*
X680Y328D02*
X705Y328D01*
X680Y327D02*
X706Y327D01*
X680Y326D02*
X707Y326D01*
X680Y325D02*
X708Y325D01*
X682Y324D02*
X708Y324D01*
X704Y323D02*
X709Y323D01*
X704Y322D02*
X709Y322D01*
X704Y321D02*
X709Y321D01*
X704Y320D02*
X709Y320D01*
X2106Y320D02*
X2108Y320D01*
X2136Y320D02*
X2138Y320D01*
X704Y319D02*
X709Y319D01*
X2105Y319D02*
X2109Y319D01*
X2135Y319D02*
X2139Y319D01*
X704Y318D02*
X709Y318D01*
X2105Y318D02*
X2110Y318D01*
X2134Y318D02*
X2139Y318D01*
X704Y317D02*
X709Y317D01*
X2104Y317D02*
X2110Y317D01*
X2134Y317D02*
X2139Y317D01*
X703Y316D02*
X708Y316D01*
X2104Y316D02*
X2110Y316D01*
X2134Y316D02*
X2139Y316D01*
X703Y315D02*
X708Y315D01*
X2104Y315D02*
X2110Y315D01*
X2134Y315D02*
X2139Y315D01*
X702Y314D02*
X708Y314D01*
X2104Y314D02*
X2110Y314D01*
X2134Y314D02*
X2139Y314D01*
X702Y313D02*
X707Y313D01*
X2104Y313D02*
X2110Y313D01*
X2134Y313D02*
X2139Y313D01*
X701Y312D02*
X706Y312D01*
X2104Y312D02*
X2110Y312D01*
X2134Y312D02*
X2139Y312D01*
X700Y311D02*
X706Y311D01*
X2104Y311D02*
X2110Y311D01*
X2134Y311D02*
X2139Y311D01*
X700Y310D02*
X705Y310D01*
X2104Y310D02*
X2110Y310D01*
X2134Y310D02*
X2139Y310D01*
X699Y309D02*
X705Y309D01*
X2104Y309D02*
X2110Y309D01*
X2134Y309D02*
X2139Y309D01*
X680Y308D02*
X708Y308D01*
X2104Y308D02*
X2110Y308D01*
X2134Y308D02*
X2139Y308D01*
X680Y307D02*
X709Y307D01*
X2104Y307D02*
X2110Y307D01*
X2134Y307D02*
X2139Y307D01*
X680Y306D02*
X709Y306D01*
X2104Y306D02*
X2110Y306D01*
X2134Y306D02*
X2139Y306D01*
X680Y305D02*
X708Y305D01*
X2104Y305D02*
X2110Y305D01*
X2134Y305D02*
X2139Y305D01*
X681Y304D02*
X708Y304D01*
X2104Y304D02*
X2110Y304D01*
X2134Y304D02*
X2139Y304D01*
X2104Y303D02*
X2110Y303D01*
X2134Y303D02*
X2139Y303D01*
X2105Y302D02*
X2110Y302D01*
X2133Y302D02*
X2139Y302D01*
X2105Y301D02*
X2111Y301D01*
X2133Y301D02*
X2139Y301D01*
X2105Y300D02*
X2112Y300D01*
X2132Y300D02*
X2139Y300D01*
X2106Y299D02*
X2113Y299D01*
X2131Y299D02*
X2138Y299D01*
X2106Y298D02*
X2114Y298D01*
X2130Y298D02*
X2138Y298D01*
X2107Y297D02*
X2115Y297D01*
X2129Y297D02*
X2137Y297D01*
X2108Y296D02*
X2116Y296D01*
X2128Y296D02*
X2136Y296D01*
X2109Y295D02*
X2135Y295D01*
X2110Y294D02*
X2134Y294D01*
X2111Y293D02*
X2133Y293D01*
X2112Y292D02*
X2132Y292D01*
X2113Y291D02*
X2131Y291D01*
X2114Y290D02*
X2130Y290D01*
X2117Y289D02*
X2127Y289D01*
X681Y288D02*
X683Y288D01*
X680Y287D02*
X684Y287D01*
X680Y286D02*
X684Y286D01*
X680Y285D02*
X684Y285D01*
X680Y284D02*
X684Y284D01*
X680Y283D02*
X684Y283D01*
X680Y282D02*
X684Y282D01*
X680Y281D02*
X684Y281D01*
X680Y280D02*
X708Y280D01*
X717Y280D02*
X721Y280D01*
X680Y279D02*
X709Y279D01*
X716Y279D02*
X722Y279D01*
X680Y278D02*
X709Y278D01*
X716Y278D02*
X722Y278D01*
X680Y277D02*
X709Y277D01*
X716Y277D02*
X722Y277D01*
X680Y276D02*
X709Y276D01*
X716Y276D02*
X722Y276D01*
X680Y275D02*
X684Y275D01*
X704Y275D02*
X709Y275D01*
X716Y275D02*
X722Y275D01*
X680Y274D02*
X684Y274D01*
X704Y274D02*
X709Y274D01*
X716Y274D02*
X722Y274D01*
X680Y273D02*
X684Y273D01*
X704Y273D02*
X709Y273D01*
X717Y273D02*
X721Y273D01*
X680Y272D02*
X684Y272D01*
X704Y272D02*
X709Y272D01*
X680Y271D02*
X684Y271D01*
X704Y271D02*
X709Y271D01*
X2106Y271D02*
X2108Y271D01*
X680Y270D02*
X684Y270D01*
X704Y270D02*
X709Y270D01*
X2105Y270D02*
X2109Y270D01*
X680Y269D02*
X684Y269D01*
X705Y269D02*
X709Y269D01*
X2105Y269D02*
X2110Y269D01*
X681Y268D02*
X683Y268D01*
X705Y268D02*
X708Y268D01*
X2104Y268D02*
X2110Y268D01*
X2104Y267D02*
X2110Y267D01*
X2104Y266D02*
X2110Y266D01*
X2104Y265D02*
X2110Y265D01*
X2104Y264D02*
X2110Y264D01*
X2104Y263D02*
X2110Y263D01*
X2104Y262D02*
X2110Y262D01*
X2104Y261D02*
X2152Y261D01*
X2104Y260D02*
X2153Y260D01*
X2104Y259D02*
X2153Y259D01*
X2104Y258D02*
X2153Y258D01*
X2104Y257D02*
X2153Y257D01*
X2104Y256D02*
X2153Y256D01*
X2104Y255D02*
X2110Y255D01*
X2147Y255D02*
X2153Y255D01*
X2104Y254D02*
X2110Y254D01*
X2147Y254D02*
X2153Y254D01*
X2104Y253D02*
X2110Y253D01*
X2147Y253D02*
X2153Y253D01*
X699Y252D02*
X705Y252D01*
X2104Y252D02*
X2110Y252D01*
X2147Y252D02*
X2153Y252D01*
X698Y251D02*
X706Y251D01*
X2104Y251D02*
X2110Y251D01*
X2147Y251D02*
X2153Y251D01*
X698Y250D02*
X707Y250D01*
X2104Y250D02*
X2110Y250D01*
X2147Y250D02*
X2153Y250D01*
X698Y249D02*
X708Y249D01*
X2104Y249D02*
X2110Y249D01*
X2148Y249D02*
X2153Y249D01*
X699Y248D02*
X708Y248D01*
X2105Y248D02*
X2109Y248D01*
X2148Y248D02*
X2152Y248D01*
X703Y247D02*
X709Y247D01*
X2105Y247D02*
X2109Y247D01*
X2149Y247D02*
X2152Y247D01*
X704Y246D02*
X709Y246D01*
X704Y245D02*
X709Y245D01*
X704Y244D02*
X709Y244D01*
X704Y243D02*
X709Y243D01*
X704Y242D02*
X709Y242D01*
X704Y241D02*
X709Y241D01*
X704Y240D02*
X709Y240D01*
X703Y239D02*
X709Y239D01*
X702Y238D02*
X708Y238D01*
X701Y237D02*
X708Y237D01*
X701Y236D02*
X707Y236D01*
X700Y235D02*
X706Y235D01*
X699Y234D02*
X705Y234D01*
X698Y233D02*
X704Y233D01*
X697Y232D02*
X703Y232D01*
X681Y231D02*
X708Y231D01*
X680Y230D02*
X709Y230D01*
X680Y229D02*
X709Y229D01*
X680Y228D02*
X709Y228D01*
X681Y227D02*
X708Y227D01*
X2097Y225D02*
X2138Y225D01*
X2149Y225D02*
X2154Y225D01*
X2095Y224D02*
X2139Y224D01*
X2148Y224D02*
X2155Y224D01*
X2094Y223D02*
X2139Y223D01*
X2148Y223D02*
X2155Y223D01*
X2093Y222D02*
X2139Y222D01*
X2147Y222D02*
X2156Y222D01*
X2092Y221D02*
X2139Y221D01*
X2147Y221D02*
X2156Y221D01*
X2092Y220D02*
X2139Y220D01*
X2147Y220D02*
X2156Y220D01*
X2091Y219D02*
X2098Y219D01*
X2134Y219D02*
X2139Y219D01*
X2147Y219D02*
X2155Y219D01*
X2091Y218D02*
X2097Y218D01*
X2134Y218D02*
X2139Y218D01*
X2148Y218D02*
X2155Y218D01*
X2091Y217D02*
X2097Y217D01*
X2134Y217D02*
X2139Y217D01*
X2148Y217D02*
X2155Y217D01*
X2091Y216D02*
X2096Y216D01*
X2134Y216D02*
X2139Y216D01*
X2091Y215D02*
X2096Y215D01*
X2134Y215D02*
X2139Y215D01*
X688Y214D02*
X700Y214D01*
X2091Y214D02*
X2096Y214D01*
X2134Y214D02*
X2139Y214D01*
X686Y213D02*
X702Y213D01*
X2091Y213D02*
X2096Y213D01*
X2134Y213D02*
X2139Y213D01*
X685Y212D02*
X703Y212D01*
X2091Y212D02*
X2096Y212D01*
X2134Y212D02*
X2139Y212D01*
X684Y211D02*
X704Y211D01*
X2091Y211D02*
X2096Y211D01*
X2134Y211D02*
X2139Y211D01*
X683Y210D02*
X705Y210D01*
X2091Y210D02*
X2096Y210D01*
X2134Y210D02*
X2139Y210D01*
X682Y209D02*
X706Y209D01*
X2091Y209D02*
X2096Y209D01*
X2134Y209D02*
X2139Y209D01*
X681Y208D02*
X687Y208D01*
X701Y208D02*
X707Y208D01*
X2091Y208D02*
X2097Y208D01*
X2135Y208D02*
X2139Y208D01*
X680Y207D02*
X687Y207D01*
X702Y207D02*
X708Y207D01*
X2091Y207D02*
X2098Y207D01*
X2136Y207D02*
X2138Y207D01*
X680Y206D02*
X686Y206D01*
X703Y206D02*
X709Y206D01*
X2092Y206D02*
X2100Y206D01*
X679Y205D02*
X685Y205D01*
X704Y205D02*
X709Y205D01*
X2092Y205D02*
X2101Y205D01*
X679Y204D02*
X684Y204D01*
X704Y204D02*
X710Y204D01*
X2093Y204D02*
X2102Y204D01*
X679Y203D02*
X683Y203D01*
X705Y203D02*
X710Y203D01*
X2094Y203D02*
X2102Y203D01*
X679Y202D02*
X683Y202D01*
X705Y202D02*
X710Y202D01*
X2095Y202D02*
X2101Y202D01*
X679Y201D02*
X683Y201D01*
X706Y201D02*
X710Y201D01*
X2097Y201D02*
X2100Y201D01*
X679Y200D02*
X683Y200D01*
X705Y200D02*
X710Y200D01*
X679Y199D02*
X683Y199D01*
X705Y199D02*
X710Y199D01*
X679Y198D02*
X684Y198D01*
X704Y198D02*
X709Y198D01*
X679Y197D02*
X685Y197D01*
X703Y197D02*
X709Y197D01*
X680Y196D02*
X686Y196D01*
X702Y196D02*
X708Y196D01*
X681Y195D02*
X687Y195D01*
X701Y195D02*
X708Y195D01*
X682Y194D02*
X688Y194D01*
X700Y194D02*
X707Y194D01*
X670Y193D02*
X708Y193D01*
X669Y192D02*
X709Y192D01*
X668Y191D02*
X710Y191D01*
X668Y190D02*
X710Y190D01*
X669Y189D02*
X709Y189D01*
X670Y188D02*
X708Y188D01*
X680Y175D02*
X683Y175D01*
X693Y175D02*
X703Y175D01*
X680Y174D02*
X684Y174D01*
X692Y174D02*
X704Y174D01*
X680Y173D02*
X684Y173D01*
X692Y173D02*
X705Y173D01*
X680Y172D02*
X684Y172D01*
X692Y172D02*
X706Y172D01*
X680Y171D02*
X684Y171D01*
X692Y171D02*
X707Y171D01*
X680Y170D02*
X684Y170D01*
X692Y170D02*
X696Y170D01*
X702Y170D02*
X708Y170D01*
X680Y169D02*
X684Y169D01*
X692Y169D02*
X696Y169D01*
X703Y169D02*
X708Y169D01*
X680Y168D02*
X684Y168D01*
X692Y168D02*
X696Y168D01*
X704Y168D02*
X708Y168D01*
X680Y167D02*
X684Y167D01*
X692Y167D02*
X696Y167D01*
X704Y167D02*
X709Y167D01*
X680Y166D02*
X684Y166D01*
X692Y166D02*
X696Y166D01*
X704Y166D02*
X709Y166D01*
X680Y165D02*
X684Y165D01*
X692Y165D02*
X696Y165D01*
X704Y165D02*
X709Y165D01*
X680Y164D02*
X684Y164D01*
X692Y164D02*
X696Y164D01*
X704Y164D02*
X709Y164D01*
X680Y163D02*
X684Y163D01*
X692Y163D02*
X696Y163D01*
X704Y163D02*
X709Y163D01*
X680Y162D02*
X684Y162D01*
X692Y162D02*
X696Y162D01*
X704Y162D02*
X709Y162D01*
X680Y161D02*
X684Y161D01*
X692Y161D02*
X696Y161D01*
X704Y161D02*
X709Y161D01*
X680Y160D02*
X684Y160D01*
X692Y160D02*
X696Y160D01*
X704Y160D02*
X709Y160D01*
X680Y159D02*
X684Y159D01*
X692Y159D02*
X696Y159D01*
X704Y159D02*
X709Y159D01*
X680Y158D02*
X684Y158D01*
X692Y158D02*
X696Y158D01*
X704Y158D02*
X709Y158D01*
X680Y157D02*
X685Y157D01*
X692Y157D02*
X696Y157D01*
X703Y157D02*
X708Y157D01*
X680Y156D02*
X686Y156D01*
X692Y156D02*
X696Y156D01*
X702Y156D02*
X708Y156D01*
X681Y155D02*
X688Y155D01*
X692Y155D02*
X697Y155D01*
X701Y155D02*
X707Y155D01*
X682Y154D02*
X707Y154D01*
X683Y153D02*
X706Y153D01*
X683Y152D02*
X705Y152D01*
X684Y151D02*
X704Y151D01*
X686Y150D02*
X702Y150D01*
X682Y137D02*
X707Y137D01*
X680Y136D02*
X708Y136D01*
X680Y135D02*
X709Y135D01*
X680Y134D02*
X709Y134D01*
X680Y133D02*
X708Y133D01*
X681Y132D02*
X707Y132D01*
X684Y131D02*
X689Y131D01*
X683Y130D02*
X688Y130D01*
X682Y129D02*
X688Y129D01*
X682Y128D02*
X687Y128D01*
X681Y127D02*
X687Y127D01*
X681Y126D02*
X686Y126D01*
X680Y125D02*
X685Y125D01*
X680Y124D02*
X685Y124D01*
X680Y123D02*
X684Y123D01*
X680Y122D02*
X684Y122D01*
X680Y121D02*
X684Y121D01*
X680Y120D02*
X684Y120D01*
X680Y119D02*
X684Y119D01*
X680Y118D02*
X684Y118D01*
X680Y117D02*
X686Y117D01*
X680Y116D02*
X708Y116D01*
X681Y115D02*
X709Y115D01*
X682Y114D02*
X709Y114D01*
X683Y113D02*
X709Y113D01*
X684Y112D02*
X708Y112D01*
X681Y96D02*
X683Y96D01*
X680Y95D02*
X684Y95D01*
X680Y94D02*
X684Y94D01*
X680Y93D02*
X684Y93D01*
X680Y92D02*
X684Y92D01*
X680Y91D02*
X684Y91D01*
X680Y90D02*
X684Y90D01*
X680Y89D02*
X684Y89D01*
X680Y88D02*
X719Y88D01*
X680Y87D02*
X720Y87D01*
X680Y86D02*
X720Y86D01*
X680Y85D02*
X720Y85D01*
X680Y84D02*
X720Y84D01*
X680Y83D02*
X684Y83D01*
X715Y83D02*
X720Y83D01*
X680Y82D02*
X684Y82D01*
X716Y82D02*
X720Y82D01*
X680Y81D02*
X684Y81D01*
X716Y81D02*
X720Y81D01*
X680Y80D02*
X684Y80D01*
X716Y80D02*
X720Y80D01*
X680Y79D02*
X684Y79D01*
X716Y79D02*
X720Y79D01*
X680Y78D02*
X684Y78D01*
X716Y78D02*
X720Y78D01*
X680Y77D02*
X684Y77D01*
X716Y77D02*
X720Y77D01*
X680Y76D02*
X683Y76D01*
X717Y76D02*
X719Y76D01*
X686Y60D02*
X702Y60D01*
X685Y59D02*
X704Y59D01*
X683Y58D02*
X705Y58D01*
X683Y57D02*
X706Y57D01*
X682Y56D02*
X707Y56D01*
X681Y55D02*
X688Y55D01*
X701Y55D02*
X707Y55D01*
X680Y54D02*
X686Y54D01*
X702Y54D02*
X708Y54D01*
X680Y53D02*
X685Y53D01*
X703Y53D02*
X708Y53D01*
X680Y52D02*
X684Y52D01*
X704Y52D02*
X709Y52D01*
X680Y51D02*
X684Y51D01*
X704Y51D02*
X709Y51D01*
X680Y50D02*
X684Y50D01*
X704Y50D02*
X709Y50D01*
X680Y49D02*
X684Y49D01*
X704Y49D02*
X709Y49D01*
X680Y48D02*
X684Y48D01*
X704Y48D02*
X709Y48D01*
X680Y47D02*
X684Y47D01*
X704Y47D02*
X709Y47D01*
X680Y46D02*
X684Y46D01*
X704Y46D02*
X709Y46D01*
X680Y45D02*
X685Y45D01*
X704Y45D02*
X709Y45D01*
X680Y44D02*
X685Y44D01*
X703Y44D02*
X708Y44D01*
X681Y43D02*
X686Y43D01*
X702Y43D02*
X708Y43D01*
X681Y42D02*
X687Y42D01*
X701Y42D02*
X707Y42D01*
X682Y41D02*
X688Y41D01*
X700Y41D02*
X707Y41D01*
X683Y40D02*
X689Y40D01*
X699Y40D02*
X706Y40D01*
X681Y39D02*
X719Y39D01*
X680Y38D02*
X720Y38D01*
X680Y37D02*
X720Y37D01*
X680Y36D02*
X720Y36D01*
X680Y35D02*
X719Y35D01*
D02*
G04 End of Silk0*
M02*