G04 MADE WITH FRITZING*
G04 WWW.FRITZING.ORG*
G04 DOUBLE SIDED*
G04 HOLES PLATED*
G04 CONTOUR ON CENTER OF CONTOUR VECTOR*
%ASAXBY*%
%FSLAX23Y23*%
%MOIN*%
%OFA0B0*%
%SFA1.0B1.0*%
%ADD10R,3.937010X1.181100X3.921010X1.165100*%
%ADD11C,0.008000*%
%ADD12R,0.001000X0.001000*%
%LNSILK0*%
G90*
G70*
G54D11*
X4Y1177D02*
X3933Y1177D01*
X3933Y4D01*
X4Y4D01*
X4Y1177D01*
D02*
G54D12*
X2819Y575D02*
X2825Y575D01*
X2957Y575D02*
X2962Y575D01*
X3095Y575D02*
X3100Y575D01*
X3232Y575D02*
X3238Y575D01*
X2815Y574D02*
X2829Y574D01*
X2953Y574D02*
X2967Y574D01*
X3091Y574D02*
X3104Y574D01*
X3228Y574D02*
X3242Y574D01*
X2814Y573D02*
X2831Y573D01*
X2951Y573D02*
X2968Y573D01*
X3089Y573D02*
X3106Y573D01*
X3226Y573D02*
X3243Y573D01*
X2813Y572D02*
X2832Y572D01*
X2950Y572D02*
X2969Y572D01*
X3088Y572D02*
X3107Y572D01*
X3225Y572D02*
X3244Y572D01*
X2812Y571D02*
X2833Y571D01*
X2949Y571D02*
X2970Y571D01*
X3087Y571D02*
X3108Y571D01*
X3224Y571D02*
X3245Y571D01*
X2811Y570D02*
X2833Y570D01*
X2949Y570D02*
X2971Y570D01*
X3086Y570D02*
X3108Y570D01*
X3224Y570D02*
X3246Y570D01*
X2811Y569D02*
X2834Y569D01*
X2948Y569D02*
X2971Y569D01*
X3086Y569D02*
X3109Y569D01*
X3223Y569D02*
X3246Y569D01*
X2810Y568D02*
X2817Y568D01*
X2828Y568D02*
X2834Y568D01*
X2948Y568D02*
X2954Y568D01*
X2965Y568D02*
X2972Y568D01*
X3085Y568D02*
X3092Y568D01*
X3103Y568D02*
X3109Y568D01*
X3223Y568D02*
X3229Y568D01*
X3240Y568D02*
X3247Y568D01*
X2810Y567D02*
X2816Y567D01*
X2829Y567D02*
X2834Y567D01*
X2948Y567D02*
X2953Y567D01*
X2966Y567D02*
X2972Y567D01*
X3085Y567D02*
X3091Y567D01*
X3104Y567D02*
X3109Y567D01*
X3223Y567D02*
X3229Y567D01*
X3241Y567D02*
X3247Y567D01*
X2810Y566D02*
X2815Y566D01*
X2829Y566D02*
X2834Y566D01*
X2948Y566D02*
X2953Y566D01*
X2966Y566D02*
X2972Y566D01*
X3085Y566D02*
X3090Y566D01*
X3104Y566D02*
X3109Y566D01*
X3223Y566D02*
X3228Y566D01*
X3242Y566D02*
X3247Y566D01*
X2810Y565D02*
X2815Y565D01*
X2829Y565D02*
X2834Y565D01*
X2948Y565D02*
X2952Y565D01*
X2967Y565D02*
X2972Y565D01*
X3086Y565D02*
X3090Y565D01*
X3104Y565D02*
X3109Y565D01*
X3223Y565D02*
X3227Y565D01*
X3242Y565D02*
X3247Y565D01*
X2811Y564D02*
X2814Y564D01*
X2829Y564D02*
X2834Y564D01*
X2949Y564D02*
X2952Y564D01*
X2967Y564D02*
X2972Y564D01*
X3086Y564D02*
X3089Y564D01*
X3104Y564D02*
X3109Y564D01*
X3224Y564D02*
X3227Y564D01*
X3242Y564D02*
X3247Y564D01*
X2829Y563D02*
X2834Y563D01*
X2967Y563D02*
X2972Y563D01*
X3104Y563D02*
X3109Y563D01*
X3242Y563D02*
X3247Y563D01*
X2829Y562D02*
X2834Y562D01*
X2967Y562D02*
X2972Y562D01*
X3104Y562D02*
X3109Y562D01*
X3242Y562D02*
X3247Y562D01*
X2829Y561D02*
X2834Y561D01*
X2857Y561D02*
X2879Y561D01*
X2910Y561D02*
X2928Y561D01*
X2967Y561D02*
X2972Y561D01*
X2995Y561D02*
X3016Y561D01*
X3048Y561D02*
X3065Y561D01*
X3104Y561D02*
X3109Y561D01*
X3132Y561D02*
X3154Y561D01*
X3185Y561D02*
X3203Y561D01*
X3242Y561D02*
X3247Y561D01*
X3270Y561D02*
X3291Y561D01*
X3323Y561D02*
X3340Y561D01*
X2829Y560D02*
X2834Y560D01*
X2856Y560D02*
X2880Y560D01*
X2908Y560D02*
X2929Y560D01*
X2967Y560D02*
X2972Y560D01*
X2994Y560D02*
X3017Y560D01*
X3046Y560D02*
X3066Y560D01*
X3104Y560D02*
X3109Y560D01*
X3132Y560D02*
X3155Y560D01*
X3183Y560D02*
X3204Y560D01*
X3242Y560D02*
X3247Y560D01*
X3269Y560D02*
X3292Y560D01*
X3321Y560D02*
X3341Y560D01*
X2829Y559D02*
X2834Y559D01*
X2856Y559D02*
X2880Y559D01*
X2907Y559D02*
X2929Y559D01*
X2967Y559D02*
X2972Y559D01*
X2994Y559D02*
X3018Y559D01*
X3045Y559D02*
X3067Y559D01*
X3104Y559D02*
X3109Y559D01*
X3131Y559D02*
X3155Y559D01*
X3182Y559D02*
X3204Y559D01*
X3242Y559D02*
X3247Y559D01*
X3269Y559D02*
X3293Y559D01*
X3320Y559D02*
X3342Y559D01*
X2829Y558D02*
X2834Y558D01*
X2856Y558D02*
X2880Y558D01*
X2906Y558D02*
X2929Y558D01*
X2967Y558D02*
X2972Y558D01*
X2993Y558D02*
X3018Y558D01*
X3043Y558D02*
X3067Y558D01*
X3104Y558D02*
X3109Y558D01*
X3131Y558D02*
X3155Y558D01*
X3181Y558D02*
X3204Y558D01*
X3242Y558D02*
X3247Y558D01*
X3269Y558D02*
X3293Y558D01*
X3319Y558D02*
X3342Y558D01*
X2829Y557D02*
X2834Y557D01*
X2856Y557D02*
X2880Y557D01*
X2905Y557D02*
X2929Y557D01*
X2967Y557D02*
X2972Y557D01*
X2994Y557D02*
X3017Y557D01*
X3042Y557D02*
X3066Y557D01*
X3104Y557D02*
X3109Y557D01*
X3131Y557D02*
X3155Y557D01*
X3180Y557D02*
X3204Y557D01*
X3242Y557D02*
X3247Y557D01*
X3269Y557D02*
X3292Y557D01*
X3317Y557D02*
X3341Y557D01*
X2829Y556D02*
X2834Y556D01*
X2857Y556D02*
X2879Y556D01*
X2904Y556D02*
X2928Y556D01*
X2967Y556D02*
X2972Y556D01*
X2995Y556D02*
X3017Y556D01*
X3041Y556D02*
X3066Y556D01*
X3104Y556D02*
X3109Y556D01*
X3132Y556D02*
X3154Y556D01*
X3179Y556D02*
X3203Y556D01*
X3242Y556D02*
X3247Y556D01*
X3270Y556D02*
X3292Y556D01*
X3316Y556D02*
X3341Y556D01*
X2829Y555D02*
X2834Y555D01*
X2865Y555D02*
X2871Y555D01*
X2902Y555D02*
X2912Y555D01*
X2967Y555D02*
X2972Y555D01*
X3003Y555D02*
X3009Y555D01*
X3040Y555D02*
X3049Y555D01*
X3104Y555D02*
X3109Y555D01*
X3140Y555D02*
X3146Y555D01*
X3177Y555D02*
X3187Y555D01*
X3242Y555D02*
X3247Y555D01*
X3278Y555D02*
X3284Y555D01*
X3315Y555D02*
X3324Y555D01*
X2829Y554D02*
X2834Y554D01*
X2865Y554D02*
X2871Y554D01*
X2901Y554D02*
X2910Y554D01*
X2967Y554D02*
X2972Y554D01*
X3003Y554D02*
X3008Y554D01*
X3039Y554D02*
X3048Y554D01*
X3104Y554D02*
X3109Y554D01*
X3140Y554D02*
X3146Y554D01*
X3176Y554D02*
X3185Y554D01*
X3242Y554D02*
X3247Y554D01*
X3278Y554D02*
X3283Y554D01*
X3314Y554D02*
X3323Y554D01*
X2829Y553D02*
X2834Y553D01*
X2865Y553D02*
X2871Y553D01*
X2900Y553D02*
X2909Y553D01*
X2967Y553D02*
X2972Y553D01*
X3003Y553D02*
X3008Y553D01*
X3038Y553D02*
X3046Y553D01*
X3104Y553D02*
X3109Y553D01*
X3140Y553D02*
X3146Y553D01*
X3176Y553D02*
X3184Y553D01*
X3242Y553D02*
X3247Y553D01*
X3278Y553D02*
X3283Y553D01*
X3313Y553D02*
X3322Y553D01*
X2829Y552D02*
X2834Y552D01*
X2865Y552D02*
X2871Y552D01*
X2900Y552D02*
X2908Y552D01*
X2967Y552D02*
X2972Y552D01*
X3003Y552D02*
X3008Y552D01*
X3037Y552D02*
X3045Y552D01*
X3104Y552D02*
X3109Y552D01*
X3140Y552D02*
X3146Y552D01*
X3175Y552D02*
X3183Y552D01*
X3242Y552D02*
X3247Y552D01*
X3278Y552D02*
X3283Y552D01*
X3312Y552D02*
X3320Y552D01*
X2829Y551D02*
X2834Y551D01*
X2865Y551D02*
X2871Y551D01*
X2899Y551D02*
X2907Y551D01*
X2967Y551D02*
X2972Y551D01*
X3003Y551D02*
X3008Y551D01*
X3037Y551D02*
X3044Y551D01*
X3104Y551D02*
X3109Y551D01*
X3140Y551D02*
X3146Y551D01*
X3174Y551D02*
X3182Y551D01*
X3242Y551D02*
X3247Y551D01*
X3278Y551D02*
X3283Y551D01*
X3312Y551D02*
X3319Y551D01*
X2829Y550D02*
X2834Y550D01*
X2865Y550D02*
X2871Y550D01*
X2899Y550D02*
X2905Y550D01*
X2967Y550D02*
X2972Y550D01*
X3003Y550D02*
X3008Y550D01*
X3037Y550D02*
X3043Y550D01*
X3104Y550D02*
X3109Y550D01*
X3140Y550D02*
X3146Y550D01*
X3174Y550D02*
X3180Y550D01*
X3242Y550D02*
X3247Y550D01*
X3278Y550D02*
X3283Y550D01*
X3312Y550D02*
X3318Y550D01*
X2829Y549D02*
X2834Y549D01*
X2865Y549D02*
X2871Y549D01*
X2899Y549D02*
X2905Y549D01*
X2967Y549D02*
X2972Y549D01*
X3003Y549D02*
X3008Y549D01*
X3036Y549D02*
X3042Y549D01*
X3104Y549D02*
X3109Y549D01*
X3140Y549D02*
X3146Y549D01*
X3174Y549D02*
X3180Y549D01*
X3242Y549D02*
X3247Y549D01*
X3278Y549D02*
X3283Y549D01*
X3311Y549D02*
X3317Y549D01*
X2829Y548D02*
X2834Y548D01*
X2865Y548D02*
X2871Y548D01*
X2899Y548D02*
X2904Y548D01*
X2967Y548D02*
X2972Y548D01*
X3003Y548D02*
X3008Y548D01*
X3036Y548D02*
X3042Y548D01*
X3104Y548D02*
X3109Y548D01*
X3140Y548D02*
X3146Y548D01*
X3174Y548D02*
X3179Y548D01*
X3242Y548D02*
X3247Y548D01*
X3278Y548D02*
X3283Y548D01*
X3311Y548D02*
X3317Y548D01*
X2829Y547D02*
X2834Y547D01*
X2865Y547D02*
X2871Y547D01*
X2899Y547D02*
X2904Y547D01*
X2967Y547D02*
X2972Y547D01*
X3003Y547D02*
X3008Y547D01*
X3036Y547D02*
X3042Y547D01*
X3104Y547D02*
X3109Y547D01*
X3140Y547D02*
X3146Y547D01*
X3174Y547D02*
X3179Y547D01*
X3242Y547D02*
X3247Y547D01*
X3278Y547D02*
X3283Y547D01*
X3311Y547D02*
X3317Y547D01*
X2829Y546D02*
X2834Y546D01*
X2865Y546D02*
X2871Y546D01*
X2899Y546D02*
X2904Y546D01*
X2967Y546D02*
X2972Y546D01*
X3003Y546D02*
X3008Y546D01*
X3036Y546D02*
X3042Y546D01*
X3104Y546D02*
X3109Y546D01*
X3140Y546D02*
X3146Y546D01*
X3174Y546D02*
X3179Y546D01*
X3242Y546D02*
X3247Y546D01*
X3278Y546D02*
X3283Y546D01*
X3311Y546D02*
X3317Y546D01*
X2829Y545D02*
X2834Y545D01*
X2865Y545D02*
X2871Y545D01*
X2899Y545D02*
X2904Y545D01*
X2967Y545D02*
X2972Y545D01*
X3003Y545D02*
X3008Y545D01*
X3036Y545D02*
X3042Y545D01*
X3104Y545D02*
X3109Y545D01*
X3140Y545D02*
X3146Y545D01*
X3174Y545D02*
X3179Y545D01*
X3242Y545D02*
X3247Y545D01*
X3278Y545D02*
X3283Y545D01*
X3311Y545D02*
X3317Y545D01*
X2829Y544D02*
X2834Y544D01*
X2865Y544D02*
X2871Y544D01*
X2899Y544D02*
X2904Y544D01*
X2967Y544D02*
X2972Y544D01*
X3003Y544D02*
X3008Y544D01*
X3036Y544D02*
X3042Y544D01*
X3104Y544D02*
X3109Y544D01*
X3140Y544D02*
X3146Y544D01*
X3174Y544D02*
X3179Y544D01*
X3242Y544D02*
X3247Y544D01*
X3278Y544D02*
X3283Y544D01*
X3311Y544D02*
X3317Y544D01*
X2829Y543D02*
X2834Y543D01*
X2865Y543D02*
X2871Y543D01*
X2899Y543D02*
X2904Y543D01*
X2967Y543D02*
X2972Y543D01*
X3003Y543D02*
X3008Y543D01*
X3036Y543D02*
X3042Y543D01*
X3104Y543D02*
X3109Y543D01*
X3140Y543D02*
X3146Y543D01*
X3174Y543D02*
X3179Y543D01*
X3242Y543D02*
X3247Y543D01*
X3278Y543D02*
X3283Y543D01*
X3311Y543D02*
X3317Y543D01*
X2829Y542D02*
X2834Y542D01*
X2865Y542D02*
X2871Y542D01*
X2899Y542D02*
X2904Y542D01*
X2967Y542D02*
X2972Y542D01*
X3003Y542D02*
X3008Y542D01*
X3036Y542D02*
X3042Y542D01*
X3104Y542D02*
X3109Y542D01*
X3140Y542D02*
X3146Y542D01*
X3174Y542D02*
X3179Y542D01*
X3242Y542D02*
X3247Y542D01*
X3278Y542D02*
X3283Y542D01*
X3311Y542D02*
X3317Y542D01*
X2829Y541D02*
X2834Y541D01*
X2865Y541D02*
X2871Y541D01*
X2899Y541D02*
X2904Y541D01*
X2967Y541D02*
X2972Y541D01*
X3003Y541D02*
X3008Y541D01*
X3036Y541D02*
X3042Y541D01*
X3104Y541D02*
X3109Y541D01*
X3140Y541D02*
X3146Y541D01*
X3174Y541D02*
X3179Y541D01*
X3242Y541D02*
X3247Y541D01*
X3278Y541D02*
X3283Y541D01*
X3311Y541D02*
X3317Y541D01*
X2829Y540D02*
X2834Y540D01*
X2865Y540D02*
X2871Y540D01*
X2899Y540D02*
X2904Y540D01*
X2967Y540D02*
X2972Y540D01*
X3003Y540D02*
X3008Y540D01*
X3036Y540D02*
X3042Y540D01*
X3104Y540D02*
X3109Y540D01*
X3140Y540D02*
X3146Y540D01*
X3174Y540D02*
X3179Y540D01*
X3242Y540D02*
X3247Y540D01*
X3278Y540D02*
X3283Y540D01*
X3311Y540D02*
X3317Y540D01*
X2829Y539D02*
X2834Y539D01*
X2865Y539D02*
X2871Y539D01*
X2899Y539D02*
X2904Y539D01*
X2967Y539D02*
X2972Y539D01*
X3003Y539D02*
X3008Y539D01*
X3036Y539D02*
X3042Y539D01*
X3104Y539D02*
X3109Y539D01*
X3140Y539D02*
X3146Y539D01*
X3174Y539D02*
X3179Y539D01*
X3242Y539D02*
X3247Y539D01*
X3278Y539D02*
X3283Y539D01*
X3311Y539D02*
X3317Y539D01*
X2829Y538D02*
X2834Y538D01*
X2865Y538D02*
X2871Y538D01*
X2899Y538D02*
X2905Y538D01*
X2967Y538D02*
X2972Y538D01*
X3003Y538D02*
X3008Y538D01*
X3036Y538D02*
X3042Y538D01*
X3104Y538D02*
X3109Y538D01*
X3140Y538D02*
X3146Y538D01*
X3174Y538D02*
X3180Y538D01*
X3242Y538D02*
X3247Y538D01*
X3278Y538D02*
X3283Y538D01*
X3311Y538D02*
X3317Y538D01*
X2829Y537D02*
X2834Y537D01*
X2865Y537D02*
X2871Y537D01*
X2899Y537D02*
X2906Y537D01*
X2967Y537D02*
X2972Y537D01*
X3003Y537D02*
X3008Y537D01*
X3037Y537D02*
X3043Y537D01*
X3104Y537D02*
X3109Y537D01*
X3140Y537D02*
X3146Y537D01*
X3174Y537D02*
X3181Y537D01*
X3242Y537D02*
X3247Y537D01*
X3278Y537D02*
X3283Y537D01*
X3312Y537D02*
X3318Y537D01*
X2829Y536D02*
X2834Y536D01*
X2865Y536D02*
X2871Y536D01*
X2899Y536D02*
X2907Y536D01*
X2967Y536D02*
X2972Y536D01*
X3003Y536D02*
X3008Y536D01*
X3037Y536D02*
X3044Y536D01*
X3104Y536D02*
X3109Y536D01*
X3140Y536D02*
X3146Y536D01*
X3174Y536D02*
X3182Y536D01*
X3242Y536D02*
X3247Y536D01*
X3278Y536D02*
X3283Y536D01*
X3312Y536D02*
X3319Y536D01*
X2829Y535D02*
X2834Y535D01*
X2865Y535D02*
X2871Y535D01*
X2900Y535D02*
X2908Y535D01*
X2967Y535D02*
X2972Y535D01*
X3003Y535D02*
X3008Y535D01*
X3037Y535D02*
X3045Y535D01*
X3104Y535D02*
X3109Y535D01*
X3140Y535D02*
X3146Y535D01*
X3175Y535D02*
X3183Y535D01*
X3242Y535D02*
X3247Y535D01*
X3278Y535D02*
X3283Y535D01*
X3313Y535D02*
X3321Y535D01*
X2829Y534D02*
X2834Y534D01*
X2865Y534D02*
X2871Y534D01*
X2901Y534D02*
X2909Y534D01*
X2967Y534D02*
X2972Y534D01*
X3003Y534D02*
X3008Y534D01*
X3038Y534D02*
X3047Y534D01*
X3104Y534D02*
X3109Y534D01*
X3140Y534D02*
X3146Y534D01*
X3176Y534D02*
X3184Y534D01*
X3242Y534D02*
X3247Y534D01*
X3278Y534D02*
X3283Y534D01*
X3313Y534D02*
X3322Y534D01*
X2829Y533D02*
X2834Y533D01*
X2865Y533D02*
X2871Y533D01*
X2901Y533D02*
X2910Y533D01*
X2967Y533D02*
X2972Y533D01*
X3003Y533D02*
X3008Y533D01*
X3039Y533D02*
X3048Y533D01*
X3104Y533D02*
X3109Y533D01*
X3140Y533D02*
X3146Y533D01*
X3177Y533D02*
X3185Y533D01*
X3242Y533D02*
X3247Y533D01*
X3278Y533D02*
X3283Y533D01*
X3314Y533D02*
X3323Y533D01*
X2829Y532D02*
X2834Y532D01*
X2865Y532D02*
X2871Y532D01*
X2902Y532D02*
X2912Y532D01*
X2966Y532D02*
X2972Y532D01*
X3003Y532D02*
X3008Y532D01*
X3040Y532D02*
X3050Y532D01*
X3104Y532D02*
X3109Y532D01*
X3140Y532D02*
X3146Y532D01*
X3178Y532D02*
X3188Y532D01*
X3241Y532D02*
X3247Y532D01*
X3278Y532D02*
X3283Y532D01*
X3315Y532D02*
X3325Y532D01*
X2817Y531D02*
X2834Y531D01*
X2865Y531D02*
X2871Y531D01*
X2904Y531D02*
X2928Y531D01*
X2955Y531D02*
X2972Y531D01*
X3003Y531D02*
X3008Y531D01*
X3041Y531D02*
X3066Y531D01*
X3092Y531D02*
X3109Y531D01*
X3140Y531D02*
X3146Y531D01*
X3179Y531D02*
X3203Y531D01*
X3230Y531D02*
X3247Y531D01*
X3278Y531D02*
X3283Y531D01*
X3316Y531D02*
X3341Y531D01*
X2817Y530D02*
X2834Y530D01*
X2865Y530D02*
X2871Y530D01*
X2905Y530D02*
X2929Y530D01*
X2954Y530D02*
X2972Y530D01*
X3003Y530D02*
X3008Y530D01*
X3042Y530D02*
X3066Y530D01*
X3092Y530D02*
X3109Y530D01*
X3140Y530D02*
X3146Y530D01*
X3180Y530D02*
X3204Y530D01*
X3229Y530D02*
X3247Y530D01*
X3278Y530D02*
X3283Y530D01*
X3317Y530D02*
X3342Y530D01*
X2816Y529D02*
X2834Y529D01*
X2865Y529D02*
X2871Y529D01*
X2906Y529D02*
X2929Y529D01*
X2954Y529D02*
X2972Y529D01*
X3003Y529D02*
X3008Y529D01*
X3043Y529D02*
X3067Y529D01*
X3091Y529D02*
X3109Y529D01*
X3140Y529D02*
X3146Y529D01*
X3181Y529D02*
X3204Y529D01*
X3229Y529D02*
X3247Y529D01*
X3278Y529D02*
X3283Y529D01*
X3318Y529D02*
X3342Y529D01*
X2816Y528D02*
X2834Y528D01*
X2865Y528D02*
X2871Y528D01*
X2907Y528D02*
X2929Y528D01*
X2954Y528D02*
X2972Y528D01*
X3003Y528D02*
X3008Y528D01*
X3044Y528D02*
X3067Y528D01*
X3092Y528D02*
X3109Y528D01*
X3140Y528D02*
X3146Y528D01*
X3182Y528D02*
X3204Y528D01*
X3229Y528D02*
X3247Y528D01*
X3278Y528D02*
X3283Y528D01*
X3320Y528D02*
X3342Y528D01*
X2817Y527D02*
X2834Y527D01*
X2865Y527D02*
X2871Y527D01*
X2909Y527D02*
X2929Y527D01*
X2954Y527D02*
X2971Y527D01*
X3003Y527D02*
X3008Y527D01*
X3046Y527D02*
X3066Y527D01*
X3092Y527D02*
X3109Y527D01*
X3140Y527D02*
X3146Y527D01*
X3184Y527D02*
X3204Y527D01*
X3230Y527D02*
X3246Y527D01*
X3278Y527D02*
X3283Y527D01*
X3321Y527D02*
X3341Y527D01*
X2818Y526D02*
X2833Y526D01*
X2865Y526D02*
X2871Y526D01*
X2911Y526D02*
X2927Y526D01*
X2956Y526D02*
X2970Y526D01*
X3003Y526D02*
X3008Y526D01*
X3048Y526D02*
X3065Y526D01*
X3093Y526D02*
X3108Y526D01*
X3140Y526D02*
X3146Y526D01*
X3186Y526D02*
X3203Y526D01*
X3231Y526D02*
X3245Y526D01*
X3278Y526D02*
X3283Y526D01*
X3323Y526D02*
X3340Y526D01*
X2865Y525D02*
X2871Y525D01*
X3003Y525D02*
X3008Y525D01*
X3140Y525D02*
X3146Y525D01*
X3278Y525D02*
X3283Y525D01*
X2865Y524D02*
X2871Y524D01*
X3003Y524D02*
X3008Y524D01*
X3140Y524D02*
X3146Y524D01*
X3278Y524D02*
X3283Y524D01*
X2865Y523D02*
X2871Y523D01*
X3003Y523D02*
X3008Y523D01*
X3140Y523D02*
X3146Y523D01*
X3278Y523D02*
X3283Y523D01*
X2865Y522D02*
X2871Y522D01*
X3003Y522D02*
X3008Y522D01*
X3140Y522D02*
X3146Y522D01*
X3278Y522D02*
X3283Y522D01*
X2865Y521D02*
X2871Y521D01*
X3003Y521D02*
X3008Y521D01*
X3140Y521D02*
X3146Y521D01*
X3278Y521D02*
X3283Y521D01*
X2865Y520D02*
X2871Y520D01*
X3003Y520D02*
X3008Y520D01*
X3140Y520D02*
X3146Y520D01*
X3278Y520D02*
X3283Y520D01*
X2865Y519D02*
X2871Y519D01*
X3003Y519D02*
X3008Y519D01*
X3140Y519D02*
X3146Y519D01*
X3278Y519D02*
X3283Y519D01*
X2827Y518D02*
X2833Y518D01*
X2857Y518D02*
X2871Y518D01*
X2965Y518D02*
X2970Y518D01*
X2995Y518D02*
X3008Y518D01*
X3102Y518D02*
X3108Y518D01*
X3133Y518D02*
X3146Y518D01*
X3240Y518D02*
X3245Y518D01*
X3270Y518D02*
X3283Y518D01*
X2826Y517D02*
X2834Y517D01*
X2856Y517D02*
X2871Y517D01*
X2964Y517D02*
X2971Y517D01*
X2994Y517D02*
X3008Y517D01*
X3101Y517D02*
X3109Y517D01*
X3132Y517D02*
X3146Y517D01*
X3239Y517D02*
X3246Y517D01*
X3269Y517D02*
X3283Y517D01*
X2826Y516D02*
X2834Y516D01*
X2856Y516D02*
X2871Y516D01*
X2963Y516D02*
X2972Y516D01*
X2994Y516D02*
X3008Y516D01*
X3101Y516D02*
X3109Y516D01*
X3131Y516D02*
X3146Y516D01*
X3239Y516D02*
X3247Y516D01*
X3269Y516D02*
X3283Y516D01*
X2826Y515D02*
X2834Y515D01*
X2856Y515D02*
X2871Y515D01*
X2963Y515D02*
X2972Y515D01*
X2993Y515D02*
X3008Y515D01*
X3101Y515D02*
X3109Y515D01*
X3131Y515D02*
X3146Y515D01*
X3238Y515D02*
X3247Y515D01*
X3269Y515D02*
X3283Y515D01*
X2826Y514D02*
X2834Y514D01*
X2856Y514D02*
X2870Y514D01*
X2963Y514D02*
X2972Y514D01*
X2994Y514D02*
X3008Y514D01*
X3101Y514D02*
X3109Y514D01*
X3131Y514D02*
X3145Y514D01*
X3238Y514D02*
X3247Y514D01*
X3269Y514D02*
X3283Y514D01*
X2826Y513D02*
X2834Y513D01*
X2857Y513D02*
X2870Y513D01*
X2963Y513D02*
X2972Y513D01*
X2995Y513D02*
X3007Y513D01*
X3101Y513D02*
X3109Y513D01*
X3132Y513D02*
X3145Y513D01*
X3238Y513D02*
X3247Y513D01*
X3270Y513D02*
X3282Y513D01*
X2826Y512D02*
X2834Y512D01*
X2963Y512D02*
X2972Y512D01*
X3101Y512D02*
X3109Y512D01*
X3239Y512D02*
X3247Y512D01*
X2826Y511D02*
X2834Y511D01*
X2964Y511D02*
X2971Y511D01*
X3101Y511D02*
X3109Y511D01*
X3239Y511D02*
X3246Y511D01*
X2827Y510D02*
X2833Y510D01*
X2965Y510D02*
X2970Y510D01*
X3102Y510D02*
X3108Y510D01*
X3240Y510D02*
X3245Y510D01*
D02*
G04 End of Silk0*
M02*