G04 MADE WITH FRITZING*
G04 WWW.FRITZING.ORG*
G04 DOUBLE SIDED*
G04 HOLES PLATED*
G04 CONTOUR ON CENTER OF CONTOUR VECTOR*
%ASAXBY*%
%FSLAX23Y23*%
%MOIN*%
%OFA0B0*%
%SFA1.0B1.0*%
%ADD10R,3.937010X1.181100X3.921010X1.165100*%
%ADD11C,0.008000*%
%ADD12R,0.001000X0.001000*%
%LNSILK0*%
G90*
G70*
G54D11*
X4Y1177D02*
X3933Y1177D01*
X3933Y4D01*
X4Y4D01*
X4Y1177D01*
D02*
G54D12*
X67Y664D02*
X68Y664D01*
X97Y664D02*
X97Y664D01*
X65Y663D02*
X69Y663D01*
X95Y663D02*
X99Y663D01*
X65Y662D02*
X70Y662D01*
X94Y662D02*
X99Y662D01*
X65Y661D02*
X70Y661D01*
X94Y661D02*
X100Y661D01*
X65Y660D02*
X70Y660D01*
X94Y660D02*
X100Y660D01*
X65Y659D02*
X70Y659D01*
X94Y659D02*
X100Y659D01*
X65Y658D02*
X70Y658D01*
X94Y658D02*
X100Y658D01*
X65Y657D02*
X70Y657D01*
X94Y657D02*
X100Y657D01*
X65Y656D02*
X70Y656D01*
X94Y656D02*
X100Y656D01*
X65Y655D02*
X70Y655D01*
X94Y655D02*
X100Y655D01*
X65Y654D02*
X70Y654D01*
X94Y654D02*
X100Y654D01*
X65Y653D02*
X70Y653D01*
X94Y653D02*
X100Y653D01*
X65Y652D02*
X70Y652D01*
X94Y652D02*
X100Y652D01*
X65Y651D02*
X70Y651D01*
X94Y651D02*
X100Y651D01*
X65Y650D02*
X70Y650D01*
X94Y650D02*
X100Y650D01*
X65Y649D02*
X70Y649D01*
X94Y649D02*
X100Y649D01*
X65Y648D02*
X70Y648D01*
X94Y648D02*
X100Y648D01*
X65Y647D02*
X70Y647D01*
X94Y647D02*
X100Y647D01*
X65Y646D02*
X70Y646D01*
X94Y646D02*
X99Y646D01*
X65Y645D02*
X71Y645D01*
X93Y645D02*
X99Y645D01*
X65Y644D02*
X72Y644D01*
X92Y644D02*
X99Y644D01*
X66Y643D02*
X73Y643D01*
X91Y643D02*
X98Y643D01*
X66Y642D02*
X74Y642D01*
X90Y642D02*
X98Y642D01*
X67Y641D02*
X75Y641D01*
X90Y641D02*
X97Y641D01*
X68Y640D02*
X75Y640D01*
X89Y640D02*
X96Y640D01*
X69Y639D02*
X78Y639D01*
X86Y639D02*
X95Y639D01*
X70Y638D02*
X95Y638D01*
X71Y637D02*
X94Y637D01*
X71Y636D02*
X93Y636D01*
X72Y635D02*
X92Y635D01*
X74Y634D02*
X90Y634D01*
X76Y633D02*
X88Y633D01*
X67Y615D02*
X67Y615D01*
X65Y614D02*
X69Y614D01*
X65Y613D02*
X70Y613D01*
X65Y612D02*
X70Y612D01*
X65Y611D02*
X70Y611D01*
X65Y610D02*
X70Y610D01*
X65Y609D02*
X70Y609D01*
X65Y608D02*
X70Y608D01*
X65Y607D02*
X70Y607D01*
X65Y606D02*
X70Y606D01*
X65Y605D02*
X112Y605D01*
X65Y604D02*
X113Y604D01*
X65Y603D02*
X113Y603D01*
X65Y602D02*
X113Y602D01*
X65Y601D02*
X113Y601D01*
X65Y600D02*
X113Y600D01*
X65Y599D02*
X70Y599D01*
X107Y599D02*
X113Y599D01*
X65Y598D02*
X70Y598D01*
X108Y598D02*
X113Y598D01*
X65Y597D02*
X70Y597D01*
X108Y597D02*
X113Y597D01*
X65Y596D02*
X70Y596D01*
X108Y596D02*
X113Y596D01*
X65Y595D02*
X70Y595D01*
X108Y595D02*
X113Y595D01*
X65Y594D02*
X70Y594D01*
X108Y594D02*
X113Y594D01*
X65Y593D02*
X70Y593D01*
X108Y593D02*
X113Y593D01*
X65Y592D02*
X70Y592D01*
X108Y592D02*
X113Y592D01*
X65Y591D02*
X69Y591D01*
X108Y591D02*
X112Y591D01*
X67Y590D02*
X68Y590D01*
X110Y590D02*
X111Y590D01*
X58Y569D02*
X98Y569D01*
X110Y569D02*
X114Y569D01*
X56Y568D02*
X99Y568D01*
X108Y568D02*
X115Y568D01*
X54Y567D02*
X99Y567D01*
X108Y567D02*
X115Y567D01*
X53Y566D02*
X100Y566D01*
X108Y566D02*
X116Y566D01*
X53Y565D02*
X100Y565D01*
X108Y565D02*
X116Y565D01*
X52Y564D02*
X100Y564D01*
X108Y564D02*
X116Y564D01*
X52Y563D02*
X100Y563D01*
X108Y563D02*
X116Y563D01*
X51Y562D02*
X58Y562D01*
X94Y562D02*
X100Y562D01*
X108Y562D02*
X115Y562D01*
X51Y561D02*
X57Y561D01*
X94Y561D02*
X100Y561D01*
X108Y561D02*
X115Y561D01*
X51Y560D02*
X57Y560D01*
X94Y560D02*
X100Y560D01*
X110Y560D02*
X114Y560D01*
X51Y559D02*
X57Y559D01*
X94Y559D02*
X100Y559D01*
X51Y558D02*
X57Y558D01*
X94Y558D02*
X100Y558D01*
X51Y557D02*
X57Y557D01*
X94Y557D02*
X100Y557D01*
X51Y556D02*
X57Y556D01*
X94Y556D02*
X100Y556D01*
X51Y555D02*
X57Y555D01*
X94Y555D02*
X100Y555D01*
X51Y554D02*
X57Y554D01*
X94Y554D02*
X100Y554D01*
X51Y553D02*
X57Y553D01*
X94Y553D02*
X99Y553D01*
X51Y552D02*
X57Y552D01*
X95Y552D02*
X99Y552D01*
X52Y551D02*
X58Y551D01*
X95Y551D02*
X98Y551D01*
X52Y550D02*
X60Y550D01*
X52Y549D02*
X61Y549D01*
X53Y548D02*
X62Y548D01*
X54Y547D02*
X62Y547D01*
X55Y546D02*
X62Y546D01*
X56Y545D02*
X61Y545D01*
X66Y526D02*
X69Y526D01*
X96Y526D02*
X98Y526D01*
X65Y525D02*
X69Y525D01*
X95Y525D02*
X99Y525D01*
X65Y524D02*
X70Y524D01*
X94Y524D02*
X99Y524D01*
X65Y523D02*
X70Y523D01*
X94Y523D02*
X100Y523D01*
X65Y522D02*
X70Y522D01*
X94Y522D02*
X100Y522D01*
X65Y521D02*
X70Y521D01*
X94Y521D02*
X100Y521D01*
X65Y520D02*
X70Y520D01*
X94Y520D02*
X100Y520D01*
X65Y519D02*
X70Y519D01*
X94Y519D02*
X100Y519D01*
X65Y518D02*
X70Y518D01*
X94Y518D02*
X100Y518D01*
X65Y517D02*
X70Y517D01*
X94Y517D02*
X100Y517D01*
X65Y516D02*
X70Y516D01*
X94Y516D02*
X100Y516D01*
X65Y515D02*
X70Y515D01*
X94Y515D02*
X100Y515D01*
X65Y514D02*
X70Y514D01*
X94Y514D02*
X100Y514D01*
X65Y513D02*
X70Y513D01*
X94Y513D02*
X100Y513D01*
X65Y512D02*
X70Y512D01*
X94Y512D02*
X100Y512D01*
X65Y511D02*
X70Y511D01*
X94Y511D02*
X100Y511D01*
X65Y510D02*
X70Y510D01*
X94Y510D02*
X100Y510D01*
X65Y509D02*
X70Y509D01*
X94Y509D02*
X99Y509D01*
X65Y508D02*
X71Y508D01*
X93Y508D02*
X99Y508D01*
X65Y507D02*
X72Y507D01*
X93Y507D02*
X99Y507D01*
X65Y506D02*
X72Y506D01*
X92Y506D02*
X99Y506D01*
X66Y505D02*
X73Y505D01*
X91Y505D02*
X98Y505D01*
X67Y504D02*
X74Y504D01*
X90Y504D02*
X98Y504D01*
X67Y503D02*
X75Y503D01*
X89Y503D02*
X97Y503D01*
X68Y502D02*
X76Y502D01*
X88Y502D02*
X96Y502D01*
X69Y501D02*
X95Y501D01*
X70Y500D02*
X93Y500D01*
X71Y499D02*
X92Y499D01*
X72Y498D02*
X90Y498D01*
X73Y497D02*
X89Y497D01*
X75Y496D02*
X88Y496D01*
X66Y477D02*
X68Y477D01*
X65Y476D02*
X69Y476D01*
X65Y475D02*
X70Y475D01*
X65Y474D02*
X70Y474D01*
X65Y473D02*
X70Y473D01*
X65Y472D02*
X70Y472D01*
X65Y471D02*
X70Y471D01*
X65Y470D02*
X70Y470D01*
X65Y469D02*
X70Y469D01*
X65Y468D02*
X74Y468D01*
X65Y467D02*
X74Y467D01*
X65Y466D02*
X74Y466D01*
X65Y465D02*
X74Y465D01*
X65Y464D02*
X74Y464D01*
X65Y463D02*
X74Y463D01*
X65Y462D02*
X74Y462D01*
X65Y461D02*
X70Y461D01*
X65Y460D02*
X70Y460D01*
X65Y459D02*
X70Y459D01*
X65Y458D02*
X70Y458D01*
X65Y457D02*
X70Y457D01*
X65Y456D02*
X70Y456D01*
X65Y455D02*
X70Y455D01*
X65Y454D02*
X69Y454D01*
X66Y453D02*
X69Y453D01*
X57Y431D02*
X89Y431D01*
X55Y430D02*
X90Y430D01*
X54Y429D02*
X91Y429D01*
X53Y428D02*
X93Y428D01*
X52Y427D02*
X94Y427D01*
X52Y426D02*
X96Y426D01*
X52Y425D02*
X58Y425D01*
X94Y425D02*
X98Y425D01*
X51Y424D02*
X57Y424D01*
X94Y424D02*
X100Y424D01*
X51Y423D02*
X57Y423D01*
X94Y423D02*
X100Y423D01*
X51Y422D02*
X57Y422D01*
X94Y422D02*
X100Y422D01*
X51Y421D02*
X57Y421D01*
X94Y421D02*
X100Y421D01*
X51Y420D02*
X57Y420D01*
X94Y420D02*
X100Y420D01*
X51Y419D02*
X57Y419D01*
X94Y419D02*
X100Y419D01*
X51Y418D02*
X57Y418D01*
X94Y418D02*
X100Y418D01*
X51Y417D02*
X57Y417D01*
X94Y417D02*
X100Y417D01*
X51Y416D02*
X57Y416D01*
X94Y416D02*
X100Y416D01*
X51Y415D02*
X57Y415D01*
X94Y415D02*
X99Y415D01*
X51Y414D02*
X57Y414D01*
X95Y414D02*
X99Y414D01*
X52Y413D02*
X59Y413D01*
X96Y413D02*
X97Y413D01*
X52Y412D02*
X61Y412D01*
X53Y411D02*
X62Y411D01*
X53Y410D02*
X62Y410D01*
X54Y409D02*
X62Y409D01*
X55Y408D02*
X61Y408D01*
X57Y407D02*
X60Y407D01*
X67Y389D02*
X67Y389D01*
X65Y388D02*
X69Y388D01*
X65Y387D02*
X70Y387D01*
X65Y386D02*
X70Y386D01*
X65Y385D02*
X70Y385D01*
X65Y384D02*
X70Y384D01*
X65Y383D02*
X70Y383D01*
X65Y382D02*
X70Y382D01*
X65Y381D02*
X70Y381D01*
X65Y380D02*
X70Y380D01*
X65Y379D02*
X70Y379D01*
X65Y378D02*
X70Y378D01*
X65Y377D02*
X70Y377D01*
X65Y376D02*
X70Y376D01*
X65Y375D02*
X70Y375D01*
X65Y374D02*
X70Y374D01*
X65Y373D02*
X70Y373D01*
X65Y372D02*
X70Y372D01*
X65Y371D02*
X70Y371D01*
X65Y370D02*
X71Y370D01*
X65Y369D02*
X72Y369D01*
X66Y368D02*
X73Y368D01*
X66Y367D02*
X74Y367D01*
X67Y366D02*
X74Y366D01*
X68Y365D02*
X74Y365D01*
X69Y364D02*
X74Y364D01*
X70Y363D02*
X74Y363D01*
X70Y362D02*
X74Y362D01*
X71Y361D02*
X74Y361D01*
X72Y360D02*
X74Y360D01*
X74Y359D02*
X74Y359D01*
X67Y340D02*
X67Y340D01*
X65Y339D02*
X69Y339D01*
X65Y338D02*
X70Y338D01*
X65Y337D02*
X70Y337D01*
X65Y336D02*
X70Y336D01*
X65Y335D02*
X70Y335D01*
X65Y334D02*
X70Y334D01*
X65Y333D02*
X70Y333D01*
X65Y332D02*
X70Y332D01*
X65Y331D02*
X70Y331D01*
X65Y330D02*
X90Y330D01*
X65Y329D02*
X91Y329D01*
X65Y328D02*
X93Y328D01*
X65Y327D02*
X94Y327D01*
X65Y326D02*
X96Y326D01*
X65Y325D02*
X98Y325D01*
X65Y324D02*
X70Y324D01*
X65Y323D02*
X70Y323D01*
X65Y322D02*
X70Y322D01*
X65Y321D02*
X70Y321D01*
X108Y321D02*
X109Y321D01*
X65Y320D02*
X70Y320D01*
X108Y320D02*
X113Y320D01*
X65Y319D02*
X70Y319D01*
X108Y319D02*
X113Y319D01*
X65Y318D02*
X70Y318D01*
X108Y318D02*
X113Y318D01*
X65Y317D02*
X70Y317D01*
X108Y317D02*
X113Y317D01*
X65Y316D02*
X69Y316D01*
X108Y316D02*
X112Y316D01*
X67Y315D02*
X68Y315D01*
X110Y315D02*
X111Y315D01*
X59Y294D02*
X86Y294D01*
X56Y293D02*
X85Y293D01*
X55Y292D02*
X84Y292D01*
X54Y291D02*
X83Y291D01*
X53Y290D02*
X83Y290D01*
X52Y289D02*
X82Y289D01*
X52Y288D02*
X81Y288D01*
X51Y287D02*
X58Y287D01*
X51Y286D02*
X57Y286D01*
X51Y285D02*
X57Y285D01*
X51Y284D02*
X57Y284D01*
X51Y283D02*
X57Y283D01*
X51Y282D02*
X57Y282D01*
X51Y281D02*
X57Y281D01*
X51Y280D02*
X57Y280D01*
X51Y279D02*
X57Y279D01*
X51Y278D02*
X57Y278D01*
X51Y277D02*
X57Y277D01*
X51Y276D02*
X58Y276D01*
X52Y275D02*
X60Y275D01*
X52Y274D02*
X61Y274D01*
X53Y273D02*
X62Y273D01*
X54Y272D02*
X62Y272D01*
X55Y271D02*
X62Y271D01*
X56Y270D02*
X61Y270D01*
X59Y269D02*
X59Y269D01*
X66Y251D02*
X68Y251D01*
X65Y250D02*
X69Y250D01*
X65Y249D02*
X70Y249D01*
X65Y248D02*
X70Y248D01*
X65Y247D02*
X70Y247D01*
X65Y246D02*
X70Y246D01*
X65Y245D02*
X70Y245D01*
X65Y244D02*
X70Y244D01*
X65Y243D02*
X70Y243D01*
X65Y242D02*
X70Y242D01*
X65Y241D02*
X70Y241D01*
X65Y240D02*
X70Y240D01*
X65Y239D02*
X70Y239D01*
X65Y238D02*
X70Y238D01*
X65Y237D02*
X70Y237D01*
X65Y236D02*
X70Y236D01*
X65Y235D02*
X70Y235D01*
X65Y234D02*
X70Y234D01*
X65Y233D02*
X71Y233D01*
X65Y232D02*
X71Y232D01*
X65Y231D02*
X72Y231D01*
X66Y230D02*
X73Y230D01*
X67Y229D02*
X74Y229D01*
X90Y229D02*
X91Y229D01*
X67Y228D02*
X75Y228D01*
X89Y228D02*
X93Y228D01*
X68Y227D02*
X76Y227D01*
X88Y227D02*
X94Y227D01*
X69Y226D02*
X95Y226D01*
X70Y225D02*
X94Y225D01*
X71Y224D02*
X93Y224D01*
X72Y223D02*
X92Y223D01*
X73Y222D02*
X91Y222D01*
X74Y221D02*
X90Y221D01*
X78Y220D02*
X86Y220D01*
X66Y202D02*
X68Y202D01*
X65Y201D02*
X69Y201D01*
X65Y200D02*
X70Y200D01*
X65Y199D02*
X70Y199D01*
X65Y198D02*
X70Y198D01*
X65Y197D02*
X70Y197D01*
X65Y196D02*
X70Y196D01*
X65Y195D02*
X70Y195D01*
X65Y194D02*
X70Y194D01*
X65Y193D02*
X110Y193D01*
X65Y192D02*
X112Y192D01*
X65Y191D02*
X113Y191D01*
X65Y190D02*
X113Y190D01*
X65Y189D02*
X113Y189D01*
X65Y188D02*
X113Y188D01*
X65Y187D02*
X113Y187D01*
X65Y186D02*
X70Y186D01*
X108Y186D02*
X113Y186D01*
X65Y185D02*
X70Y185D01*
X108Y185D02*
X113Y185D01*
X65Y184D02*
X70Y184D01*
X108Y184D02*
X113Y184D01*
X65Y183D02*
X70Y183D01*
X108Y183D02*
X113Y183D01*
X65Y182D02*
X70Y182D01*
X108Y182D02*
X113Y182D01*
X65Y181D02*
X70Y181D01*
X108Y181D02*
X113Y181D01*
X65Y180D02*
X70Y180D01*
X108Y180D02*
X113Y180D01*
X65Y179D02*
X70Y179D01*
X108Y179D02*
X113Y179D01*
X66Y178D02*
X69Y178D01*
X109Y178D02*
X112Y178D01*
X57Y156D02*
X98Y156D01*
X109Y156D02*
X114Y156D01*
X55Y155D02*
X99Y155D01*
X108Y155D02*
X115Y155D01*
X54Y154D02*
X99Y154D01*
X108Y154D02*
X116Y154D01*
X53Y153D02*
X100Y153D01*
X108Y153D02*
X116Y153D01*
X52Y152D02*
X100Y152D01*
X108Y152D02*
X116Y152D01*
X52Y151D02*
X100Y151D01*
X108Y151D02*
X116Y151D01*
X52Y150D02*
X58Y150D01*
X94Y150D02*
X100Y150D01*
X108Y150D02*
X116Y150D01*
X51Y149D02*
X57Y149D01*
X94Y149D02*
X100Y149D01*
X108Y149D02*
X115Y149D01*
X51Y148D02*
X57Y148D01*
X94Y148D02*
X100Y148D01*
X109Y148D02*
X115Y148D01*
X51Y147D02*
X57Y147D01*
X94Y147D02*
X100Y147D01*
X51Y146D02*
X57Y146D01*
X94Y146D02*
X100Y146D01*
X51Y145D02*
X57Y145D01*
X94Y145D02*
X100Y145D01*
X51Y144D02*
X57Y144D01*
X94Y144D02*
X100Y144D01*
X51Y143D02*
X57Y143D01*
X94Y143D02*
X100Y143D01*
X51Y142D02*
X57Y142D01*
X94Y142D02*
X100Y142D01*
X51Y141D02*
X57Y141D01*
X94Y141D02*
X100Y141D01*
X51Y140D02*
X57Y140D01*
X94Y140D02*
X99Y140D01*
X51Y139D02*
X57Y139D01*
X95Y139D02*
X99Y139D01*
X52Y138D02*
X59Y138D01*
X96Y138D02*
X98Y138D01*
X52Y137D02*
X60Y137D01*
X53Y136D02*
X62Y136D01*
X53Y135D02*
X62Y135D01*
X54Y134D02*
X62Y134D01*
X55Y133D02*
X61Y133D01*
X57Y132D02*
X60Y132D01*
D02*
G04 End of Silk0*
M02*