; NON-PLATED HOLES START AT T1
; THROUGH (PLATED) HOLES START AT T100
M48
INCH
T1C0.086614
T2C0.070866
T100C0.041361
T101C0.041333
T102C0.038000
T103C0.043307
T104C0.088356
T105C0.040000
%
T1
X000803Y011057
X038576Y000725
X038560Y011040
X000778Y000750
T2
X012830Y004365
X019567Y004365
X012830Y000821
X006050Y004365
X019567Y000821
X006050Y000821
X026680Y000821
X026680Y004365
X033517Y000821
X033517Y004365
T100
X027581Y006939
X013690Y006939
X034298Y006939
X006908Y006939
X020517Y006939
T101
X026581Y006939
X018517Y006939
X004908Y006939
X011690Y006939
X019517Y006939
X012690Y006939
X032298Y006939
X033298Y006939
X025581Y006939
X005908Y006939
T102
X001179Y002634
X001179Y003634
X001179Y004634
T103
X002786Y009173
X036325Y005414
T104
X021459Y009892
X003966Y009892
X028522Y009892
X024639Y009892
X010748Y009892
X017576Y009892
X014631Y009892
X035240Y009892
X007849Y009892
X031357Y009892
T105
X037980Y003660
X037980Y004730
X001228Y009162
X001228Y008092
X001228Y007022
X037980Y002590
T00
M30
