G04 MADE WITH FRITZING*
G04 WWW.FRITZING.ORG*
G04 DOUBLE SIDED*
G04 HOLES PLATED*
G04 CONTOUR ON CENTER OF CONTOUR VECTOR*
%ASAXBY*%
%FSLAX23Y23*%
%MOIN*%
%OFA0B0*%
%SFA1.0B1.0*%
%ADD10C,0.084000*%
%ADD11C,0.096614*%
%ADD12C,0.084667*%
%ADD13C,0.084695*%
%ADD14C,0.134033*%
%ADD15C,0.093307*%
%ADD16C,0.088000*%
%ADD17R,0.001000X0.001000*%
%LNMASK0*%
G90*
G70*
G54D10*
X123Y916D03*
X123Y809D03*
X123Y702D03*
X3798Y259D03*
X3798Y366D03*
X3798Y473D03*
G54D11*
X78Y75D03*
X3856Y1104D03*
X80Y1106D03*
X3858Y73D03*
G54D12*
X3230Y694D03*
X3330Y694D03*
G54D13*
X3430Y694D03*
G54D14*
X3136Y989D03*
X3524Y989D03*
G54D12*
X2558Y694D03*
X2658Y694D03*
G54D13*
X2758Y694D03*
G54D14*
X2464Y989D03*
X2852Y989D03*
G54D12*
X1852Y694D03*
X1952Y694D03*
G54D13*
X2052Y694D03*
G54D14*
X1758Y989D03*
X2146Y989D03*
G54D12*
X1169Y694D03*
X1269Y694D03*
G54D13*
X1369Y694D03*
G54D14*
X1075Y989D03*
X1463Y989D03*
G54D12*
X491Y694D03*
X591Y694D03*
G54D13*
X691Y694D03*
G54D14*
X397Y989D03*
X785Y989D03*
G54D15*
X3633Y541D03*
X279Y917D03*
G54D16*
X118Y463D03*
X118Y363D03*
X118Y263D03*
G54D17*
X355Y404D02*
X367Y404D01*
X843Y404D02*
X855Y404D01*
X1033Y404D02*
X1045Y404D01*
X1521Y404D02*
X1533Y404D01*
X1707Y404D02*
X1719Y404D01*
X2195Y404D02*
X2207Y404D01*
X2418Y404D02*
X2430Y404D01*
X2906Y404D02*
X2918Y404D01*
X3102Y404D02*
X3114Y404D01*
X3590Y404D02*
X3602Y404D01*
X350Y403D02*
X372Y403D01*
X838Y403D02*
X860Y403D01*
X1028Y403D02*
X1050Y403D01*
X1516Y403D02*
X1538Y403D01*
X1702Y403D02*
X1724Y403D01*
X2190Y403D02*
X2212Y403D01*
X2413Y403D02*
X2435Y403D01*
X2901Y403D02*
X2923Y403D01*
X3097Y403D02*
X3119Y403D01*
X3585Y403D02*
X3607Y403D01*
X346Y402D02*
X376Y402D01*
X835Y402D02*
X864Y402D01*
X1024Y402D02*
X1054Y402D01*
X1513Y402D02*
X1542Y402D01*
X1698Y402D02*
X1727Y402D01*
X2186Y402D02*
X2216Y402D01*
X2409Y402D02*
X2439Y402D01*
X2898Y402D02*
X2927Y402D01*
X3093Y402D02*
X3122Y402D01*
X3581Y402D02*
X3611Y402D01*
X344Y401D02*
X378Y401D01*
X832Y401D02*
X867Y401D01*
X1022Y401D02*
X1056Y401D01*
X1510Y401D02*
X1545Y401D01*
X1695Y401D02*
X1730Y401D01*
X2184Y401D02*
X2218Y401D01*
X2407Y401D02*
X2441Y401D01*
X2895Y401D02*
X2930Y401D01*
X3090Y401D02*
X3125Y401D01*
X3579Y401D02*
X3613Y401D01*
X342Y400D02*
X381Y400D01*
X830Y400D02*
X869Y400D01*
X1020Y400D02*
X1059Y400D01*
X1508Y400D02*
X1547Y400D01*
X1693Y400D02*
X1732Y400D01*
X2181Y400D02*
X2220Y400D01*
X2405Y400D02*
X2444Y400D01*
X2893Y400D02*
X2932Y400D01*
X3088Y400D02*
X3127Y400D01*
X3577Y400D02*
X3615Y400D01*
X340Y399D02*
X383Y399D01*
X828Y399D02*
X871Y399D01*
X1018Y399D02*
X1061Y399D01*
X1506Y399D02*
X1549Y399D01*
X1691Y399D02*
X1734Y399D01*
X2179Y399D02*
X2222Y399D01*
X2403Y399D02*
X2446Y399D01*
X2891Y399D02*
X2934Y399D01*
X3086Y399D02*
X3129Y399D01*
X3575Y399D02*
X3617Y399D01*
X338Y398D02*
X384Y398D01*
X826Y398D02*
X872Y398D01*
X1016Y398D02*
X1062Y398D01*
X1504Y398D02*
X1550Y398D01*
X1690Y398D02*
X1736Y398D01*
X2178Y398D02*
X2224Y398D01*
X2401Y398D02*
X2447Y398D01*
X2889Y398D02*
X2935Y398D01*
X3085Y398D02*
X3131Y398D01*
X3573Y398D02*
X3619Y398D01*
X336Y397D02*
X386Y397D01*
X825Y397D02*
X874Y397D01*
X1014Y397D02*
X1064Y397D01*
X1503Y397D02*
X1552Y397D01*
X1688Y397D02*
X1738Y397D01*
X2176Y397D02*
X2226Y397D01*
X2399Y397D02*
X2449Y397D01*
X2888Y397D02*
X2937Y397D01*
X3083Y397D02*
X3133Y397D01*
X3571Y397D02*
X3621Y397D01*
X335Y396D02*
X387Y396D01*
X823Y396D02*
X875Y396D01*
X1013Y396D02*
X1065Y396D01*
X1501Y396D02*
X1553Y396D01*
X1687Y396D02*
X1739Y396D01*
X2175Y396D02*
X2227Y396D01*
X2398Y396D02*
X2450Y396D01*
X2886Y396D02*
X2938Y396D01*
X3082Y396D02*
X3134Y396D01*
X3570Y396D02*
X3622Y396D01*
X334Y395D02*
X389Y395D01*
X822Y395D02*
X877Y395D01*
X1012Y395D02*
X1067Y395D01*
X1500Y395D02*
X1555Y395D01*
X1685Y395D02*
X1740Y395D01*
X2173Y395D02*
X2229Y395D01*
X2396Y395D02*
X2452Y395D01*
X2885Y395D02*
X2940Y395D01*
X3080Y395D02*
X3135Y395D01*
X3568Y395D02*
X3624Y395D01*
X332Y394D02*
X390Y394D01*
X820Y394D02*
X878Y394D01*
X1010Y394D02*
X1068Y394D01*
X1498Y394D02*
X1556Y394D01*
X1684Y394D02*
X1742Y394D01*
X2172Y394D02*
X2230Y394D01*
X2395Y394D02*
X2453Y394D01*
X2883Y394D02*
X2941Y394D01*
X3079Y394D02*
X3137Y394D01*
X3567Y394D02*
X3625Y394D01*
X331Y393D02*
X391Y393D01*
X819Y393D02*
X879Y393D01*
X1009Y393D02*
X1069Y393D01*
X1497Y393D02*
X1557Y393D01*
X1683Y393D02*
X1743Y393D01*
X2171Y393D02*
X2231Y393D01*
X2394Y393D02*
X2454Y393D01*
X2882Y393D02*
X2942Y393D01*
X3078Y393D02*
X3138Y393D01*
X3566Y393D02*
X3626Y393D01*
X330Y392D02*
X392Y392D01*
X818Y392D02*
X880Y392D01*
X1008Y392D02*
X1070Y392D01*
X1496Y392D02*
X1558Y392D01*
X1682Y392D02*
X1744Y392D01*
X2170Y392D02*
X2232Y392D01*
X2393Y392D02*
X2455Y392D01*
X2881Y392D02*
X2943Y392D01*
X3077Y392D02*
X3139Y392D01*
X3565Y392D02*
X3627Y392D01*
X329Y391D02*
X393Y391D01*
X817Y391D02*
X882Y391D01*
X1007Y391D02*
X1071Y391D01*
X1495Y391D02*
X1560Y391D01*
X1680Y391D02*
X1745Y391D01*
X2169Y391D02*
X2233Y391D01*
X2392Y391D02*
X2456Y391D01*
X2880Y391D02*
X2945Y391D01*
X3076Y391D02*
X3140Y391D01*
X3564Y391D02*
X3628Y391D01*
X328Y390D02*
X394Y390D01*
X816Y390D02*
X882Y390D01*
X1006Y390D02*
X1072Y390D01*
X1494Y390D02*
X1560Y390D01*
X1680Y390D02*
X1746Y390D01*
X2168Y390D02*
X2234Y390D01*
X2391Y390D02*
X2457Y390D01*
X2879Y390D02*
X2945Y390D01*
X3075Y390D02*
X3141Y390D01*
X3563Y390D02*
X3629Y390D01*
X327Y389D02*
X395Y389D01*
X815Y389D02*
X883Y389D01*
X1005Y389D02*
X1073Y389D01*
X1493Y389D02*
X1561Y389D01*
X1679Y389D02*
X1747Y389D01*
X2167Y389D02*
X2235Y389D01*
X2390Y389D02*
X2458Y389D01*
X2878Y389D02*
X2946Y389D01*
X3074Y389D02*
X3142Y389D01*
X3562Y389D02*
X3630Y389D01*
X326Y388D02*
X396Y388D01*
X814Y388D02*
X884Y388D01*
X1004Y388D02*
X1074Y388D01*
X1492Y388D02*
X1562Y388D01*
X1678Y388D02*
X1748Y388D01*
X2166Y388D02*
X2236Y388D01*
X2389Y388D02*
X2459Y388D01*
X2877Y388D02*
X2947Y388D01*
X3073Y388D02*
X3143Y388D01*
X3561Y388D02*
X3631Y388D01*
X325Y387D02*
X397Y387D01*
X814Y387D02*
X885Y387D01*
X1003Y387D02*
X1075Y387D01*
X1492Y387D02*
X1563Y387D01*
X1677Y387D02*
X1749Y387D01*
X2165Y387D02*
X2237Y387D01*
X2388Y387D02*
X2460Y387D01*
X2877Y387D02*
X2948Y387D01*
X3072Y387D02*
X3144Y387D01*
X3560Y387D02*
X3632Y387D01*
X325Y386D02*
X398Y386D01*
X813Y386D02*
X886Y386D01*
X1003Y386D02*
X1076Y386D01*
X1491Y386D02*
X1564Y386D01*
X1676Y386D02*
X1749Y386D01*
X2164Y386D02*
X2237Y386D01*
X2388Y386D02*
X2461Y386D01*
X2876Y386D02*
X2949Y386D01*
X3071Y386D02*
X3144Y386D01*
X3560Y386D02*
X3632Y386D01*
X324Y385D02*
X398Y385D01*
X812Y385D02*
X887Y385D01*
X1002Y385D02*
X1076Y385D01*
X1490Y385D02*
X1564Y385D01*
X1676Y385D02*
X1750Y385D01*
X2164Y385D02*
X2238Y385D01*
X2387Y385D02*
X2461Y385D01*
X2875Y385D02*
X2949Y385D01*
X3071Y385D02*
X3145Y385D01*
X3559Y385D02*
X3633Y385D01*
X323Y384D02*
X399Y384D01*
X811Y384D02*
X887Y384D01*
X1001Y384D02*
X1077Y384D01*
X1489Y384D02*
X1565Y384D01*
X1675Y384D02*
X1751Y384D01*
X2163Y384D02*
X2239Y384D01*
X2386Y384D02*
X2462Y384D01*
X2874Y384D02*
X2950Y384D01*
X3070Y384D02*
X3146Y384D01*
X3558Y384D02*
X3634Y384D01*
X323Y383D02*
X400Y383D01*
X811Y383D02*
X888Y383D01*
X1001Y383D02*
X1078Y383D01*
X1489Y383D02*
X1566Y383D01*
X1674Y383D02*
X1751Y383D01*
X2162Y383D02*
X2240Y383D01*
X2386Y383D02*
X2463Y383D01*
X2874Y383D02*
X2951Y383D01*
X3069Y383D02*
X3146Y383D01*
X3557Y383D02*
X3635Y383D01*
X322Y382D02*
X400Y382D01*
X810Y382D02*
X888Y382D01*
X1000Y382D02*
X1078Y382D01*
X1488Y382D02*
X1566Y382D01*
X1674Y382D02*
X1752Y382D01*
X2162Y382D02*
X2240Y382D01*
X2385Y382D02*
X2463Y382D01*
X2873Y382D02*
X2951Y382D01*
X3069Y382D02*
X3147Y382D01*
X3557Y382D02*
X3635Y382D01*
X321Y381D02*
X401Y381D01*
X809Y381D02*
X889Y381D01*
X999Y381D02*
X1079Y381D01*
X1487Y381D02*
X1567Y381D01*
X1673Y381D02*
X1753Y381D01*
X2161Y381D02*
X2241Y381D01*
X2384Y381D02*
X2464Y381D01*
X2872Y381D02*
X2952Y381D01*
X3068Y381D02*
X3148Y381D01*
X3556Y381D02*
X3636Y381D01*
X321Y380D02*
X401Y380D01*
X809Y380D02*
X890Y380D01*
X999Y380D02*
X1079Y380D01*
X1487Y380D02*
X1568Y380D01*
X1672Y380D02*
X1753Y380D01*
X2161Y380D02*
X2241Y380D01*
X2384Y380D02*
X2464Y380D01*
X2872Y380D02*
X2953Y380D01*
X3067Y380D02*
X3148Y380D01*
X3556Y380D02*
X3636Y380D01*
X320Y379D02*
X402Y379D01*
X808Y379D02*
X890Y379D01*
X998Y379D02*
X1080Y379D01*
X1486Y379D02*
X1568Y379D01*
X1672Y379D02*
X1754Y379D01*
X2160Y379D02*
X2242Y379D01*
X2383Y379D02*
X2465Y379D01*
X2871Y379D02*
X2953Y379D01*
X3067Y379D02*
X3149Y379D01*
X3555Y379D02*
X3637Y379D01*
X320Y378D02*
X402Y378D01*
X808Y378D02*
X891Y378D01*
X998Y378D02*
X1080Y378D01*
X1486Y378D02*
X1569Y378D01*
X1671Y378D02*
X1754Y378D01*
X2160Y378D02*
X2242Y378D01*
X2383Y378D02*
X2465Y378D01*
X2871Y378D02*
X2954Y378D01*
X3066Y378D02*
X3149Y378D01*
X3555Y378D02*
X3637Y378D01*
X319Y377D02*
X403Y377D01*
X807Y377D02*
X891Y377D01*
X997Y377D02*
X1081Y377D01*
X1485Y377D02*
X1569Y377D01*
X1671Y377D02*
X1755Y377D01*
X2159Y377D02*
X2243Y377D01*
X2382Y377D02*
X2466Y377D01*
X2870Y377D02*
X2954Y377D01*
X3066Y377D02*
X3150Y377D01*
X3554Y377D02*
X3638Y377D01*
X319Y376D02*
X403Y376D01*
X807Y376D02*
X892Y376D01*
X997Y376D02*
X1081Y376D01*
X1485Y376D02*
X1570Y376D01*
X1670Y376D02*
X1755Y376D01*
X2159Y376D02*
X2243Y376D01*
X2382Y376D02*
X2466Y376D01*
X2870Y376D02*
X2955Y376D01*
X3066Y376D02*
X3150Y376D01*
X3554Y376D02*
X3638Y376D01*
X318Y375D02*
X404Y375D01*
X807Y375D02*
X892Y375D01*
X996Y375D02*
X1082Y375D01*
X1485Y375D02*
X1570Y375D01*
X1670Y375D02*
X1755Y375D01*
X2158Y375D02*
X2244Y375D01*
X2381Y375D02*
X2467Y375D01*
X2870Y375D02*
X2955Y375D01*
X3065Y375D02*
X3150Y375D01*
X3553Y375D02*
X3639Y375D01*
X318Y374D02*
X404Y374D01*
X806Y374D02*
X892Y374D01*
X996Y374D02*
X1082Y374D01*
X1484Y374D02*
X1570Y374D01*
X1670Y374D02*
X1756Y374D01*
X2158Y374D02*
X2244Y374D01*
X2381Y374D02*
X2467Y374D01*
X2869Y374D02*
X2955Y374D01*
X3065Y374D02*
X3151Y374D01*
X3553Y374D02*
X3639Y374D01*
X318Y373D02*
X404Y373D01*
X806Y373D02*
X893Y373D01*
X996Y373D02*
X1082Y373D01*
X1484Y373D02*
X1571Y373D01*
X1669Y373D02*
X1756Y373D01*
X2158Y373D02*
X2244Y373D01*
X2381Y373D02*
X2467Y373D01*
X2869Y373D02*
X2956Y373D01*
X3064Y373D02*
X3151Y373D01*
X3553Y373D02*
X3639Y373D01*
X317Y372D02*
X405Y372D01*
X806Y372D02*
X893Y372D01*
X995Y372D02*
X1083Y372D01*
X1484Y372D02*
X1571Y372D01*
X1669Y372D02*
X1756Y372D01*
X2157Y372D02*
X2245Y372D01*
X2380Y372D02*
X2468Y372D01*
X2869Y372D02*
X2956Y372D01*
X3064Y372D02*
X3152Y372D01*
X3552Y372D02*
X3640Y372D01*
X317Y371D02*
X405Y371D01*
X805Y371D02*
X893Y371D01*
X995Y371D02*
X1083Y371D01*
X1483Y371D02*
X1571Y371D01*
X1669Y371D02*
X1757Y371D01*
X2157Y371D02*
X2245Y371D01*
X2380Y371D02*
X2468Y371D01*
X2868Y371D02*
X2956Y371D01*
X3064Y371D02*
X3152Y371D01*
X3552Y371D02*
X3640Y371D01*
X317Y370D02*
X405Y370D01*
X805Y370D02*
X893Y370D01*
X995Y370D02*
X1083Y370D01*
X1483Y370D02*
X1571Y370D01*
X1669Y370D02*
X1757Y370D01*
X2157Y370D02*
X2245Y370D01*
X2380Y370D02*
X2468Y370D01*
X2868Y370D02*
X2956Y370D01*
X3064Y370D02*
X3152Y370D01*
X3552Y370D02*
X3640Y370D01*
X317Y369D02*
X406Y369D01*
X805Y369D02*
X894Y369D01*
X995Y369D02*
X1084Y369D01*
X1483Y369D02*
X1572Y369D01*
X1668Y369D02*
X1757Y369D01*
X2156Y369D02*
X2245Y369D01*
X2380Y369D02*
X2469Y369D01*
X2868Y369D02*
X2957Y369D01*
X3063Y369D02*
X3152Y369D01*
X3552Y369D02*
X3640Y369D01*
X316Y368D02*
X406Y368D01*
X805Y368D02*
X894Y368D01*
X994Y368D02*
X1084Y368D01*
X1483Y368D02*
X1572Y368D01*
X1668Y368D02*
X1757Y368D01*
X2156Y368D02*
X2246Y368D01*
X2379Y368D02*
X2469Y368D01*
X2868Y368D02*
X2957Y368D01*
X3063Y368D02*
X3153Y368D01*
X3551Y368D02*
X3641Y368D01*
X316Y367D02*
X406Y367D01*
X804Y367D02*
X894Y367D01*
X994Y367D02*
X1084Y367D01*
X1482Y367D02*
X1572Y367D01*
X1668Y367D02*
X1758Y367D01*
X2156Y367D02*
X2246Y367D01*
X2379Y367D02*
X2469Y367D01*
X2867Y367D02*
X2957Y367D01*
X3063Y367D02*
X3153Y367D01*
X3551Y367D02*
X3641Y367D01*
X316Y366D02*
X406Y366D01*
X804Y366D02*
X894Y366D01*
X994Y366D02*
X1084Y366D01*
X1482Y366D02*
X1572Y366D01*
X1668Y366D02*
X1758Y366D01*
X2156Y366D02*
X2246Y366D01*
X2379Y366D02*
X2469Y366D01*
X2867Y366D02*
X2957Y366D01*
X3063Y366D02*
X3153Y366D01*
X3551Y366D02*
X3641Y366D01*
X316Y365D02*
X406Y365D01*
X804Y365D02*
X895Y365D01*
X994Y365D02*
X1084Y365D01*
X1482Y365D02*
X1572Y365D01*
X1668Y365D02*
X1758Y365D01*
X2156Y365D02*
X2246Y365D01*
X2379Y365D02*
X2469Y365D01*
X2867Y365D02*
X2957Y365D01*
X3063Y365D02*
X3153Y365D01*
X3551Y365D02*
X3641Y365D01*
X316Y364D02*
X406Y364D01*
X804Y364D02*
X895Y364D01*
X994Y364D02*
X1084Y364D01*
X1482Y364D02*
X1573Y364D01*
X1667Y364D02*
X1758Y364D01*
X2156Y364D02*
X2246Y364D01*
X2379Y364D02*
X2469Y364D01*
X2867Y364D02*
X2958Y364D01*
X3062Y364D02*
X3153Y364D01*
X3551Y364D02*
X3641Y364D01*
X316Y363D02*
X407Y363D01*
X804Y363D02*
X895Y363D01*
X994Y363D02*
X1085Y363D01*
X1482Y363D02*
X1573Y363D01*
X1667Y363D02*
X1758Y363D01*
X2155Y363D02*
X2247Y363D01*
X2379Y363D02*
X2470Y363D01*
X2867Y363D02*
X2958Y363D01*
X3062Y363D02*
X3153Y363D01*
X3550Y363D02*
X3642Y363D01*
X315Y362D02*
X407Y362D01*
X804Y362D02*
X895Y362D01*
X993Y362D02*
X1085Y362D01*
X1482Y362D02*
X1573Y362D01*
X1667Y362D02*
X1758Y362D01*
X2155Y362D02*
X2247Y362D01*
X2378Y362D02*
X2470Y362D01*
X2867Y362D02*
X2958Y362D01*
X3062Y362D02*
X3153Y362D01*
X3550Y362D02*
X3642Y362D01*
X315Y361D02*
X407Y361D01*
X804Y361D02*
X895Y361D01*
X993Y361D02*
X1085Y361D01*
X1482Y361D02*
X1573Y361D01*
X1667Y361D02*
X1758Y361D01*
X2155Y361D02*
X2247Y361D01*
X2378Y361D02*
X2470Y361D01*
X2867Y361D02*
X2958Y361D01*
X3062Y361D02*
X3153Y361D01*
X3550Y361D02*
X3642Y361D01*
X315Y360D02*
X407Y360D01*
X804Y360D02*
X895Y360D01*
X993Y360D02*
X1085Y360D01*
X1482Y360D02*
X1573Y360D01*
X1667Y360D02*
X1759Y360D01*
X2155Y360D02*
X2247Y360D01*
X2378Y360D02*
X2470Y360D01*
X2867Y360D02*
X2958Y360D01*
X3062Y360D02*
X3154Y360D01*
X3550Y360D02*
X3642Y360D01*
X315Y359D02*
X407Y359D01*
X803Y359D02*
X895Y359D01*
X993Y359D02*
X1085Y359D01*
X1481Y359D02*
X1573Y359D01*
X1667Y359D02*
X1759Y359D01*
X2155Y359D02*
X2247Y359D01*
X2378Y359D02*
X2470Y359D01*
X2866Y359D02*
X2958Y359D01*
X3062Y359D02*
X3154Y359D01*
X3550Y359D02*
X3642Y359D01*
X315Y358D02*
X407Y358D01*
X803Y358D02*
X895Y358D01*
X993Y358D02*
X1085Y358D01*
X1481Y358D02*
X1573Y358D01*
X1667Y358D02*
X1759Y358D01*
X2155Y358D02*
X2247Y358D01*
X2378Y358D02*
X2470Y358D01*
X2866Y358D02*
X2958Y358D01*
X3062Y358D02*
X3154Y358D01*
X3550Y358D02*
X3642Y358D01*
X315Y357D02*
X407Y357D01*
X804Y357D02*
X895Y357D01*
X993Y357D02*
X1085Y357D01*
X1481Y357D02*
X1573Y357D01*
X1667Y357D02*
X1759Y357D01*
X2155Y357D02*
X2247Y357D01*
X2378Y357D02*
X2470Y357D01*
X2866Y357D02*
X2958Y357D01*
X3062Y357D02*
X3154Y357D01*
X3550Y357D02*
X3642Y357D01*
X315Y356D02*
X407Y356D01*
X804Y356D02*
X895Y356D01*
X993Y356D02*
X1085Y356D01*
X1482Y356D02*
X1573Y356D01*
X1667Y356D02*
X1758Y356D01*
X2155Y356D02*
X2247Y356D01*
X2378Y356D02*
X2470Y356D01*
X2867Y356D02*
X2958Y356D01*
X3062Y356D02*
X3154Y356D01*
X3550Y356D02*
X3642Y356D01*
X315Y355D02*
X407Y355D01*
X804Y355D02*
X895Y355D01*
X993Y355D02*
X1085Y355D01*
X1482Y355D02*
X1573Y355D01*
X1667Y355D02*
X1758Y355D01*
X2155Y355D02*
X2247Y355D01*
X2378Y355D02*
X2470Y355D01*
X2867Y355D02*
X2958Y355D01*
X3062Y355D02*
X3153Y355D01*
X3550Y355D02*
X3642Y355D01*
X316Y354D02*
X407Y354D01*
X804Y354D02*
X895Y354D01*
X993Y354D02*
X1085Y354D01*
X1482Y354D02*
X1573Y354D01*
X1667Y354D02*
X1758Y354D01*
X2155Y354D02*
X2247Y354D01*
X2378Y354D02*
X2470Y354D01*
X2867Y354D02*
X2958Y354D01*
X3062Y354D02*
X3153Y354D01*
X3550Y354D02*
X3642Y354D01*
X316Y353D02*
X407Y353D01*
X804Y353D02*
X895Y353D01*
X994Y353D02*
X1085Y353D01*
X1482Y353D02*
X1573Y353D01*
X1667Y353D02*
X1758Y353D01*
X2155Y353D02*
X2246Y353D01*
X2379Y353D02*
X2470Y353D01*
X2867Y353D02*
X2958Y353D01*
X3062Y353D02*
X3153Y353D01*
X3551Y353D02*
X3641Y353D01*
X316Y352D02*
X406Y352D01*
X804Y352D02*
X895Y352D01*
X994Y352D02*
X1084Y352D01*
X1482Y352D02*
X1573Y352D01*
X1667Y352D02*
X1758Y352D01*
X2156Y352D02*
X2246Y352D01*
X2379Y352D02*
X2469Y352D01*
X2867Y352D02*
X2958Y352D01*
X3063Y352D02*
X3153Y352D01*
X3551Y352D02*
X3641Y352D01*
X316Y351D02*
X406Y351D01*
X804Y351D02*
X894Y351D01*
X994Y351D02*
X1084Y351D01*
X1482Y351D02*
X1572Y351D01*
X1668Y351D02*
X1758Y351D01*
X2156Y351D02*
X2246Y351D01*
X2379Y351D02*
X2469Y351D01*
X2867Y351D02*
X2957Y351D01*
X3063Y351D02*
X3153Y351D01*
X3551Y351D02*
X3641Y351D01*
X316Y350D02*
X406Y350D01*
X804Y350D02*
X894Y350D01*
X994Y350D02*
X1084Y350D01*
X1482Y350D02*
X1572Y350D01*
X1668Y350D02*
X1758Y350D01*
X2156Y350D02*
X2246Y350D01*
X2379Y350D02*
X2469Y350D01*
X2867Y350D02*
X2957Y350D01*
X3063Y350D02*
X3153Y350D01*
X3551Y350D02*
X3641Y350D01*
X316Y349D02*
X406Y349D01*
X804Y349D02*
X894Y349D01*
X994Y349D02*
X1084Y349D01*
X1482Y349D02*
X1572Y349D01*
X1668Y349D02*
X1758Y349D01*
X2156Y349D02*
X2246Y349D01*
X2379Y349D02*
X2469Y349D01*
X2867Y349D02*
X2957Y349D01*
X3063Y349D02*
X3153Y349D01*
X3551Y349D02*
X3641Y349D01*
X317Y348D02*
X406Y348D01*
X805Y348D02*
X894Y348D01*
X994Y348D02*
X1084Y348D01*
X1483Y348D02*
X1572Y348D01*
X1668Y348D02*
X1757Y348D01*
X2156Y348D02*
X2246Y348D01*
X2379Y348D02*
X2469Y348D01*
X2868Y348D02*
X2957Y348D01*
X3063Y348D02*
X3152Y348D01*
X3551Y348D02*
X3641Y348D01*
X317Y347D02*
X405Y347D01*
X805Y347D02*
X894Y347D01*
X995Y347D02*
X1083Y347D01*
X1483Y347D02*
X1572Y347D01*
X1668Y347D02*
X1757Y347D01*
X2157Y347D02*
X2245Y347D01*
X2380Y347D02*
X2468Y347D01*
X2868Y347D02*
X2957Y347D01*
X3063Y347D02*
X3152Y347D01*
X3552Y347D02*
X3640Y347D01*
X317Y346D02*
X405Y346D01*
X805Y346D02*
X893Y346D01*
X995Y346D02*
X1083Y346D01*
X1483Y346D02*
X1571Y346D01*
X1669Y346D02*
X1757Y346D01*
X2157Y346D02*
X2245Y346D01*
X2380Y346D02*
X2468Y346D01*
X2868Y346D02*
X2956Y346D01*
X3064Y346D02*
X3152Y346D01*
X3552Y346D02*
X3640Y346D01*
X317Y345D02*
X405Y345D01*
X805Y345D02*
X893Y345D01*
X995Y345D02*
X1083Y345D01*
X1483Y345D02*
X1571Y345D01*
X1669Y345D02*
X1757Y345D01*
X2157Y345D02*
X2245Y345D01*
X2380Y345D02*
X2468Y345D01*
X2868Y345D02*
X2956Y345D01*
X3064Y345D02*
X3152Y345D01*
X3552Y345D02*
X3640Y345D01*
X318Y344D02*
X405Y344D01*
X806Y344D02*
X893Y344D01*
X996Y344D02*
X1083Y344D01*
X1484Y344D02*
X1571Y344D01*
X1669Y344D02*
X1756Y344D01*
X2157Y344D02*
X2245Y344D01*
X2381Y344D02*
X2468Y344D01*
X2869Y344D02*
X2956Y344D01*
X3064Y344D02*
X3151Y344D01*
X3552Y344D02*
X3640Y344D01*
X318Y343D02*
X404Y343D01*
X806Y343D02*
X892Y343D01*
X996Y343D02*
X1082Y343D01*
X1484Y343D02*
X1570Y343D01*
X1670Y343D02*
X1756Y343D01*
X2158Y343D02*
X2244Y343D01*
X2381Y343D02*
X2467Y343D01*
X2869Y343D02*
X2955Y343D01*
X3065Y343D02*
X3151Y343D01*
X3553Y343D02*
X3639Y343D01*
X318Y342D02*
X404Y342D01*
X806Y342D02*
X892Y342D01*
X996Y342D02*
X1082Y342D01*
X1484Y342D02*
X1570Y342D01*
X1670Y342D02*
X1756Y342D01*
X2158Y342D02*
X2244Y342D01*
X2381Y342D02*
X2467Y342D01*
X2869Y342D02*
X2955Y342D01*
X3065Y342D02*
X3151Y342D01*
X3553Y342D02*
X3639Y342D01*
X319Y341D02*
X404Y341D01*
X807Y341D02*
X892Y341D01*
X997Y341D02*
X1082Y341D01*
X1485Y341D02*
X1570Y341D01*
X1670Y341D02*
X1755Y341D01*
X2158Y341D02*
X2243Y341D01*
X2382Y341D02*
X2467Y341D01*
X2870Y341D02*
X2955Y341D01*
X3065Y341D02*
X3150Y341D01*
X3554Y341D02*
X3638Y341D01*
X319Y340D02*
X403Y340D01*
X807Y340D02*
X891Y340D01*
X997Y340D02*
X1081Y340D01*
X1485Y340D02*
X1569Y340D01*
X1671Y340D02*
X1755Y340D01*
X2159Y340D02*
X2243Y340D01*
X2382Y340D02*
X2466Y340D01*
X2870Y340D02*
X2954Y340D01*
X3066Y340D02*
X3150Y340D01*
X3554Y340D02*
X3638Y340D01*
X320Y339D02*
X403Y339D01*
X808Y339D02*
X891Y339D01*
X997Y339D02*
X1081Y339D01*
X1486Y339D02*
X1569Y339D01*
X1671Y339D02*
X1754Y339D01*
X2159Y339D02*
X2243Y339D01*
X2382Y339D02*
X2466Y339D01*
X2871Y339D02*
X2954Y339D01*
X3066Y339D02*
X3149Y339D01*
X3554Y339D02*
X3638Y339D01*
X320Y338D02*
X402Y338D01*
X808Y338D02*
X890Y338D01*
X998Y338D02*
X1080Y338D01*
X1486Y338D02*
X1568Y338D01*
X1672Y338D02*
X1754Y338D01*
X2160Y338D02*
X2242Y338D01*
X2383Y338D02*
X2465Y338D01*
X2871Y338D02*
X2953Y338D01*
X3067Y338D02*
X3149Y338D01*
X3555Y338D02*
X3637Y338D01*
X320Y337D02*
X402Y337D01*
X809Y337D02*
X890Y337D01*
X998Y337D02*
X1080Y337D01*
X1487Y337D02*
X1568Y337D01*
X1672Y337D02*
X1753Y337D01*
X2160Y337D02*
X2242Y337D01*
X2383Y337D02*
X2465Y337D01*
X2872Y337D02*
X2953Y337D01*
X3067Y337D02*
X3148Y337D01*
X3555Y337D02*
X3637Y337D01*
X321Y336D02*
X401Y336D01*
X809Y336D02*
X889Y336D01*
X999Y336D02*
X1079Y336D01*
X1487Y336D02*
X1567Y336D01*
X1673Y336D02*
X1753Y336D01*
X2161Y336D02*
X2241Y336D01*
X2384Y336D02*
X2464Y336D01*
X2872Y336D02*
X2952Y336D01*
X3068Y336D02*
X3148Y336D01*
X3556Y336D02*
X3636Y336D01*
X322Y335D02*
X401Y335D01*
X810Y335D02*
X889Y335D01*
X1000Y335D02*
X1079Y335D01*
X1488Y335D02*
X1567Y335D01*
X1673Y335D02*
X1752Y335D01*
X2161Y335D02*
X2240Y335D01*
X2385Y335D02*
X2464Y335D01*
X2873Y335D02*
X2952Y335D01*
X3068Y335D02*
X3147Y335D01*
X3557Y335D02*
X3635Y335D01*
X322Y334D02*
X400Y334D01*
X810Y334D02*
X888Y334D01*
X1000Y334D02*
X1078Y334D01*
X1488Y334D02*
X1566Y334D01*
X1674Y334D02*
X1752Y334D01*
X2162Y334D02*
X2240Y334D01*
X2385Y334D02*
X2463Y334D01*
X2873Y334D02*
X2951Y334D01*
X3069Y334D02*
X3147Y334D01*
X3557Y334D02*
X3635Y334D01*
X323Y333D02*
X399Y333D01*
X811Y333D02*
X888Y333D01*
X1001Y333D02*
X1077Y333D01*
X1489Y333D02*
X1566Y333D01*
X1675Y333D02*
X1751Y333D01*
X2163Y333D02*
X2239Y333D01*
X2386Y333D02*
X2462Y333D01*
X2874Y333D02*
X2951Y333D01*
X3070Y333D02*
X3146Y333D01*
X3558Y333D02*
X3634Y333D01*
X324Y332D02*
X399Y332D01*
X812Y332D02*
X887Y332D01*
X1001Y332D02*
X1077Y332D01*
X1490Y332D02*
X1565Y332D01*
X1675Y332D02*
X1750Y332D01*
X2163Y332D02*
X2239Y332D01*
X2386Y332D02*
X2462Y332D01*
X2875Y332D02*
X2950Y332D01*
X3070Y332D02*
X3145Y332D01*
X3558Y332D02*
X3634Y332D01*
X324Y331D02*
X398Y331D01*
X812Y331D02*
X886Y331D01*
X1002Y331D02*
X1076Y331D01*
X1490Y331D02*
X1564Y331D01*
X1676Y331D02*
X1750Y331D01*
X2164Y331D02*
X2238Y331D01*
X2387Y331D02*
X2461Y331D01*
X2875Y331D02*
X2949Y331D01*
X3071Y331D02*
X3145Y331D01*
X3559Y331D02*
X3633Y331D01*
X325Y330D02*
X397Y330D01*
X813Y330D02*
X885Y330D01*
X1003Y330D02*
X1075Y330D01*
X1491Y330D02*
X1563Y330D01*
X1677Y330D02*
X1749Y330D01*
X2165Y330D02*
X2237Y330D01*
X2388Y330D02*
X2460Y330D01*
X2876Y330D02*
X2948Y330D01*
X3072Y330D02*
X3144Y330D01*
X3560Y330D02*
X3632Y330D01*
X326Y329D02*
X396Y329D01*
X814Y329D02*
X885Y329D01*
X1004Y329D02*
X1074Y329D01*
X1492Y329D02*
X1563Y329D01*
X1677Y329D02*
X1748Y329D01*
X2166Y329D02*
X2236Y329D01*
X2389Y329D02*
X2459Y329D01*
X2877Y329D02*
X2948Y329D01*
X3072Y329D02*
X3143Y329D01*
X3561Y329D02*
X3631Y329D01*
X327Y328D02*
X396Y328D01*
X815Y328D02*
X884Y328D01*
X1005Y328D02*
X1074Y328D01*
X1493Y328D02*
X1562Y328D01*
X1678Y328D02*
X1747Y328D01*
X2166Y328D02*
X2235Y328D01*
X2390Y328D02*
X2459Y328D01*
X2878Y328D02*
X2947Y328D01*
X3073Y328D02*
X3142Y328D01*
X3561Y328D02*
X3631Y328D01*
X327Y327D02*
X395Y327D01*
X816Y327D02*
X883Y327D01*
X1005Y327D02*
X1073Y327D01*
X1494Y327D02*
X1561Y327D01*
X1679Y327D02*
X1746Y327D01*
X2167Y327D02*
X2235Y327D01*
X2390Y327D02*
X2458Y327D01*
X2879Y327D02*
X2946Y327D01*
X3074Y327D02*
X3141Y327D01*
X3562Y327D02*
X3630Y327D01*
X328Y326D02*
X394Y326D01*
X817Y326D02*
X882Y326D01*
X1006Y326D02*
X1072Y326D01*
X1495Y326D02*
X1560Y326D01*
X1680Y326D02*
X1745Y326D01*
X2168Y326D02*
X2234Y326D01*
X2391Y326D02*
X2457Y326D01*
X2880Y326D02*
X2945Y326D01*
X3075Y326D02*
X3141Y326D01*
X3563Y326D02*
X3629Y326D01*
X329Y325D02*
X393Y325D01*
X818Y325D02*
X881Y325D01*
X1007Y325D02*
X1071Y325D01*
X1496Y325D02*
X1559Y325D01*
X1681Y325D02*
X1744Y325D01*
X2169Y325D02*
X2233Y325D01*
X2392Y325D02*
X2456Y325D01*
X2881Y325D02*
X2944Y325D01*
X3076Y325D02*
X3140Y325D01*
X3564Y325D02*
X3628Y325D01*
X331Y324D02*
X392Y324D01*
X819Y324D02*
X880Y324D01*
X1008Y324D02*
X1070Y324D01*
X1497Y324D02*
X1558Y324D01*
X1682Y324D02*
X1743Y324D01*
X2170Y324D02*
X2232Y324D01*
X2393Y324D02*
X2455Y324D01*
X2882Y324D02*
X2943Y324D01*
X3077Y324D02*
X3138Y324D01*
X3565Y324D02*
X3627Y324D01*
X332Y323D02*
X391Y323D01*
X820Y323D02*
X879Y323D01*
X1010Y323D02*
X1069Y323D01*
X1498Y323D02*
X1557Y323D01*
X1683Y323D02*
X1742Y323D01*
X2171Y323D02*
X2230Y323D01*
X2395Y323D02*
X2454Y323D01*
X2883Y323D02*
X2942Y323D01*
X3078Y323D02*
X3137Y323D01*
X3567Y323D02*
X3625Y323D01*
X333Y322D02*
X389Y322D01*
X821Y322D02*
X877Y322D01*
X1011Y322D02*
X1067Y322D01*
X1499Y322D02*
X1555Y322D01*
X1685Y322D02*
X1741Y322D01*
X2173Y322D02*
X2229Y322D01*
X2396Y322D02*
X2452Y322D01*
X2884Y322D02*
X2940Y322D01*
X3080Y322D02*
X3136Y322D01*
X3568Y322D02*
X3624Y322D01*
X334Y321D02*
X388Y321D01*
X822Y321D02*
X876Y321D01*
X1012Y321D02*
X1066Y321D01*
X1500Y321D02*
X1554Y321D01*
X1686Y321D02*
X1740Y321D01*
X2174Y321D02*
X2228Y321D01*
X2397Y321D02*
X2451Y321D01*
X2885Y321D02*
X2939Y321D01*
X3081Y321D02*
X3135Y321D01*
X3569Y321D02*
X3623Y321D01*
X336Y320D02*
X387Y320D01*
X824Y320D02*
X875Y320D01*
X1014Y320D02*
X1065Y320D01*
X1502Y320D02*
X1553Y320D01*
X1687Y320D02*
X1738Y320D01*
X2175Y320D02*
X2226Y320D01*
X2399Y320D02*
X2450Y320D01*
X2887Y320D02*
X2938Y320D01*
X3082Y320D02*
X3133Y320D01*
X3571Y320D02*
X3622Y320D01*
X337Y319D02*
X385Y319D01*
X825Y319D02*
X873Y319D01*
X1015Y319D02*
X1063Y319D01*
X1503Y319D02*
X1551Y319D01*
X1689Y319D02*
X1737Y319D01*
X2177Y319D02*
X2225Y319D01*
X2400Y319D02*
X2448Y319D01*
X2888Y319D02*
X2936Y319D01*
X3084Y319D02*
X3132Y319D01*
X3572Y319D02*
X3620Y319D01*
X339Y318D02*
X383Y318D01*
X827Y318D02*
X872Y318D01*
X1017Y318D02*
X1061Y318D01*
X1505Y318D02*
X1550Y318D01*
X1690Y318D02*
X1735Y318D01*
X2179Y318D02*
X2223Y318D01*
X2402Y318D02*
X2446Y318D01*
X2890Y318D02*
X2935Y318D01*
X3086Y318D02*
X3130Y318D01*
X3574Y318D02*
X3618Y318D01*
X341Y317D02*
X382Y317D01*
X829Y317D02*
X870Y317D01*
X1019Y317D02*
X1060Y317D01*
X1507Y317D02*
X1548Y317D01*
X1692Y317D02*
X1733Y317D01*
X2181Y317D02*
X2221Y317D01*
X2404Y317D02*
X2445Y317D01*
X2892Y317D02*
X2933Y317D01*
X3087Y317D02*
X3128Y317D01*
X3576Y317D02*
X3616Y317D01*
X343Y316D02*
X379Y316D01*
X831Y316D02*
X868Y316D01*
X1021Y316D02*
X1057Y316D01*
X1509Y316D02*
X1546Y316D01*
X1694Y316D02*
X1731Y316D01*
X2183Y316D02*
X2219Y316D01*
X2406Y316D02*
X2442Y316D01*
X2894Y316D02*
X2931Y316D01*
X3089Y316D02*
X3126Y316D01*
X3578Y316D02*
X3614Y316D01*
X345Y315D02*
X377Y315D01*
X833Y315D02*
X865Y315D01*
X1023Y315D02*
X1055Y315D01*
X1511Y315D02*
X1543Y315D01*
X1697Y315D02*
X1729Y315D01*
X2185Y315D02*
X2217Y315D01*
X2408Y315D02*
X2440Y315D01*
X2896Y315D02*
X2928Y315D01*
X3092Y315D02*
X3124Y315D01*
X3580Y315D02*
X3612Y315D01*
X348Y314D02*
X374Y314D01*
X836Y314D02*
X862Y314D01*
X1026Y314D02*
X1052Y314D01*
X1514Y314D02*
X1540Y314D01*
X1700Y314D02*
X1726Y314D01*
X2188Y314D02*
X2214Y314D01*
X2411Y314D02*
X2437Y314D01*
X2899Y314D02*
X2925Y314D01*
X3095Y314D02*
X3121Y314D01*
X3583Y314D02*
X3609Y314D01*
X352Y313D02*
X370Y313D01*
X840Y313D02*
X858Y313D01*
X1030Y313D02*
X1048Y313D01*
X1518Y313D02*
X1536Y313D01*
X1704Y313D02*
X1722Y313D01*
X2192Y313D02*
X2210Y313D01*
X2415Y313D02*
X2433Y313D01*
X2903Y313D02*
X2921Y313D01*
X3099Y313D02*
X3117Y313D01*
X3587Y313D02*
X3605Y313D01*
X360Y312D02*
X362Y312D01*
X848Y312D02*
X850Y312D01*
X1038Y312D02*
X1040Y312D01*
X1526Y312D02*
X1528Y312D01*
X1712Y312D02*
X1714Y312D01*
X2200Y312D02*
X2202Y312D01*
X2423Y312D02*
X2425Y312D01*
X2911Y312D02*
X2913Y312D01*
X3107Y312D02*
X3109Y312D01*
X3595Y312D02*
X3597Y312D01*
X354Y207D02*
X368Y207D01*
X842Y207D02*
X856Y207D01*
X1032Y207D02*
X1046Y207D01*
X1520Y207D02*
X1534Y207D01*
X1706Y207D02*
X1720Y207D01*
X2194Y207D02*
X2208Y207D01*
X2417Y207D02*
X2431Y207D01*
X2905Y207D02*
X2919Y207D01*
X3101Y207D02*
X3115Y207D01*
X3589Y207D02*
X3603Y207D01*
X349Y206D02*
X373Y206D01*
X838Y206D02*
X861Y206D01*
X1027Y206D02*
X1051Y206D01*
X1515Y206D02*
X1539Y206D01*
X1701Y206D02*
X1725Y206D01*
X2189Y206D02*
X2213Y206D01*
X2412Y206D02*
X2436Y206D01*
X2900Y206D02*
X2924Y206D01*
X3096Y206D02*
X3120Y206D01*
X3584Y206D02*
X3608Y206D01*
X346Y205D02*
X376Y205D01*
X834Y205D02*
X864Y205D01*
X1024Y205D02*
X1054Y205D01*
X1512Y205D02*
X1542Y205D01*
X1698Y205D02*
X1728Y205D01*
X2186Y205D02*
X2216Y205D01*
X2409Y205D02*
X2439Y205D01*
X2897Y205D02*
X2927Y205D01*
X3093Y205D02*
X3123Y205D01*
X3581Y205D02*
X3611Y205D01*
X343Y204D02*
X379Y204D01*
X832Y204D02*
X867Y204D01*
X1021Y204D02*
X1057Y204D01*
X1509Y204D02*
X1545Y204D01*
X1695Y204D02*
X1731Y204D01*
X2183Y204D02*
X2219Y204D01*
X2406Y204D02*
X2442Y204D01*
X2894Y204D02*
X2930Y204D01*
X3090Y204D02*
X3126Y204D01*
X3578Y204D02*
X3614Y204D01*
X341Y203D02*
X381Y203D01*
X829Y203D02*
X869Y203D01*
X1019Y203D02*
X1059Y203D01*
X1507Y203D02*
X1547Y203D01*
X1693Y203D02*
X1733Y203D01*
X2181Y203D02*
X2221Y203D01*
X2404Y203D02*
X2444Y203D01*
X2892Y203D02*
X2932Y203D01*
X3088Y203D02*
X3128Y203D01*
X3576Y203D02*
X3616Y203D01*
X339Y202D02*
X383Y202D01*
X828Y202D02*
X871Y202D01*
X1017Y202D02*
X1061Y202D01*
X1506Y202D02*
X1549Y202D01*
X1691Y202D02*
X1735Y202D01*
X2179Y202D02*
X2223Y202D01*
X2402Y202D02*
X2446Y202D01*
X2891Y202D02*
X2934Y202D01*
X3086Y202D02*
X3130Y202D01*
X3574Y202D02*
X3618Y202D01*
X338Y201D02*
X384Y201D01*
X826Y201D02*
X873Y201D01*
X1016Y201D02*
X1062Y201D01*
X1504Y201D02*
X1551Y201D01*
X1689Y201D02*
X1736Y201D01*
X2178Y201D02*
X2224Y201D01*
X2401Y201D02*
X2447Y201D01*
X2889Y201D02*
X2936Y201D01*
X3084Y201D02*
X3131Y201D01*
X3573Y201D02*
X3619Y201D01*
X336Y200D02*
X386Y200D01*
X824Y200D02*
X874Y200D01*
X1014Y200D02*
X1064Y200D01*
X1502Y200D02*
X1552Y200D01*
X1688Y200D02*
X1738Y200D01*
X2176Y200D02*
X2226Y200D01*
X2399Y200D02*
X2449Y200D01*
X2887Y200D02*
X2937Y200D01*
X3083Y200D02*
X3133Y200D01*
X3571Y200D02*
X3621Y200D01*
X335Y199D02*
X388Y199D01*
X823Y199D02*
X876Y199D01*
X1013Y199D02*
X1066Y199D01*
X1501Y199D02*
X1554Y199D01*
X1686Y199D02*
X1739Y199D01*
X2175Y199D02*
X2227Y199D01*
X2398Y199D02*
X2451Y199D01*
X2886Y199D02*
X2939Y199D01*
X3081Y199D02*
X3134Y199D01*
X3570Y199D02*
X3622Y199D01*
X333Y198D02*
X389Y198D01*
X821Y198D02*
X877Y198D01*
X1011Y198D02*
X1067Y198D01*
X1499Y198D02*
X1555Y198D01*
X1685Y198D02*
X1741Y198D01*
X2173Y198D02*
X2229Y198D01*
X2396Y198D02*
X2452Y198D01*
X2884Y198D02*
X2940Y198D01*
X3080Y198D02*
X3136Y198D01*
X3568Y198D02*
X3624Y198D01*
X332Y197D02*
X390Y197D01*
X820Y197D02*
X878Y197D01*
X1010Y197D02*
X1068Y197D01*
X1498Y197D02*
X1556Y197D01*
X1684Y197D02*
X1742Y197D01*
X2172Y197D02*
X2230Y197D01*
X2395Y197D02*
X2453Y197D01*
X2883Y197D02*
X2941Y197D01*
X3079Y197D02*
X3137Y197D01*
X3567Y197D02*
X3625Y197D01*
X331Y196D02*
X391Y196D01*
X819Y196D02*
X880Y196D01*
X1009Y196D02*
X1069Y196D01*
X1497Y196D02*
X1558Y196D01*
X1683Y196D02*
X1743Y196D01*
X2171Y196D02*
X2231Y196D01*
X2394Y196D02*
X2454Y196D01*
X2882Y196D02*
X2943Y196D01*
X3078Y196D02*
X3138Y196D01*
X3566Y196D02*
X3626Y196D01*
X330Y195D02*
X392Y195D01*
X818Y195D02*
X881Y195D01*
X1008Y195D02*
X1070Y195D01*
X1496Y195D02*
X1559Y195D01*
X1681Y195D02*
X1744Y195D01*
X2170Y195D02*
X2232Y195D01*
X2393Y195D02*
X2455Y195D01*
X2881Y195D02*
X2944Y195D01*
X3076Y195D02*
X3139Y195D01*
X3565Y195D02*
X3627Y195D01*
X329Y194D02*
X394Y194D01*
X817Y194D02*
X882Y194D01*
X1007Y194D02*
X1072Y194D01*
X1495Y194D02*
X1560Y194D01*
X1680Y194D02*
X1745Y194D01*
X2169Y194D02*
X2233Y194D01*
X2392Y194D02*
X2457Y194D01*
X2880Y194D02*
X2945Y194D01*
X3075Y194D02*
X3140Y194D01*
X3564Y194D02*
X3628Y194D01*
X328Y193D02*
X394Y193D01*
X816Y193D02*
X883Y193D01*
X1006Y193D02*
X1072Y193D01*
X1494Y193D02*
X1561Y193D01*
X1679Y193D02*
X1746Y193D01*
X2168Y193D02*
X2234Y193D01*
X2391Y193D02*
X2457Y193D01*
X2879Y193D02*
X2946Y193D01*
X3074Y193D02*
X3141Y193D01*
X3563Y193D02*
X3629Y193D01*
X327Y192D02*
X395Y192D01*
X815Y192D02*
X884Y192D01*
X1005Y192D02*
X1073Y192D01*
X1493Y192D02*
X1561Y192D01*
X1679Y192D02*
X1747Y192D01*
X2167Y192D02*
X2235Y192D01*
X2390Y192D02*
X2458Y192D01*
X2878Y192D02*
X2946Y192D01*
X3074Y192D02*
X3142Y192D01*
X3562Y192D02*
X3630Y192D01*
X326Y191D02*
X396Y191D01*
X814Y191D02*
X884Y191D01*
X1004Y191D02*
X1074Y191D01*
X1492Y191D02*
X1562Y191D01*
X1678Y191D02*
X1748Y191D01*
X2166Y191D02*
X2236Y191D01*
X2389Y191D02*
X2459Y191D01*
X2877Y191D02*
X2947Y191D01*
X3073Y191D02*
X3143Y191D01*
X3561Y191D02*
X3631Y191D01*
X325Y190D02*
X397Y190D01*
X813Y190D02*
X885Y190D01*
X1003Y190D02*
X1075Y190D01*
X1491Y190D02*
X1563Y190D01*
X1677Y190D02*
X1749Y190D01*
X2165Y190D02*
X2237Y190D01*
X2388Y190D02*
X2460Y190D01*
X2876Y190D02*
X2948Y190D01*
X3072Y190D02*
X3144Y190D01*
X3560Y190D02*
X3632Y190D01*
X324Y189D02*
X398Y189D01*
X813Y189D02*
X886Y189D01*
X1002Y189D02*
X1076Y189D01*
X1491Y189D02*
X1564Y189D01*
X1676Y189D02*
X1749Y189D01*
X2164Y189D02*
X2238Y189D01*
X2387Y189D02*
X2461Y189D01*
X2876Y189D02*
X2949Y189D01*
X3071Y189D02*
X3144Y189D01*
X3559Y189D02*
X3633Y189D01*
X324Y188D02*
X398Y188D01*
X812Y188D02*
X887Y188D01*
X1002Y188D02*
X1076Y188D01*
X1490Y188D02*
X1565Y188D01*
X1675Y188D02*
X1750Y188D01*
X2164Y188D02*
X2238Y188D01*
X2387Y188D02*
X2461Y188D01*
X2875Y188D02*
X2950Y188D01*
X3070Y188D02*
X3145Y188D01*
X3559Y188D02*
X3633Y188D01*
X323Y187D02*
X399Y187D01*
X811Y187D02*
X887Y187D01*
X1001Y187D02*
X1077Y187D01*
X1489Y187D02*
X1565Y187D01*
X1675Y187D02*
X1751Y187D01*
X2163Y187D02*
X2239Y187D01*
X2386Y187D02*
X2462Y187D01*
X2874Y187D02*
X2950Y187D01*
X3070Y187D02*
X3146Y187D01*
X3558Y187D02*
X3634Y187D01*
X322Y186D02*
X400Y186D01*
X811Y186D02*
X888Y186D01*
X1000Y186D02*
X1078Y186D01*
X1489Y186D02*
X1566Y186D01*
X1674Y186D02*
X1751Y186D01*
X2162Y186D02*
X2240Y186D01*
X2385Y186D02*
X2463Y186D01*
X2874Y186D02*
X2951Y186D01*
X3069Y186D02*
X3146Y186D01*
X3557Y186D02*
X3635Y186D01*
X322Y185D02*
X400Y185D01*
X810Y185D02*
X889Y185D01*
X1000Y185D02*
X1078Y185D01*
X1488Y185D02*
X1567Y185D01*
X1673Y185D02*
X1752Y185D01*
X2162Y185D02*
X2240Y185D01*
X2385Y185D02*
X2463Y185D01*
X2873Y185D02*
X2952Y185D01*
X3069Y185D02*
X3147Y185D01*
X3557Y185D02*
X3635Y185D01*
X321Y184D02*
X401Y184D01*
X809Y184D02*
X889Y184D01*
X999Y184D02*
X1079Y184D01*
X1487Y184D02*
X1567Y184D01*
X1673Y184D02*
X1753Y184D01*
X2161Y184D02*
X2241Y184D01*
X2384Y184D02*
X2464Y184D01*
X2872Y184D02*
X2952Y184D01*
X3068Y184D02*
X3148Y184D01*
X3556Y184D02*
X3636Y184D01*
X321Y183D02*
X402Y183D01*
X809Y183D02*
X890Y183D01*
X999Y183D02*
X1080Y183D01*
X1487Y183D02*
X1568Y183D01*
X1672Y183D02*
X1753Y183D01*
X2160Y183D02*
X2241Y183D01*
X2384Y183D02*
X2465Y183D01*
X2872Y183D02*
X2953Y183D01*
X3067Y183D02*
X3148Y183D01*
X3556Y183D02*
X3636Y183D01*
X320Y182D02*
X402Y182D01*
X808Y182D02*
X890Y182D01*
X998Y182D02*
X1080Y182D01*
X1486Y182D02*
X1568Y182D01*
X1672Y182D02*
X1754Y182D01*
X2160Y182D02*
X2242Y182D01*
X2383Y182D02*
X2465Y182D01*
X2871Y182D02*
X2953Y182D01*
X3067Y182D02*
X3149Y182D01*
X3555Y182D02*
X3637Y182D01*
X320Y181D02*
X403Y181D01*
X808Y181D02*
X891Y181D01*
X998Y181D02*
X1081Y181D01*
X1486Y181D02*
X1569Y181D01*
X1671Y181D02*
X1754Y181D01*
X2160Y181D02*
X2242Y181D01*
X2383Y181D02*
X2466Y181D01*
X2871Y181D02*
X2954Y181D01*
X3066Y181D02*
X3149Y181D01*
X3555Y181D02*
X3637Y181D01*
X319Y180D02*
X403Y180D01*
X807Y180D02*
X891Y180D01*
X997Y180D02*
X1081Y180D01*
X1485Y180D02*
X1569Y180D01*
X1671Y180D02*
X1755Y180D01*
X2159Y180D02*
X2243Y180D01*
X2382Y180D02*
X2466Y180D01*
X2870Y180D02*
X2954Y180D01*
X3066Y180D02*
X3150Y180D01*
X3554Y180D02*
X3638Y180D01*
X319Y179D02*
X403Y179D01*
X807Y179D02*
X892Y179D01*
X997Y179D02*
X1081Y179D01*
X1485Y179D02*
X1570Y179D01*
X1670Y179D02*
X1755Y179D01*
X2159Y179D02*
X2243Y179D01*
X2382Y179D02*
X2466Y179D01*
X2870Y179D02*
X2955Y179D01*
X3065Y179D02*
X3150Y179D01*
X3554Y179D02*
X3638Y179D01*
X318Y178D02*
X404Y178D01*
X807Y178D02*
X892Y178D01*
X996Y178D02*
X1082Y178D01*
X1485Y178D02*
X1570Y178D01*
X1670Y178D02*
X1755Y178D01*
X2158Y178D02*
X2244Y178D01*
X2381Y178D02*
X2467Y178D01*
X2870Y178D02*
X2955Y178D01*
X3065Y178D02*
X3151Y178D01*
X3553Y178D02*
X3639Y178D01*
X318Y177D02*
X404Y177D01*
X806Y177D02*
X892Y177D01*
X996Y177D02*
X1082Y177D01*
X1484Y177D02*
X1570Y177D01*
X1670Y177D02*
X1756Y177D01*
X2158Y177D02*
X2244Y177D01*
X2381Y177D02*
X2467Y177D01*
X2869Y177D02*
X2955Y177D01*
X3065Y177D02*
X3151Y177D01*
X3553Y177D02*
X3639Y177D01*
X318Y176D02*
X405Y176D01*
X806Y176D02*
X893Y176D01*
X996Y176D02*
X1083Y176D01*
X1484Y176D02*
X1571Y176D01*
X1669Y176D02*
X1756Y176D01*
X2158Y176D02*
X2244Y176D01*
X2381Y176D02*
X2468Y176D01*
X2869Y176D02*
X2956Y176D01*
X3064Y176D02*
X3151Y176D01*
X3553Y176D02*
X3639Y176D01*
X317Y175D02*
X405Y175D01*
X806Y175D02*
X893Y175D01*
X995Y175D02*
X1083Y175D01*
X1484Y175D02*
X1571Y175D01*
X1669Y175D02*
X1757Y175D01*
X2157Y175D02*
X2245Y175D01*
X2380Y175D02*
X2468Y175D01*
X2869Y175D02*
X2956Y175D01*
X3064Y175D02*
X3152Y175D01*
X3552Y175D02*
X3640Y175D01*
X317Y174D02*
X405Y174D01*
X805Y174D02*
X893Y174D01*
X995Y174D02*
X1083Y174D01*
X1483Y174D02*
X1571Y174D01*
X1669Y174D02*
X1757Y174D01*
X2157Y174D02*
X2245Y174D01*
X2380Y174D02*
X2468Y174D01*
X2868Y174D02*
X2956Y174D01*
X3064Y174D02*
X3152Y174D01*
X3552Y174D02*
X3640Y174D01*
X317Y173D02*
X405Y173D01*
X805Y173D02*
X894Y173D01*
X995Y173D02*
X1083Y173D01*
X1483Y173D02*
X1572Y173D01*
X1669Y173D02*
X1757Y173D01*
X2157Y173D02*
X2245Y173D01*
X2380Y173D02*
X2468Y173D01*
X2868Y173D02*
X2957Y173D01*
X3064Y173D02*
X3152Y173D01*
X3552Y173D02*
X3640Y173D01*
X317Y172D02*
X406Y172D01*
X805Y172D02*
X894Y172D01*
X995Y172D02*
X1084Y172D01*
X1483Y172D02*
X1572Y172D01*
X1668Y172D02*
X1757Y172D01*
X2156Y172D02*
X2245Y172D01*
X2380Y172D02*
X2469Y172D01*
X2868Y172D02*
X2957Y172D01*
X3063Y172D02*
X3152Y172D01*
X3551Y172D02*
X3641Y172D01*
X316Y171D02*
X406Y171D01*
X805Y171D02*
X894Y171D01*
X994Y171D02*
X1084Y171D01*
X1483Y171D02*
X1572Y171D01*
X1668Y171D02*
X1758Y171D01*
X2156Y171D02*
X2246Y171D01*
X2379Y171D02*
X2469Y171D01*
X2868Y171D02*
X2957Y171D01*
X3063Y171D02*
X3153Y171D01*
X3551Y171D02*
X3641Y171D01*
X316Y170D02*
X406Y170D01*
X804Y170D02*
X894Y170D01*
X994Y170D02*
X1084Y170D01*
X1482Y170D02*
X1572Y170D01*
X1668Y170D02*
X1758Y170D01*
X2156Y170D02*
X2246Y170D01*
X2379Y170D02*
X2469Y170D01*
X2867Y170D02*
X2957Y170D01*
X3063Y170D02*
X3153Y170D01*
X3551Y170D02*
X3641Y170D01*
X316Y169D02*
X406Y169D01*
X804Y169D02*
X894Y169D01*
X994Y169D02*
X1084Y169D01*
X1482Y169D02*
X1572Y169D01*
X1668Y169D02*
X1758Y169D01*
X2156Y169D02*
X2246Y169D01*
X2379Y169D02*
X2469Y169D01*
X2867Y169D02*
X2957Y169D01*
X3063Y169D02*
X3153Y169D01*
X3551Y169D02*
X3641Y169D01*
X316Y168D02*
X406Y168D01*
X804Y168D02*
X895Y168D01*
X994Y168D02*
X1084Y168D01*
X1482Y168D02*
X1573Y168D01*
X1668Y168D02*
X1758Y168D01*
X2156Y168D02*
X2246Y168D01*
X2379Y168D02*
X2469Y168D01*
X2867Y168D02*
X2958Y168D01*
X3063Y168D02*
X3153Y168D01*
X3551Y168D02*
X3641Y168D01*
X316Y167D02*
X407Y167D01*
X804Y167D02*
X895Y167D01*
X994Y167D02*
X1084Y167D01*
X1482Y167D02*
X1573Y167D01*
X1667Y167D02*
X1758Y167D01*
X2156Y167D02*
X2246Y167D01*
X2379Y167D02*
X2469Y167D01*
X2867Y167D02*
X2958Y167D01*
X3062Y167D02*
X3153Y167D01*
X3551Y167D02*
X3641Y167D01*
X316Y166D02*
X407Y166D01*
X804Y166D02*
X895Y166D01*
X994Y166D02*
X1085Y166D01*
X1482Y166D02*
X1573Y166D01*
X1667Y166D02*
X1758Y166D01*
X2155Y166D02*
X2247Y166D01*
X2379Y166D02*
X2470Y166D01*
X2867Y166D02*
X2958Y166D01*
X3062Y166D02*
X3153Y166D01*
X3550Y166D02*
X3642Y166D01*
X315Y165D02*
X407Y165D01*
X804Y165D02*
X895Y165D01*
X993Y165D02*
X1085Y165D01*
X1482Y165D02*
X1573Y165D01*
X1667Y165D02*
X1758Y165D01*
X2155Y165D02*
X2247Y165D01*
X2378Y165D02*
X2470Y165D01*
X2867Y165D02*
X2958Y165D01*
X3062Y165D02*
X3153Y165D01*
X3550Y165D02*
X3642Y165D01*
X315Y164D02*
X407Y164D01*
X804Y164D02*
X895Y164D01*
X993Y164D02*
X1085Y164D01*
X1482Y164D02*
X1573Y164D01*
X1667Y164D02*
X1758Y164D01*
X2155Y164D02*
X2247Y164D01*
X2378Y164D02*
X2470Y164D01*
X2867Y164D02*
X2958Y164D01*
X3062Y164D02*
X3154Y164D01*
X3550Y164D02*
X3642Y164D01*
X315Y163D02*
X407Y163D01*
X804Y163D02*
X895Y163D01*
X993Y163D02*
X1085Y163D01*
X1482Y163D02*
X1573Y163D01*
X1667Y163D02*
X1759Y163D01*
X2155Y163D02*
X2247Y163D01*
X2378Y163D02*
X2470Y163D01*
X2867Y163D02*
X2958Y163D01*
X3062Y163D02*
X3154Y163D01*
X3550Y163D02*
X3642Y163D01*
X315Y162D02*
X407Y162D01*
X803Y162D02*
X895Y162D01*
X993Y162D02*
X1085Y162D01*
X1481Y162D02*
X1573Y162D01*
X1667Y162D02*
X1759Y162D01*
X2155Y162D02*
X2247Y162D01*
X2378Y162D02*
X2470Y162D01*
X2866Y162D02*
X2958Y162D01*
X3062Y162D02*
X3154Y162D01*
X3550Y162D02*
X3642Y162D01*
X315Y161D02*
X407Y161D01*
X803Y161D02*
X895Y161D01*
X993Y161D02*
X1085Y161D01*
X1481Y161D02*
X1573Y161D01*
X1667Y161D02*
X1759Y161D01*
X2155Y161D02*
X2247Y161D01*
X2378Y161D02*
X2470Y161D01*
X2866Y161D02*
X2958Y161D01*
X3062Y161D02*
X3154Y161D01*
X3550Y161D02*
X3642Y161D01*
X315Y160D02*
X407Y160D01*
X804Y160D02*
X895Y160D01*
X993Y160D02*
X1085Y160D01*
X1482Y160D02*
X1573Y160D01*
X1667Y160D02*
X1759Y160D01*
X2155Y160D02*
X2247Y160D01*
X2378Y160D02*
X2470Y160D01*
X2866Y160D02*
X2958Y160D01*
X3062Y160D02*
X3154Y160D01*
X3550Y160D02*
X3642Y160D01*
X315Y159D02*
X407Y159D01*
X804Y159D02*
X895Y159D01*
X993Y159D02*
X1085Y159D01*
X1482Y159D02*
X1573Y159D01*
X1667Y159D02*
X1758Y159D01*
X2155Y159D02*
X2247Y159D01*
X2378Y159D02*
X2470Y159D01*
X2867Y159D02*
X2958Y159D01*
X3062Y159D02*
X3154Y159D01*
X3550Y159D02*
X3642Y159D01*
X315Y158D02*
X407Y158D01*
X804Y158D02*
X895Y158D01*
X993Y158D02*
X1085Y158D01*
X1482Y158D02*
X1573Y158D01*
X1667Y158D02*
X1758Y158D01*
X2155Y158D02*
X2247Y158D01*
X2378Y158D02*
X2470Y158D01*
X2867Y158D02*
X2958Y158D01*
X3062Y158D02*
X3153Y158D01*
X3550Y158D02*
X3642Y158D01*
X316Y157D02*
X407Y157D01*
X804Y157D02*
X895Y157D01*
X994Y157D02*
X1085Y157D01*
X1482Y157D02*
X1573Y157D01*
X1667Y157D02*
X1758Y157D01*
X2155Y157D02*
X2247Y157D01*
X2378Y157D02*
X2470Y157D01*
X2867Y157D02*
X2958Y157D01*
X3062Y157D02*
X3153Y157D01*
X3550Y157D02*
X3642Y157D01*
X316Y156D02*
X407Y156D01*
X804Y156D02*
X895Y156D01*
X994Y156D02*
X1085Y156D01*
X1482Y156D02*
X1573Y156D01*
X1667Y156D02*
X1758Y156D01*
X2156Y156D02*
X2246Y156D01*
X2379Y156D02*
X2470Y156D01*
X2867Y156D02*
X2958Y156D01*
X3062Y156D02*
X3153Y156D01*
X3551Y156D02*
X3641Y156D01*
X316Y155D02*
X406Y155D01*
X804Y155D02*
X895Y155D01*
X994Y155D02*
X1084Y155D01*
X1482Y155D02*
X1573Y155D01*
X1667Y155D02*
X1758Y155D01*
X2156Y155D02*
X2246Y155D01*
X2379Y155D02*
X2469Y155D01*
X2867Y155D02*
X2958Y155D01*
X3063Y155D02*
X3153Y155D01*
X3551Y155D02*
X3641Y155D01*
X316Y154D02*
X406Y154D01*
X804Y154D02*
X894Y154D01*
X994Y154D02*
X1084Y154D01*
X1482Y154D02*
X1572Y154D01*
X1668Y154D02*
X1758Y154D01*
X2156Y154D02*
X2246Y154D01*
X2379Y154D02*
X2469Y154D01*
X2867Y154D02*
X2957Y154D01*
X3063Y154D02*
X3153Y154D01*
X3551Y154D02*
X3641Y154D01*
X316Y153D02*
X406Y153D01*
X804Y153D02*
X894Y153D01*
X994Y153D02*
X1084Y153D01*
X1482Y153D02*
X1572Y153D01*
X1668Y153D02*
X1758Y153D01*
X2156Y153D02*
X2246Y153D01*
X2379Y153D02*
X2469Y153D01*
X2867Y153D02*
X2957Y153D01*
X3063Y153D02*
X3153Y153D01*
X3551Y153D02*
X3641Y153D01*
X316Y152D02*
X406Y152D01*
X804Y152D02*
X894Y152D01*
X994Y152D02*
X1084Y152D01*
X1482Y152D02*
X1572Y152D01*
X1668Y152D02*
X1758Y152D01*
X2156Y152D02*
X2246Y152D01*
X2379Y152D02*
X2469Y152D01*
X2867Y152D02*
X2957Y152D01*
X3063Y152D02*
X3153Y152D01*
X3551Y152D02*
X3641Y152D01*
X317Y151D02*
X406Y151D01*
X805Y151D02*
X894Y151D01*
X995Y151D02*
X1084Y151D01*
X1483Y151D02*
X1572Y151D01*
X1668Y151D02*
X1757Y151D01*
X2156Y151D02*
X2245Y151D01*
X2380Y151D02*
X2469Y151D01*
X2868Y151D02*
X2957Y151D01*
X3063Y151D02*
X3152Y151D01*
X3551Y151D02*
X3641Y151D01*
X317Y150D02*
X405Y150D01*
X805Y150D02*
X894Y150D01*
X995Y150D02*
X1083Y150D01*
X1483Y150D02*
X1572Y150D01*
X1668Y150D02*
X1757Y150D01*
X2157Y150D02*
X2245Y150D01*
X2380Y150D02*
X2468Y150D01*
X2868Y150D02*
X2957Y150D01*
X3064Y150D02*
X3152Y150D01*
X3552Y150D02*
X3640Y150D01*
X317Y149D02*
X405Y149D01*
X805Y149D02*
X893Y149D01*
X995Y149D02*
X1083Y149D01*
X1483Y149D02*
X1571Y149D01*
X1669Y149D02*
X1757Y149D01*
X2157Y149D02*
X2245Y149D01*
X2380Y149D02*
X2468Y149D01*
X2868Y149D02*
X2956Y149D01*
X3064Y149D02*
X3152Y149D01*
X3552Y149D02*
X3640Y149D01*
X317Y148D02*
X405Y148D01*
X805Y148D02*
X893Y148D01*
X995Y148D02*
X1083Y148D01*
X1483Y148D02*
X1571Y148D01*
X1669Y148D02*
X1757Y148D01*
X2157Y148D02*
X2245Y148D01*
X2380Y148D02*
X2468Y148D01*
X2868Y148D02*
X2956Y148D01*
X3064Y148D02*
X3152Y148D01*
X3552Y148D02*
X3640Y148D01*
X318Y147D02*
X405Y147D01*
X806Y147D02*
X893Y147D01*
X996Y147D02*
X1083Y147D01*
X1484Y147D02*
X1571Y147D01*
X1669Y147D02*
X1756Y147D01*
X2157Y147D02*
X2244Y147D01*
X2381Y147D02*
X2468Y147D01*
X2869Y147D02*
X2956Y147D01*
X3064Y147D02*
X3151Y147D01*
X3553Y147D02*
X3639Y147D01*
X318Y146D02*
X404Y146D01*
X806Y146D02*
X892Y146D01*
X996Y146D02*
X1082Y146D01*
X1484Y146D02*
X1570Y146D01*
X1670Y146D02*
X1756Y146D01*
X2158Y146D02*
X2244Y146D01*
X2381Y146D02*
X2467Y146D01*
X2869Y146D02*
X2955Y146D01*
X3065Y146D02*
X3151Y146D01*
X3553Y146D02*
X3639Y146D01*
X318Y145D02*
X404Y145D01*
X807Y145D02*
X892Y145D01*
X996Y145D02*
X1082Y145D01*
X1484Y145D02*
X1570Y145D01*
X1670Y145D02*
X1756Y145D01*
X2158Y145D02*
X2244Y145D01*
X2381Y145D02*
X2467Y145D01*
X2869Y145D02*
X2955Y145D01*
X3065Y145D02*
X3151Y145D01*
X3553Y145D02*
X3639Y145D01*
X319Y144D02*
X403Y144D01*
X807Y144D02*
X892Y144D01*
X997Y144D02*
X1081Y144D01*
X1485Y144D02*
X1570Y144D01*
X1670Y144D02*
X1755Y144D01*
X2159Y144D02*
X2243Y144D01*
X2382Y144D02*
X2466Y144D01*
X2870Y144D02*
X2955Y144D01*
X3065Y144D02*
X3150Y144D01*
X3554Y144D02*
X3638Y144D01*
X319Y143D02*
X403Y143D01*
X807Y143D02*
X891Y143D01*
X997Y143D02*
X1081Y143D01*
X1485Y143D02*
X1569Y143D01*
X1671Y143D02*
X1755Y143D01*
X2159Y143D02*
X2243Y143D01*
X2382Y143D02*
X2466Y143D01*
X2870Y143D02*
X2954Y143D01*
X3066Y143D02*
X3150Y143D01*
X3554Y143D02*
X3638Y143D01*
X320Y142D02*
X403Y142D01*
X808Y142D02*
X891Y142D01*
X998Y142D02*
X1081Y142D01*
X1486Y142D02*
X1569Y142D01*
X1671Y142D02*
X1754Y142D01*
X2159Y142D02*
X2242Y142D01*
X2383Y142D02*
X2466Y142D01*
X2871Y142D02*
X2954Y142D01*
X3066Y142D02*
X3149Y142D01*
X3554Y142D02*
X3638Y142D01*
X320Y141D02*
X402Y141D01*
X808Y141D02*
X890Y141D01*
X998Y141D02*
X1080Y141D01*
X1486Y141D02*
X1568Y141D01*
X1672Y141D02*
X1754Y141D01*
X2160Y141D02*
X2242Y141D01*
X2383Y141D02*
X2465Y141D01*
X2871Y141D02*
X2953Y141D01*
X3067Y141D02*
X3149Y141D01*
X3555Y141D02*
X3637Y141D01*
X321Y140D02*
X402Y140D01*
X809Y140D02*
X890Y140D01*
X999Y140D02*
X1080Y140D01*
X1487Y140D02*
X1568Y140D01*
X1672Y140D02*
X1753Y140D01*
X2160Y140D02*
X2241Y140D01*
X2384Y140D02*
X2465Y140D01*
X2872Y140D02*
X2953Y140D01*
X3067Y140D02*
X3148Y140D01*
X3555Y140D02*
X3637Y140D01*
X321Y139D02*
X401Y139D01*
X809Y139D02*
X889Y139D01*
X999Y139D02*
X1079Y139D01*
X1487Y139D02*
X1567Y139D01*
X1673Y139D02*
X1753Y139D01*
X2161Y139D02*
X2241Y139D01*
X2384Y139D02*
X2464Y139D01*
X2872Y139D02*
X2952Y139D01*
X3068Y139D02*
X3148Y139D01*
X3556Y139D02*
X3636Y139D01*
X322Y138D02*
X400Y138D01*
X810Y138D02*
X889Y138D01*
X1000Y138D02*
X1078Y138D01*
X1488Y138D02*
X1567Y138D01*
X1673Y138D02*
X1752Y138D01*
X2162Y138D02*
X2240Y138D01*
X2385Y138D02*
X2463Y138D01*
X2873Y138D02*
X2952Y138D01*
X3068Y138D02*
X3147Y138D01*
X3557Y138D02*
X3635Y138D01*
X322Y137D02*
X400Y137D01*
X811Y137D02*
X888Y137D01*
X1000Y137D02*
X1078Y137D01*
X1489Y137D02*
X1566Y137D01*
X1674Y137D02*
X1752Y137D01*
X2162Y137D02*
X2240Y137D01*
X2385Y137D02*
X2463Y137D01*
X2874Y137D02*
X2951Y137D01*
X3069Y137D02*
X3147Y137D01*
X3557Y137D02*
X3635Y137D01*
X323Y136D02*
X399Y136D01*
X811Y136D02*
X887Y136D01*
X1001Y136D02*
X1077Y136D01*
X1489Y136D02*
X1565Y136D01*
X1675Y136D02*
X1751Y136D01*
X2163Y136D02*
X2239Y136D01*
X2386Y136D02*
X2462Y136D01*
X2874Y136D02*
X2950Y136D01*
X3070Y136D02*
X3146Y136D01*
X3558Y136D02*
X3634Y136D01*
X324Y135D02*
X399Y135D01*
X812Y135D02*
X887Y135D01*
X1002Y135D02*
X1077Y135D01*
X1490Y135D02*
X1565Y135D01*
X1675Y135D02*
X1750Y135D01*
X2164Y135D02*
X2238Y135D01*
X2387Y135D02*
X2462Y135D01*
X2875Y135D02*
X2950Y135D01*
X3070Y135D02*
X3145Y135D01*
X3559Y135D02*
X3633Y135D01*
X324Y134D02*
X398Y134D01*
X813Y134D02*
X886Y134D01*
X1002Y134D02*
X1076Y134D01*
X1491Y134D02*
X1564Y134D01*
X1676Y134D02*
X1749Y134D01*
X2164Y134D02*
X2238Y134D01*
X2387Y134D02*
X2461Y134D01*
X2876Y134D02*
X2949Y134D01*
X3071Y134D02*
X3145Y134D01*
X3559Y134D02*
X3633Y134D01*
X325Y133D02*
X397Y133D01*
X813Y133D02*
X885Y133D01*
X1003Y133D02*
X1075Y133D01*
X1491Y133D02*
X1563Y133D01*
X1677Y133D02*
X1749Y133D01*
X2165Y133D02*
X2237Y133D01*
X2388Y133D02*
X2460Y133D01*
X2876Y133D02*
X2948Y133D01*
X3072Y133D02*
X3144Y133D01*
X3560Y133D02*
X3632Y133D01*
X326Y132D02*
X396Y132D01*
X814Y132D02*
X885Y132D01*
X1004Y132D02*
X1074Y132D01*
X1492Y132D02*
X1562Y132D01*
X1678Y132D02*
X1748Y132D01*
X2166Y132D02*
X2236Y132D01*
X2389Y132D02*
X2459Y132D01*
X2877Y132D02*
X2947Y132D01*
X3073Y132D02*
X3143Y132D01*
X3561Y132D02*
X3631Y132D01*
X327Y131D02*
X395Y131D01*
X815Y131D02*
X884Y131D01*
X1005Y131D02*
X1073Y131D01*
X1493Y131D02*
X1562Y131D01*
X1678Y131D02*
X1747Y131D01*
X2167Y131D02*
X2235Y131D01*
X2390Y131D02*
X2458Y131D01*
X2878Y131D02*
X2947Y131D01*
X3073Y131D02*
X3142Y131D01*
X3562Y131D02*
X3630Y131D01*
X328Y130D02*
X395Y130D01*
X816Y130D02*
X883Y130D01*
X1006Y130D02*
X1073Y130D01*
X1494Y130D02*
X1561Y130D01*
X1679Y130D02*
X1746Y130D01*
X2167Y130D02*
X2234Y130D01*
X2391Y130D02*
X2458Y130D01*
X2879Y130D02*
X2946Y130D01*
X3074Y130D02*
X3141Y130D01*
X3563Y130D02*
X3629Y130D01*
X329Y129D02*
X394Y129D01*
X817Y129D02*
X882Y129D01*
X1007Y129D02*
X1072Y129D01*
X1495Y129D02*
X1560Y129D01*
X1680Y129D02*
X1745Y129D01*
X2168Y129D02*
X2234Y129D01*
X2392Y129D02*
X2457Y129D01*
X2880Y129D02*
X2945Y129D01*
X3075Y129D02*
X3140Y129D01*
X3563Y129D02*
X3629Y129D01*
X330Y128D02*
X393Y128D01*
X818Y128D02*
X881Y128D01*
X1008Y128D02*
X1071Y128D01*
X1496Y128D02*
X1559Y128D01*
X1681Y128D02*
X1744Y128D01*
X2169Y128D02*
X2232Y128D01*
X2393Y128D02*
X2456Y128D01*
X2881Y128D02*
X2944Y128D01*
X3076Y128D02*
X3139Y128D01*
X3564Y128D02*
X3628Y128D01*
X331Y127D02*
X392Y127D01*
X819Y127D02*
X880Y127D01*
X1009Y127D02*
X1069Y127D01*
X1497Y127D02*
X1558Y127D01*
X1682Y127D02*
X1743Y127D01*
X2171Y127D02*
X2231Y127D01*
X2394Y127D02*
X2454Y127D01*
X2882Y127D02*
X2943Y127D01*
X3077Y127D02*
X3138Y127D01*
X3566Y127D02*
X3626Y127D01*
X332Y126D02*
X390Y126D01*
X820Y126D02*
X879Y126D01*
X1010Y126D02*
X1068Y126D01*
X1498Y126D02*
X1557Y126D01*
X1683Y126D02*
X1742Y126D01*
X2172Y126D02*
X2230Y126D01*
X2395Y126D02*
X2453Y126D01*
X2883Y126D02*
X2942Y126D01*
X3079Y126D02*
X3137Y126D01*
X3567Y126D02*
X3625Y126D01*
X333Y125D02*
X389Y125D01*
X821Y125D02*
X877Y125D01*
X1011Y125D02*
X1067Y125D01*
X1499Y125D02*
X1555Y125D01*
X1685Y125D02*
X1741Y125D01*
X2173Y125D02*
X2229Y125D01*
X2396Y125D02*
X2452Y125D01*
X2884Y125D02*
X2940Y125D01*
X3080Y125D02*
X3136Y125D01*
X3568Y125D02*
X3624Y125D01*
X334Y124D02*
X388Y124D01*
X823Y124D02*
X876Y124D01*
X1012Y124D02*
X1066Y124D01*
X1501Y124D02*
X1554Y124D01*
X1686Y124D02*
X1739Y124D01*
X2174Y124D02*
X2228Y124D01*
X2397Y124D02*
X2451Y124D01*
X2886Y124D02*
X2939Y124D01*
X3081Y124D02*
X3134Y124D01*
X3569Y124D02*
X3623Y124D01*
X336Y123D02*
X386Y123D01*
X824Y123D02*
X875Y123D01*
X1014Y123D02*
X1064Y123D01*
X1502Y123D02*
X1553Y123D01*
X1688Y123D02*
X1738Y123D01*
X2176Y123D02*
X2226Y123D01*
X2399Y123D02*
X2449Y123D01*
X2887Y123D02*
X2938Y123D01*
X3083Y123D02*
X3133Y123D01*
X3571Y123D02*
X3621Y123D01*
X337Y122D02*
X385Y122D01*
X826Y122D02*
X873Y122D01*
X1015Y122D02*
X1063Y122D01*
X1504Y122D02*
X1551Y122D01*
X1689Y122D02*
X1736Y122D01*
X2177Y122D02*
X2225Y122D01*
X2400Y122D02*
X2448Y122D01*
X2889Y122D02*
X2936Y122D01*
X3084Y122D02*
X3131Y122D01*
X3572Y122D02*
X3620Y122D01*
X339Y121D02*
X383Y121D01*
X827Y121D02*
X871Y121D01*
X1017Y121D02*
X1061Y121D01*
X1505Y121D02*
X1549Y121D01*
X1691Y121D02*
X1735Y121D01*
X2179Y121D02*
X2223Y121D01*
X2402Y121D02*
X2446Y121D01*
X2890Y121D02*
X2934Y121D01*
X3086Y121D02*
X3130Y121D01*
X3574Y121D02*
X3618Y121D01*
X341Y120D02*
X381Y120D01*
X829Y120D02*
X869Y120D01*
X1019Y120D02*
X1059Y120D01*
X1507Y120D02*
X1547Y120D01*
X1693Y120D02*
X1733Y120D01*
X2181Y120D02*
X2221Y120D01*
X2404Y120D02*
X2444Y120D01*
X2892Y120D02*
X2932Y120D01*
X3088Y120D02*
X3128Y120D01*
X3576Y120D02*
X3616Y120D01*
X343Y119D02*
X379Y119D01*
X831Y119D02*
X867Y119D01*
X1021Y119D02*
X1057Y119D01*
X1509Y119D02*
X1545Y119D01*
X1695Y119D02*
X1731Y119D01*
X2183Y119D02*
X2219Y119D01*
X2406Y119D02*
X2442Y119D01*
X2894Y119D02*
X2930Y119D01*
X3090Y119D02*
X3126Y119D01*
X3578Y119D02*
X3614Y119D01*
X346Y118D02*
X377Y118D01*
X834Y118D02*
X865Y118D01*
X1024Y118D02*
X1055Y118D01*
X1512Y118D02*
X1543Y118D01*
X1697Y118D02*
X1728Y118D01*
X2185Y118D02*
X2216Y118D01*
X2409Y118D02*
X2440Y118D01*
X2897Y118D02*
X2928Y118D01*
X3092Y118D02*
X3123Y118D01*
X3581Y118D02*
X3611Y118D01*
X349Y117D02*
X373Y117D01*
X837Y117D02*
X862Y117D01*
X1027Y117D02*
X1051Y117D01*
X1515Y117D02*
X1540Y117D01*
X1700Y117D02*
X1725Y117D01*
X2189Y117D02*
X2213Y117D01*
X2412Y117D02*
X2436Y117D01*
X2900Y117D02*
X2925Y117D01*
X3095Y117D02*
X3120Y117D01*
X3584Y117D02*
X3608Y117D01*
X353Y116D02*
X369Y116D01*
X841Y116D02*
X857Y116D01*
X1031Y116D02*
X1047Y116D01*
X1519Y116D02*
X1535Y116D01*
X1705Y116D02*
X1721Y116D01*
X2193Y116D02*
X2209Y116D01*
X2416Y116D02*
X2432Y116D01*
X2904Y116D02*
X2920Y116D01*
X3100Y116D02*
X3116Y116D01*
X3588Y116D02*
X3604Y116D01*
D02*
G04 End of Mask0*
M02*