G04 MADE WITH FRITZING*
G04 WWW.FRITZING.ORG*
G04 DOUBLE SIDED*
G04 HOLES PLATED*
G04 CONTOUR ON CENTER OF CONTOUR VECTOR*
%ASAXBY*%
%FSLAX23Y23*%
%MOIN*%
%OFA0B0*%
%SFA1.0B1.0*%
%ADD10C,0.084000*%
%ADD11C,0.096614*%
%ADD12C,0.084667*%
%ADD13C,0.084695*%
%ADD14C,0.134033*%
%ADD15C,0.088000*%
%ADD16R,0.001000X0.001000*%
%LNMASK0*%
G90*
G70*
G54D10*
X3798Y259D03*
X3798Y366D03*
X3798Y473D03*
G54D11*
X78Y75D03*
X3856Y1104D03*
X80Y1106D03*
X3858Y73D03*
G54D12*
X3219Y716D03*
X3319Y716D03*
G54D13*
X3419Y716D03*
G54D14*
X3125Y1011D03*
X3513Y1011D03*
G54D12*
X2514Y716D03*
X2614Y716D03*
G54D13*
X2714Y716D03*
G54D14*
X2420Y1011D03*
X2808Y1011D03*
G54D12*
X1774Y716D03*
X1874Y716D03*
G54D13*
X1974Y716D03*
G54D14*
X1680Y1011D03*
X2068Y1011D03*
G54D12*
X1058Y716D03*
X1158Y716D03*
G54D13*
X1258Y716D03*
G54D14*
X964Y1011D03*
X1352Y1011D03*
G54D12*
X346Y716D03*
X446Y716D03*
G54D13*
X546Y716D03*
G54D14*
X252Y1011D03*
X641Y1011D03*
G54D15*
X85Y963D03*
X85Y863D03*
X85Y763D03*
G54D16*
X210Y404D02*
X223Y404D01*
X699Y404D02*
X711Y404D01*
X922Y404D02*
X934Y404D01*
X1410Y404D02*
X1422Y404D01*
X1629Y404D02*
X1641Y404D01*
X2117Y404D02*
X2129Y404D01*
X2373Y404D02*
X2386Y404D01*
X2862Y404D02*
X2874Y404D01*
X3091Y404D02*
X3103Y404D01*
X3579Y404D02*
X3591Y404D01*
X206Y403D02*
X228Y403D01*
X694Y403D02*
X716Y403D01*
X917Y403D02*
X939Y403D01*
X1405Y403D02*
X1427Y403D01*
X1624Y403D02*
X1646Y403D01*
X2112Y403D02*
X2134Y403D01*
X2368Y403D02*
X2391Y403D01*
X2857Y403D02*
X2879Y403D01*
X3086Y403D02*
X3108Y403D01*
X3574Y403D02*
X3596Y403D01*
X202Y402D02*
X231Y402D01*
X690Y402D02*
X719Y402D01*
X913Y402D02*
X943Y402D01*
X1402Y402D02*
X1431Y402D01*
X1620Y402D02*
X1650Y402D01*
X2109Y402D02*
X2138Y402D01*
X2365Y402D02*
X2394Y402D01*
X2853Y402D02*
X2882Y402D01*
X3082Y402D02*
X3111Y402D01*
X3570Y402D02*
X3600Y402D01*
X199Y401D02*
X234Y401D01*
X687Y401D02*
X722Y401D01*
X911Y401D02*
X945Y401D01*
X1399Y401D02*
X1434Y401D01*
X1618Y401D02*
X1652Y401D01*
X2106Y401D02*
X2141Y401D01*
X2362Y401D02*
X2397Y401D01*
X2850Y401D02*
X2885Y401D01*
X3079Y401D02*
X3114Y401D01*
X3567Y401D02*
X3602Y401D01*
X197Y400D02*
X236Y400D01*
X685Y400D02*
X724Y400D01*
X908Y400D02*
X947Y400D01*
X1397Y400D02*
X1436Y400D01*
X1615Y400D02*
X1654Y400D01*
X2104Y400D02*
X2143Y400D01*
X2360Y400D02*
X2399Y400D01*
X2848Y400D02*
X2887Y400D01*
X3077Y400D02*
X3116Y400D01*
X3565Y400D02*
X3604Y400D01*
X195Y399D02*
X238Y399D01*
X683Y399D02*
X726Y399D01*
X906Y399D02*
X949Y399D01*
X1395Y399D02*
X1438Y399D01*
X1613Y399D02*
X1656Y399D01*
X2102Y399D02*
X2145Y399D01*
X2358Y399D02*
X2401Y399D01*
X2846Y399D02*
X2889Y399D01*
X3075Y399D02*
X3118Y399D01*
X3563Y399D02*
X3606Y399D01*
X194Y398D02*
X240Y398D01*
X682Y398D02*
X728Y398D01*
X905Y398D02*
X951Y398D01*
X1393Y398D02*
X1439Y398D01*
X1612Y398D02*
X1658Y398D01*
X2100Y398D02*
X2146Y398D01*
X2356Y398D02*
X2403Y398D01*
X2845Y398D02*
X2891Y398D01*
X3074Y398D02*
X3120Y398D01*
X3562Y398D02*
X3608Y398D01*
X192Y397D02*
X241Y397D01*
X680Y397D02*
X730Y397D01*
X903Y397D02*
X953Y397D01*
X1391Y397D02*
X1441Y397D01*
X1610Y397D02*
X1660Y397D01*
X2098Y397D02*
X2148Y397D01*
X2355Y397D02*
X2404Y397D01*
X2843Y397D02*
X2893Y397D01*
X3072Y397D02*
X3121Y397D01*
X3560Y397D02*
X3610Y397D01*
X190Y396D02*
X243Y396D01*
X679Y396D02*
X731Y396D01*
X902Y396D02*
X954Y396D01*
X1390Y396D02*
X1442Y396D01*
X1609Y396D02*
X1661Y396D01*
X2097Y396D02*
X2149Y396D01*
X2353Y396D02*
X2406Y396D01*
X2842Y396D02*
X2894Y396D01*
X3070Y396D02*
X3123Y396D01*
X3559Y396D02*
X3611Y396D01*
X189Y395D02*
X244Y395D01*
X677Y395D02*
X732Y395D01*
X900Y395D02*
X956Y395D01*
X1389Y395D02*
X1444Y395D01*
X1607Y395D02*
X1663Y395D01*
X2096Y395D02*
X2151Y395D01*
X2352Y395D02*
X2407Y395D01*
X2840Y395D02*
X2895Y395D01*
X3069Y395D02*
X3124Y395D01*
X3557Y395D02*
X3612Y395D01*
X188Y394D02*
X246Y394D01*
X676Y394D02*
X734Y394D01*
X899Y394D02*
X957Y394D01*
X1387Y394D02*
X1445Y394D01*
X1606Y394D02*
X1664Y394D01*
X2094Y394D02*
X2152Y394D01*
X2351Y394D02*
X2409Y394D01*
X2839Y394D02*
X2897Y394D01*
X3068Y394D02*
X3126Y394D01*
X3556Y394D02*
X3614Y394D01*
X187Y393D02*
X247Y393D01*
X675Y393D02*
X735Y393D01*
X898Y393D02*
X958Y393D01*
X1386Y393D02*
X1446Y393D01*
X1605Y393D02*
X1665Y393D01*
X2093Y393D02*
X2153Y393D01*
X2350Y393D02*
X2410Y393D01*
X2838Y393D02*
X2898Y393D01*
X3067Y393D02*
X3127Y393D01*
X3555Y393D02*
X3615Y393D01*
X185Y392D02*
X248Y392D01*
X674Y392D02*
X736Y392D01*
X897Y392D02*
X959Y392D01*
X1385Y392D02*
X1447Y392D01*
X1604Y392D02*
X1666Y392D01*
X2092Y392D02*
X2154Y392D01*
X2348Y392D02*
X2411Y392D01*
X2837Y392D02*
X2899Y392D01*
X3066Y392D02*
X3128Y392D01*
X3554Y392D02*
X3616Y392D01*
X184Y391D02*
X249Y391D01*
X673Y391D02*
X737Y391D01*
X896Y391D02*
X960Y391D01*
X1384Y391D02*
X1448Y391D01*
X1603Y391D02*
X1667Y391D01*
X2091Y391D02*
X2155Y391D01*
X2347Y391D02*
X2412Y391D01*
X2836Y391D02*
X2900Y391D01*
X3064Y391D02*
X3129Y391D01*
X3553Y391D02*
X3617Y391D01*
X183Y390D02*
X250Y390D01*
X672Y390D02*
X738Y390D01*
X895Y390D02*
X961Y390D01*
X1383Y390D02*
X1449Y390D01*
X1602Y390D02*
X1668Y390D01*
X2090Y390D02*
X2156Y390D01*
X2346Y390D02*
X2413Y390D01*
X2835Y390D02*
X2901Y390D01*
X3064Y390D02*
X3130Y390D01*
X3552Y390D02*
X3618Y390D01*
X183Y389D02*
X251Y389D01*
X671Y389D02*
X739Y389D01*
X894Y389D02*
X962Y389D01*
X1382Y389D02*
X1450Y389D01*
X1601Y389D02*
X1669Y389D01*
X2089Y389D02*
X2157Y389D01*
X2346Y389D02*
X2414Y389D01*
X2834Y389D02*
X2902Y389D01*
X3063Y389D02*
X3131Y389D01*
X3551Y389D02*
X3619Y389D01*
X182Y388D02*
X252Y388D01*
X670Y388D02*
X740Y388D01*
X893Y388D02*
X963Y388D01*
X1381Y388D02*
X1451Y388D01*
X1600Y388D02*
X1670Y388D01*
X2088Y388D02*
X2158Y388D01*
X2345Y388D02*
X2415Y388D01*
X2833Y388D02*
X2903Y388D01*
X3062Y388D02*
X3132Y388D01*
X3550Y388D02*
X3620Y388D01*
X181Y387D02*
X252Y387D01*
X669Y387D02*
X741Y387D01*
X892Y387D02*
X964Y387D01*
X1380Y387D02*
X1452Y387D01*
X1599Y387D02*
X1671Y387D01*
X2087Y387D02*
X2159Y387D01*
X2344Y387D02*
X2415Y387D01*
X2832Y387D02*
X2904Y387D01*
X3061Y387D02*
X3132Y387D01*
X3549Y387D02*
X3621Y387D01*
X180Y386D02*
X253Y386D01*
X668Y386D02*
X741Y386D01*
X891Y386D02*
X964Y386D01*
X1380Y386D02*
X1453Y386D01*
X1599Y386D02*
X1671Y386D01*
X2087Y386D02*
X2160Y386D01*
X2343Y386D02*
X2416Y386D01*
X2831Y386D02*
X2904Y386D01*
X3060Y386D02*
X3133Y386D01*
X3548Y386D02*
X3621Y386D01*
X179Y385D02*
X254Y385D01*
X668Y385D02*
X742Y385D01*
X891Y385D02*
X965Y385D01*
X1379Y385D02*
X1453Y385D01*
X1598Y385D02*
X1672Y385D01*
X2086Y385D02*
X2160Y385D01*
X2342Y385D02*
X2417Y385D01*
X2831Y385D02*
X2905Y385D01*
X3059Y385D02*
X3134Y385D01*
X3548Y385D02*
X3622Y385D01*
X179Y384D02*
X255Y384D01*
X667Y384D02*
X743Y384D01*
X890Y384D02*
X966Y384D01*
X1378Y384D02*
X1454Y384D01*
X1597Y384D02*
X1673Y384D01*
X2085Y384D02*
X2161Y384D01*
X2342Y384D02*
X2418Y384D01*
X2830Y384D02*
X2906Y384D01*
X3059Y384D02*
X3135Y384D01*
X3547Y384D02*
X3623Y384D01*
X178Y383D02*
X255Y383D01*
X666Y383D02*
X743Y383D01*
X889Y383D02*
X967Y383D01*
X1378Y383D02*
X1455Y383D01*
X1596Y383D02*
X1674Y383D01*
X2085Y383D02*
X2162Y383D01*
X2341Y383D02*
X2418Y383D01*
X2829Y383D02*
X2906Y383D01*
X3058Y383D02*
X3135Y383D01*
X3546Y383D02*
X3623Y383D01*
X177Y382D02*
X256Y382D01*
X666Y382D02*
X744Y382D01*
X889Y382D02*
X967Y382D01*
X1377Y382D02*
X1455Y382D01*
X1596Y382D02*
X1674Y382D01*
X2084Y382D02*
X2162Y382D01*
X2340Y382D02*
X2419Y382D01*
X2829Y382D02*
X2907Y382D01*
X3058Y382D02*
X3136Y382D01*
X3546Y382D02*
X3624Y382D01*
X177Y381D02*
X256Y381D01*
X665Y381D02*
X745Y381D01*
X888Y381D02*
X968Y381D01*
X1376Y381D02*
X1456Y381D01*
X1595Y381D02*
X1675Y381D01*
X2083Y381D02*
X2163Y381D01*
X2340Y381D02*
X2419Y381D01*
X2828Y381D02*
X2908Y381D01*
X3057Y381D02*
X3136Y381D01*
X3545Y381D02*
X3625Y381D01*
X176Y380D02*
X257Y380D01*
X664Y380D02*
X745Y380D01*
X888Y380D02*
X968Y380D01*
X1376Y380D02*
X1457Y380D01*
X1595Y380D02*
X1675Y380D01*
X2083Y380D02*
X2164Y380D01*
X2339Y380D02*
X2420Y380D01*
X2827Y380D02*
X2908Y380D01*
X3056Y380D02*
X3137Y380D01*
X3545Y380D02*
X3625Y380D01*
X176Y379D02*
X258Y379D01*
X664Y379D02*
X746Y379D01*
X887Y379D02*
X969Y379D01*
X1375Y379D02*
X1457Y379D01*
X1594Y379D02*
X1676Y379D01*
X2082Y379D02*
X2164Y379D01*
X2339Y379D02*
X2420Y379D01*
X2827Y379D02*
X2909Y379D01*
X3056Y379D02*
X3138Y379D01*
X3544Y379D02*
X3626Y379D01*
X175Y378D02*
X258Y378D01*
X663Y378D02*
X746Y378D01*
X887Y378D02*
X969Y378D01*
X1375Y378D02*
X1458Y378D01*
X1594Y378D02*
X1676Y378D01*
X2082Y378D02*
X2165Y378D01*
X2338Y378D02*
X2421Y378D01*
X2826Y378D02*
X2909Y378D01*
X3055Y378D02*
X3138Y378D01*
X3544Y378D02*
X3626Y378D01*
X175Y377D02*
X259Y377D01*
X663Y377D02*
X747Y377D01*
X886Y377D02*
X970Y377D01*
X1374Y377D02*
X1458Y377D01*
X1593Y377D02*
X1677Y377D01*
X2081Y377D02*
X2165Y377D01*
X2338Y377D02*
X2421Y377D01*
X2826Y377D02*
X2910Y377D01*
X3055Y377D02*
X3139Y377D01*
X3543Y377D02*
X3627Y377D01*
X174Y376D02*
X259Y376D01*
X663Y376D02*
X747Y376D01*
X886Y376D02*
X970Y376D01*
X1374Y376D02*
X1458Y376D01*
X1593Y376D02*
X1677Y376D01*
X2081Y376D02*
X2165Y376D01*
X2337Y376D02*
X2422Y376D01*
X2826Y376D02*
X2910Y376D01*
X3054Y376D02*
X3139Y376D01*
X3543Y376D02*
X3627Y376D01*
X174Y375D02*
X259Y375D01*
X662Y375D02*
X747Y375D01*
X885Y375D02*
X971Y375D01*
X1374Y375D02*
X1459Y375D01*
X1592Y375D02*
X1678Y375D01*
X2081Y375D02*
X2166Y375D01*
X2337Y375D02*
X2422Y375D01*
X2825Y375D02*
X2910Y375D01*
X3054Y375D02*
X3139Y375D01*
X3542Y375D02*
X3628Y375D01*
X174Y374D02*
X260Y374D01*
X662Y374D02*
X748Y374D01*
X885Y374D02*
X971Y374D01*
X1373Y374D02*
X1459Y374D01*
X1592Y374D02*
X1678Y374D01*
X2080Y374D02*
X2166Y374D01*
X2337Y374D02*
X2423Y374D01*
X2825Y374D02*
X2911Y374D01*
X3054Y374D02*
X3140Y374D01*
X3542Y374D02*
X3628Y374D01*
X173Y373D02*
X260Y373D01*
X661Y373D02*
X748Y373D01*
X885Y373D02*
X971Y373D01*
X1373Y373D02*
X1460Y373D01*
X1592Y373D02*
X1678Y373D01*
X2080Y373D02*
X2167Y373D01*
X2336Y373D02*
X2423Y373D01*
X2824Y373D02*
X2911Y373D01*
X3053Y373D02*
X3140Y373D01*
X3542Y373D02*
X3628Y373D01*
X173Y372D02*
X260Y372D01*
X661Y372D02*
X749Y372D01*
X884Y372D02*
X972Y372D01*
X1372Y372D02*
X1460Y372D01*
X1591Y372D02*
X1679Y372D01*
X2079Y372D02*
X2167Y372D01*
X2336Y372D02*
X2423Y372D01*
X2824Y372D02*
X2912Y372D01*
X3053Y372D02*
X3140Y372D01*
X3541Y372D02*
X3629Y372D01*
X173Y371D02*
X261Y371D01*
X661Y371D02*
X749Y371D01*
X884Y371D02*
X972Y371D01*
X1372Y371D02*
X1460Y371D01*
X1591Y371D02*
X1679Y371D01*
X2079Y371D02*
X2167Y371D01*
X2336Y371D02*
X2424Y371D01*
X2824Y371D02*
X2912Y371D01*
X3053Y371D02*
X3141Y371D01*
X3541Y371D02*
X3629Y371D01*
X172Y370D02*
X261Y370D01*
X661Y370D02*
X749Y370D01*
X884Y370D02*
X972Y370D01*
X1372Y370D02*
X1460Y370D01*
X1591Y370D02*
X1679Y370D01*
X2079Y370D02*
X2167Y370D01*
X2335Y370D02*
X2424Y370D01*
X2824Y370D02*
X2912Y370D01*
X3052Y370D02*
X3141Y370D01*
X3541Y370D02*
X3629Y370D01*
X172Y369D02*
X261Y369D01*
X660Y369D02*
X749Y369D01*
X884Y369D02*
X972Y369D01*
X1372Y369D02*
X1461Y369D01*
X1591Y369D02*
X1679Y369D01*
X2079Y369D02*
X2168Y369D01*
X2335Y369D02*
X2424Y369D01*
X2823Y369D02*
X2912Y369D01*
X3052Y369D02*
X3141Y369D01*
X3540Y369D02*
X3629Y369D01*
X172Y368D02*
X261Y368D01*
X660Y368D02*
X750Y368D01*
X883Y368D02*
X973Y368D01*
X1371Y368D02*
X1461Y368D01*
X1590Y368D02*
X1680Y368D01*
X2078Y368D02*
X2168Y368D01*
X2335Y368D02*
X2424Y368D01*
X2823Y368D02*
X2913Y368D01*
X3052Y368D02*
X3141Y368D01*
X3540Y368D02*
X3630Y368D01*
X172Y367D02*
X262Y367D01*
X660Y367D02*
X750Y367D01*
X883Y367D02*
X973Y367D01*
X1371Y367D02*
X1461Y367D01*
X1590Y367D02*
X1680Y367D01*
X2078Y367D02*
X2168Y367D01*
X2335Y367D02*
X2425Y367D01*
X2823Y367D02*
X2913Y367D01*
X3052Y367D02*
X3142Y367D01*
X3540Y367D02*
X3630Y367D01*
X172Y366D02*
X262Y366D01*
X660Y366D02*
X750Y366D01*
X883Y366D02*
X973Y366D01*
X1371Y366D02*
X1461Y366D01*
X1590Y366D02*
X1680Y366D01*
X2078Y366D02*
X2168Y366D01*
X2335Y366D02*
X2425Y366D01*
X2823Y366D02*
X2913Y366D01*
X3052Y366D02*
X3142Y366D01*
X3540Y366D02*
X3630Y366D01*
X171Y365D02*
X262Y365D01*
X660Y365D02*
X750Y365D01*
X883Y365D02*
X973Y365D01*
X1371Y365D02*
X1461Y365D01*
X1590Y365D02*
X1680Y365D01*
X2078Y365D02*
X2168Y365D01*
X2334Y365D02*
X2425Y365D01*
X2823Y365D02*
X2913Y365D01*
X3051Y365D02*
X3142Y365D01*
X3540Y365D02*
X3630Y365D01*
X171Y364D02*
X262Y364D01*
X659Y364D02*
X750Y364D01*
X883Y364D02*
X973Y364D01*
X1371Y364D02*
X1462Y364D01*
X1590Y364D02*
X1680Y364D01*
X2078Y364D02*
X2169Y364D01*
X2334Y364D02*
X2425Y364D01*
X2822Y364D02*
X2913Y364D01*
X3051Y364D02*
X3142Y364D01*
X3540Y364D02*
X3630Y364D01*
X171Y363D02*
X262Y363D01*
X659Y363D02*
X750Y363D01*
X882Y363D02*
X974Y363D01*
X1371Y363D02*
X1462Y363D01*
X1589Y363D02*
X1681Y363D01*
X2078Y363D02*
X2169Y363D01*
X2334Y363D02*
X2425Y363D01*
X2822Y363D02*
X2913Y363D01*
X3051Y363D02*
X3142Y363D01*
X3539Y363D02*
X3630Y363D01*
X171Y362D02*
X262Y362D01*
X659Y362D02*
X750Y362D01*
X882Y362D02*
X974Y362D01*
X1371Y362D02*
X1462Y362D01*
X1589Y362D02*
X1681Y362D01*
X2078Y362D02*
X2169Y362D01*
X2334Y362D02*
X2425Y362D01*
X2822Y362D02*
X2913Y362D01*
X3051Y362D02*
X3142Y362D01*
X3539Y362D02*
X3631Y362D01*
X171Y361D02*
X262Y361D01*
X659Y361D02*
X751Y361D01*
X882Y361D02*
X974Y361D01*
X1370Y361D02*
X1462Y361D01*
X1589Y361D02*
X1681Y361D01*
X2077Y361D02*
X2169Y361D01*
X2334Y361D02*
X2425Y361D01*
X2822Y361D02*
X2913Y361D01*
X3051Y361D02*
X3142Y361D01*
X3539Y361D02*
X3631Y361D01*
X171Y360D02*
X262Y360D01*
X659Y360D02*
X751Y360D01*
X882Y360D02*
X974Y360D01*
X1370Y360D02*
X1462Y360D01*
X1589Y360D02*
X1681Y360D01*
X2077Y360D02*
X2169Y360D01*
X2334Y360D02*
X2425Y360D01*
X2822Y360D02*
X2914Y360D01*
X3051Y360D02*
X3142Y360D01*
X3539Y360D02*
X3631Y360D01*
X171Y359D02*
X262Y359D01*
X659Y359D02*
X751Y359D01*
X882Y359D02*
X974Y359D01*
X1370Y359D02*
X1462Y359D01*
X1589Y359D02*
X1681Y359D01*
X2077Y359D02*
X2169Y359D01*
X2334Y359D02*
X2425Y359D01*
X2822Y359D02*
X2914Y359D01*
X3051Y359D02*
X3143Y359D01*
X3539Y359D02*
X3631Y359D01*
X171Y358D02*
X262Y358D01*
X659Y358D02*
X751Y358D01*
X882Y358D02*
X974Y358D01*
X1370Y358D02*
X1462Y358D01*
X1589Y358D02*
X1681Y358D01*
X2077Y358D02*
X2169Y358D01*
X2334Y358D02*
X2425Y358D01*
X2822Y358D02*
X2914Y358D01*
X3051Y358D02*
X3143Y358D01*
X3539Y358D02*
X3631Y358D01*
X171Y357D02*
X262Y357D01*
X659Y357D02*
X751Y357D01*
X882Y357D02*
X974Y357D01*
X1370Y357D02*
X1462Y357D01*
X1589Y357D02*
X1681Y357D01*
X2077Y357D02*
X2169Y357D01*
X2334Y357D02*
X2425Y357D01*
X2822Y357D02*
X2914Y357D01*
X3051Y357D02*
X3142Y357D01*
X3539Y357D02*
X3631Y357D01*
X171Y356D02*
X262Y356D01*
X659Y356D02*
X751Y356D01*
X882Y356D02*
X974Y356D01*
X1370Y356D02*
X1462Y356D01*
X1589Y356D02*
X1681Y356D01*
X2077Y356D02*
X2169Y356D01*
X2334Y356D02*
X2425Y356D01*
X2822Y356D02*
X2914Y356D01*
X3051Y356D02*
X3142Y356D01*
X3539Y356D02*
X3631Y356D01*
X171Y355D02*
X262Y355D01*
X659Y355D02*
X750Y355D01*
X882Y355D02*
X974Y355D01*
X1371Y355D02*
X1462Y355D01*
X1589Y355D02*
X1681Y355D01*
X2078Y355D02*
X2169Y355D01*
X2334Y355D02*
X2425Y355D01*
X2822Y355D02*
X2913Y355D01*
X3051Y355D02*
X3142Y355D01*
X3539Y355D02*
X3631Y355D01*
X171Y354D02*
X262Y354D01*
X659Y354D02*
X750Y354D01*
X882Y354D02*
X974Y354D01*
X1371Y354D02*
X1462Y354D01*
X1589Y354D02*
X1681Y354D01*
X2078Y354D02*
X2169Y354D01*
X2334Y354D02*
X2425Y354D01*
X2822Y354D02*
X2913Y354D01*
X3051Y354D02*
X3142Y354D01*
X3539Y354D02*
X3630Y354D01*
X171Y353D02*
X262Y353D01*
X659Y353D02*
X750Y353D01*
X883Y353D02*
X973Y353D01*
X1371Y353D02*
X1462Y353D01*
X1590Y353D02*
X1680Y353D01*
X2078Y353D02*
X2169Y353D01*
X2334Y353D02*
X2425Y353D01*
X2822Y353D02*
X2913Y353D01*
X3051Y353D02*
X3142Y353D01*
X3539Y353D02*
X3630Y353D01*
X171Y352D02*
X262Y352D01*
X660Y352D02*
X750Y352D01*
X883Y352D02*
X973Y352D01*
X1371Y352D02*
X1461Y352D01*
X1590Y352D02*
X1680Y352D01*
X2078Y352D02*
X2168Y352D01*
X2334Y352D02*
X2425Y352D01*
X2823Y352D02*
X2913Y352D01*
X3051Y352D02*
X3142Y352D01*
X3540Y352D02*
X3630Y352D01*
X171Y351D02*
X262Y351D01*
X660Y351D02*
X750Y351D01*
X883Y351D02*
X973Y351D01*
X1371Y351D02*
X1461Y351D01*
X1590Y351D02*
X1680Y351D01*
X2078Y351D02*
X2168Y351D01*
X2334Y351D02*
X2425Y351D01*
X2823Y351D02*
X2913Y351D01*
X3052Y351D02*
X3142Y351D01*
X3540Y351D02*
X3630Y351D01*
X172Y350D02*
X262Y350D01*
X660Y350D02*
X750Y350D01*
X883Y350D02*
X973Y350D01*
X1371Y350D02*
X1461Y350D01*
X1590Y350D02*
X1680Y350D01*
X2078Y350D02*
X2168Y350D01*
X2335Y350D02*
X2425Y350D01*
X2823Y350D02*
X2913Y350D01*
X3052Y350D02*
X3142Y350D01*
X3540Y350D02*
X3630Y350D01*
X172Y349D02*
X261Y349D01*
X660Y349D02*
X750Y349D01*
X883Y349D02*
X973Y349D01*
X1371Y349D02*
X1461Y349D01*
X1590Y349D02*
X1680Y349D01*
X2078Y349D02*
X2168Y349D01*
X2335Y349D02*
X2424Y349D01*
X2823Y349D02*
X2913Y349D01*
X3052Y349D02*
X3142Y349D01*
X3540Y349D02*
X3630Y349D01*
X172Y348D02*
X261Y348D01*
X660Y348D02*
X749Y348D01*
X883Y348D02*
X973Y348D01*
X1372Y348D02*
X1461Y348D01*
X1590Y348D02*
X1680Y348D01*
X2079Y348D02*
X2168Y348D01*
X2335Y348D02*
X2424Y348D01*
X2823Y348D02*
X2912Y348D01*
X3052Y348D02*
X3141Y348D01*
X3540Y348D02*
X3629Y348D01*
X172Y347D02*
X261Y347D01*
X660Y347D02*
X749Y347D01*
X884Y347D02*
X972Y347D01*
X1372Y347D02*
X1460Y347D01*
X1591Y347D02*
X1679Y347D01*
X2079Y347D02*
X2168Y347D01*
X2335Y347D02*
X2424Y347D01*
X2823Y347D02*
X2912Y347D01*
X3052Y347D02*
X3141Y347D01*
X3541Y347D02*
X3629Y347D01*
X173Y346D02*
X261Y346D01*
X661Y346D02*
X749Y346D01*
X884Y346D02*
X972Y346D01*
X1372Y346D02*
X1460Y346D01*
X1591Y346D02*
X1679Y346D01*
X2079Y346D02*
X2167Y346D01*
X2336Y346D02*
X2424Y346D01*
X2824Y346D02*
X2912Y346D01*
X3053Y346D02*
X3141Y346D01*
X3541Y346D02*
X3629Y346D01*
X173Y345D02*
X260Y345D01*
X661Y345D02*
X749Y345D01*
X884Y345D02*
X972Y345D01*
X1372Y345D02*
X1460Y345D01*
X1591Y345D02*
X1679Y345D01*
X2079Y345D02*
X2167Y345D01*
X2336Y345D02*
X2423Y345D01*
X2824Y345D02*
X2912Y345D01*
X3053Y345D02*
X3141Y345D01*
X3541Y345D02*
X3629Y345D01*
X173Y344D02*
X260Y344D01*
X661Y344D02*
X748Y344D01*
X884Y344D02*
X972Y344D01*
X1373Y344D02*
X1460Y344D01*
X1591Y344D02*
X1679Y344D01*
X2080Y344D02*
X2167Y344D01*
X2336Y344D02*
X2423Y344D01*
X2824Y344D02*
X2911Y344D01*
X3053Y344D02*
X3140Y344D01*
X3541Y344D02*
X3628Y344D01*
X173Y343D02*
X260Y343D01*
X662Y343D02*
X748Y343D01*
X885Y343D02*
X971Y343D01*
X1373Y343D02*
X1459Y343D01*
X1592Y343D02*
X1678Y343D01*
X2080Y343D02*
X2166Y343D01*
X2336Y343D02*
X2423Y343D01*
X2825Y343D02*
X2911Y343D01*
X3054Y343D02*
X3140Y343D01*
X3542Y343D02*
X3628Y343D01*
X174Y342D02*
X259Y342D01*
X662Y342D02*
X748Y342D01*
X885Y342D02*
X971Y342D01*
X1373Y342D02*
X1459Y342D01*
X1592Y342D02*
X1678Y342D01*
X2080Y342D02*
X2166Y342D01*
X2337Y342D02*
X2422Y342D01*
X2825Y342D02*
X2911Y342D01*
X3054Y342D02*
X3140Y342D01*
X3542Y342D02*
X3628Y342D01*
X174Y341D02*
X259Y341D01*
X662Y341D02*
X747Y341D01*
X885Y341D02*
X970Y341D01*
X1374Y341D02*
X1459Y341D01*
X1593Y341D02*
X1677Y341D01*
X2081Y341D02*
X2166Y341D01*
X2337Y341D02*
X2422Y341D01*
X2825Y341D02*
X2910Y341D01*
X3054Y341D02*
X3139Y341D01*
X3542Y341D02*
X3627Y341D01*
X175Y340D02*
X259Y340D01*
X663Y340D02*
X747Y340D01*
X886Y340D02*
X970Y340D01*
X1374Y340D02*
X1458Y340D01*
X1593Y340D02*
X1677Y340D01*
X2081Y340D02*
X2165Y340D01*
X2338Y340D02*
X2422Y340D01*
X2826Y340D02*
X2910Y340D01*
X3055Y340D02*
X3139Y340D01*
X3543Y340D02*
X3627Y340D01*
X175Y339D02*
X258Y339D01*
X663Y339D02*
X746Y339D01*
X886Y339D02*
X970Y339D01*
X1375Y339D02*
X1458Y339D01*
X1593Y339D02*
X1677Y339D01*
X2082Y339D02*
X2165Y339D01*
X2338Y339D02*
X2421Y339D01*
X2826Y339D02*
X2909Y339D01*
X3055Y339D02*
X3138Y339D01*
X3543Y339D02*
X3626Y339D01*
X176Y338D02*
X258Y338D01*
X664Y338D02*
X746Y338D01*
X887Y338D02*
X969Y338D01*
X1375Y338D02*
X1457Y338D01*
X1594Y338D02*
X1676Y338D01*
X2082Y338D02*
X2164Y338D01*
X2339Y338D02*
X2421Y338D01*
X2827Y338D02*
X2909Y338D01*
X3056Y338D02*
X3138Y338D01*
X3544Y338D02*
X3626Y338D01*
X176Y337D02*
X257Y337D01*
X664Y337D02*
X745Y337D01*
X887Y337D02*
X969Y337D01*
X1376Y337D02*
X1457Y337D01*
X1594Y337D02*
X1676Y337D01*
X2083Y337D02*
X2164Y337D01*
X2339Y337D02*
X2420Y337D01*
X2827Y337D02*
X2908Y337D01*
X3056Y337D02*
X3137Y337D01*
X3544Y337D02*
X3625Y337D01*
X177Y336D02*
X257Y336D01*
X665Y336D02*
X745Y336D01*
X888Y336D02*
X968Y336D01*
X1376Y336D02*
X1456Y336D01*
X1595Y336D02*
X1675Y336D01*
X2083Y336D02*
X2163Y336D01*
X2340Y336D02*
X2420Y336D01*
X2828Y336D02*
X2908Y336D01*
X3057Y336D02*
X3137Y336D01*
X3545Y336D02*
X3625Y336D01*
X177Y335D02*
X256Y335D01*
X665Y335D02*
X744Y335D01*
X889Y335D02*
X967Y335D01*
X1377Y335D02*
X1456Y335D01*
X1596Y335D02*
X1674Y335D01*
X2084Y335D02*
X2163Y335D01*
X2340Y335D02*
X2419Y335D01*
X2828Y335D02*
X2907Y335D01*
X3057Y335D02*
X3136Y335D01*
X3545Y335D02*
X3624Y335D01*
X178Y334D02*
X256Y334D01*
X666Y334D02*
X744Y334D01*
X889Y334D02*
X967Y334D01*
X1377Y334D02*
X1455Y334D01*
X1596Y334D02*
X1674Y334D01*
X2084Y334D02*
X2162Y334D01*
X2341Y334D02*
X2418Y334D01*
X2829Y334D02*
X2907Y334D01*
X3058Y334D02*
X3136Y334D01*
X3546Y334D02*
X3624Y334D01*
X178Y333D02*
X255Y333D01*
X667Y333D02*
X743Y333D01*
X890Y333D02*
X966Y333D01*
X1378Y333D02*
X1454Y333D01*
X1597Y333D02*
X1673Y333D01*
X2085Y333D02*
X2161Y333D01*
X2341Y333D02*
X2418Y333D01*
X2830Y333D02*
X2906Y333D01*
X3058Y333D02*
X3135Y333D01*
X3547Y333D02*
X3623Y333D01*
X179Y332D02*
X254Y332D01*
X667Y332D02*
X742Y332D01*
X890Y332D02*
X966Y332D01*
X1379Y332D02*
X1454Y332D01*
X1597Y332D02*
X1673Y332D01*
X2086Y332D02*
X2161Y332D01*
X2342Y332D02*
X2417Y332D01*
X2830Y332D02*
X2905Y332D01*
X3059Y332D02*
X3134Y332D01*
X3547Y332D02*
X3622Y332D01*
X180Y331D02*
X253Y331D01*
X668Y331D02*
X742Y331D01*
X891Y331D02*
X965Y331D01*
X1379Y331D02*
X1453Y331D01*
X1598Y331D02*
X1672Y331D01*
X2086Y331D02*
X2160Y331D01*
X2343Y331D02*
X2416Y331D01*
X2831Y331D02*
X2905Y331D01*
X3060Y331D02*
X3134Y331D01*
X3548Y331D02*
X3622Y331D01*
X181Y330D02*
X253Y330D01*
X669Y330D02*
X741Y330D01*
X892Y330D02*
X964Y330D01*
X1380Y330D02*
X1452Y330D01*
X1599Y330D02*
X1671Y330D01*
X2087Y330D02*
X2159Y330D01*
X2344Y330D02*
X2416Y330D01*
X2832Y330D02*
X2904Y330D01*
X3061Y330D02*
X3133Y330D01*
X3549Y330D02*
X3621Y330D01*
X181Y329D02*
X252Y329D01*
X669Y329D02*
X740Y329D01*
X893Y329D02*
X963Y329D01*
X1381Y329D02*
X1452Y329D01*
X1600Y329D02*
X1670Y329D01*
X2088Y329D02*
X2159Y329D01*
X2344Y329D02*
X2415Y329D01*
X2832Y329D02*
X2903Y329D01*
X3061Y329D02*
X3132Y329D01*
X3550Y329D02*
X3620Y329D01*
X182Y328D02*
X251Y328D01*
X670Y328D02*
X739Y328D01*
X893Y328D02*
X962Y328D01*
X1382Y328D02*
X1451Y328D01*
X1600Y328D02*
X1669Y328D01*
X2089Y328D02*
X2158Y328D01*
X2345Y328D02*
X2414Y328D01*
X2833Y328D02*
X2902Y328D01*
X3062Y328D02*
X3131Y328D01*
X3550Y328D02*
X3619Y328D01*
X183Y327D02*
X250Y327D01*
X671Y327D02*
X738Y327D01*
X894Y327D02*
X962Y327D01*
X1383Y327D02*
X1450Y327D01*
X1601Y327D02*
X1669Y327D01*
X2090Y327D02*
X2157Y327D01*
X2346Y327D02*
X2413Y327D01*
X2834Y327D02*
X2901Y327D01*
X3063Y327D02*
X3130Y327D01*
X3551Y327D02*
X3619Y327D01*
X184Y326D02*
X249Y326D01*
X672Y326D02*
X738Y326D01*
X895Y326D02*
X961Y326D01*
X1383Y326D02*
X1449Y326D01*
X1602Y326D02*
X1668Y326D01*
X2090Y326D02*
X2156Y326D01*
X2347Y326D02*
X2412Y326D01*
X2835Y326D02*
X2901Y326D01*
X3064Y326D02*
X3129Y326D01*
X3552Y326D02*
X3618Y326D01*
X185Y325D02*
X248Y325D01*
X673Y325D02*
X737Y325D01*
X896Y325D02*
X960Y325D01*
X1384Y325D02*
X1448Y325D01*
X1603Y325D02*
X1667Y325D01*
X2091Y325D02*
X2155Y325D01*
X2348Y325D02*
X2411Y325D01*
X2836Y325D02*
X2900Y325D01*
X3065Y325D02*
X3128Y325D01*
X3553Y325D02*
X3617Y325D01*
X186Y324D02*
X247Y324D01*
X674Y324D02*
X735Y324D01*
X897Y324D02*
X959Y324D01*
X1386Y324D02*
X1447Y324D01*
X1604Y324D02*
X1666Y324D01*
X2093Y324D02*
X2154Y324D01*
X2349Y324D02*
X2410Y324D01*
X2837Y324D02*
X2898Y324D01*
X3066Y324D02*
X3127Y324D01*
X3554Y324D02*
X3615Y324D01*
X187Y323D02*
X246Y323D01*
X675Y323D02*
X734Y323D01*
X898Y323D02*
X957Y323D01*
X1387Y323D02*
X1446Y323D01*
X1606Y323D02*
X1664Y323D01*
X2094Y323D02*
X2153Y323D01*
X2350Y323D02*
X2409Y323D01*
X2838Y323D02*
X2897Y323D01*
X3067Y323D02*
X3126Y323D01*
X3555Y323D02*
X3614Y323D01*
X188Y322D02*
X245Y322D01*
X677Y322D02*
X733Y322D01*
X900Y322D02*
X956Y322D01*
X1388Y322D02*
X1444Y322D01*
X1607Y322D02*
X1663Y322D01*
X2095Y322D02*
X2151Y322D01*
X2351Y322D02*
X2408Y322D01*
X2840Y322D02*
X2896Y322D01*
X3069Y322D02*
X3125Y322D01*
X3557Y322D02*
X3613Y322D01*
X190Y321D02*
X244Y321D01*
X678Y321D02*
X732Y321D01*
X901Y321D02*
X955Y321D01*
X1389Y321D02*
X1443Y321D01*
X1608Y321D02*
X1662Y321D01*
X2096Y321D02*
X2150Y321D01*
X2353Y321D02*
X2406Y321D01*
X2841Y321D02*
X2895Y321D01*
X3070Y321D02*
X3124Y321D01*
X3558Y321D02*
X3612Y321D01*
X191Y320D02*
X242Y320D01*
X679Y320D02*
X730Y320D01*
X902Y320D02*
X953Y320D01*
X1391Y320D02*
X1442Y320D01*
X1609Y320D02*
X1660Y320D01*
X2098Y320D02*
X2149Y320D01*
X2354Y320D02*
X2405Y320D01*
X2842Y320D02*
X2893Y320D01*
X3071Y320D02*
X3122Y320D01*
X3559Y320D02*
X3610Y320D01*
X193Y319D02*
X241Y319D01*
X681Y319D02*
X729Y319D01*
X904Y319D02*
X952Y319D01*
X1392Y319D02*
X1440Y319D01*
X1611Y319D02*
X1659Y319D01*
X2099Y319D02*
X2147Y319D01*
X2356Y319D02*
X2404Y319D01*
X2844Y319D02*
X2892Y319D01*
X3073Y319D02*
X3121Y319D01*
X3561Y319D02*
X3609Y319D01*
X194Y318D02*
X239Y318D01*
X683Y318D02*
X727Y318D01*
X906Y318D02*
X950Y318D01*
X1394Y318D02*
X1438Y318D01*
X1613Y318D02*
X1657Y318D01*
X2101Y318D02*
X2145Y318D01*
X2357Y318D02*
X2402Y318D01*
X2846Y318D02*
X2890Y318D01*
X3074Y318D02*
X3119Y318D01*
X3563Y318D02*
X3607Y318D01*
X196Y317D02*
X237Y317D01*
X684Y317D02*
X725Y317D01*
X908Y317D02*
X948Y317D01*
X1396Y317D02*
X1437Y317D01*
X1615Y317D02*
X1655Y317D01*
X2103Y317D02*
X2144Y317D01*
X2359Y317D02*
X2400Y317D01*
X2847Y317D02*
X2888Y317D01*
X3076Y317D02*
X3117Y317D01*
X3564Y317D02*
X3605Y317D01*
X198Y316D02*
X235Y316D01*
X686Y316D02*
X723Y316D01*
X910Y316D02*
X946Y316D01*
X1398Y316D02*
X1435Y316D01*
X1617Y316D02*
X1653Y316D01*
X2105Y316D02*
X2142Y316D01*
X2361Y316D02*
X2398Y316D01*
X2849Y316D02*
X2886Y316D01*
X3078Y316D02*
X3115Y316D01*
X3566Y316D02*
X3603Y316D01*
X201Y315D02*
X233Y315D01*
X689Y315D02*
X721Y315D01*
X912Y315D02*
X944Y315D01*
X1400Y315D02*
X1432Y315D01*
X1619Y315D02*
X1651Y315D01*
X2107Y315D02*
X2139Y315D01*
X2364Y315D02*
X2396Y315D01*
X2852Y315D02*
X2884Y315D01*
X3081Y315D02*
X3113Y315D01*
X3569Y315D02*
X3601Y315D01*
X204Y314D02*
X230Y314D01*
X692Y314D02*
X718Y314D01*
X915Y314D02*
X941Y314D01*
X1403Y314D02*
X1429Y314D01*
X1622Y314D02*
X1648Y314D01*
X2110Y314D02*
X2136Y314D01*
X2367Y314D02*
X2393Y314D01*
X2855Y314D02*
X2881Y314D01*
X3084Y314D02*
X3110Y314D01*
X3572Y314D02*
X3598Y314D01*
X208Y313D02*
X226Y313D01*
X696Y313D02*
X714Y313D01*
X919Y313D02*
X937Y313D01*
X1407Y313D02*
X1425Y313D01*
X1626Y313D02*
X1644Y313D01*
X2114Y313D02*
X2132Y313D01*
X2371Y313D02*
X2389Y313D01*
X2859Y313D02*
X2877Y313D01*
X3088Y313D02*
X3106Y313D01*
X3576Y313D02*
X3594Y313D01*
X216Y312D02*
X217Y312D01*
X704Y312D02*
X706Y312D01*
X927Y312D02*
X929Y312D01*
X1415Y312D02*
X1417Y312D01*
X1634Y312D02*
X1636Y312D01*
X2122Y312D02*
X2124Y312D01*
X2379Y312D02*
X2380Y312D01*
X2867Y312D02*
X2869Y312D01*
X3096Y312D02*
X3097Y312D01*
X3584Y312D02*
X3586Y312D01*
X209Y207D02*
X224Y207D01*
X698Y207D02*
X712Y207D01*
X921Y207D02*
X935Y207D01*
X1409Y207D02*
X1423Y207D01*
X1628Y207D02*
X1642Y207D01*
X2116Y207D02*
X2130Y207D01*
X2372Y207D02*
X2387Y207D01*
X2861Y207D02*
X2875Y207D01*
X3090Y207D02*
X3104Y207D01*
X3578Y207D02*
X3592Y207D01*
X205Y206D02*
X228Y206D01*
X693Y206D02*
X717Y206D01*
X916Y206D02*
X940Y206D01*
X1404Y206D02*
X1428Y206D01*
X1623Y206D02*
X1647Y206D01*
X2111Y206D02*
X2135Y206D01*
X2368Y206D02*
X2391Y206D01*
X2856Y206D02*
X2880Y206D01*
X3085Y206D02*
X3108Y206D01*
X3573Y206D02*
X3597Y206D01*
X202Y205D02*
X232Y205D01*
X690Y205D02*
X720Y205D01*
X913Y205D02*
X943Y205D01*
X1401Y205D02*
X1431Y205D01*
X1620Y205D02*
X1650Y205D01*
X2108Y205D02*
X2138Y205D01*
X2365Y205D02*
X2395Y205D01*
X2853Y205D02*
X2883Y205D01*
X3082Y205D02*
X3112Y205D01*
X3570Y205D02*
X3600Y205D01*
X199Y204D02*
X234Y204D01*
X687Y204D02*
X723Y204D01*
X910Y204D02*
X946Y204D01*
X1398Y204D02*
X1434Y204D01*
X1617Y204D02*
X1653Y204D01*
X2105Y204D02*
X2141Y204D01*
X2362Y204D02*
X2397Y204D01*
X2850Y204D02*
X2886Y204D01*
X3079Y204D02*
X3114Y204D01*
X3567Y204D02*
X3603Y204D01*
X197Y203D02*
X236Y203D01*
X685Y203D02*
X725Y203D01*
X908Y203D02*
X948Y203D01*
X1396Y203D02*
X1436Y203D01*
X1615Y203D02*
X1655Y203D01*
X2103Y203D02*
X2143Y203D01*
X2360Y203D02*
X2399Y203D01*
X2848Y203D02*
X2888Y203D01*
X3077Y203D02*
X3117Y203D01*
X3565Y203D02*
X3605Y203D01*
X195Y202D02*
X238Y202D01*
X683Y202D02*
X727Y202D01*
X906Y202D02*
X950Y202D01*
X1394Y202D02*
X1438Y202D01*
X1613Y202D02*
X1657Y202D01*
X2101Y202D02*
X2145Y202D01*
X2358Y202D02*
X2401Y202D01*
X2846Y202D02*
X2890Y202D01*
X3075Y202D02*
X3118Y202D01*
X3563Y202D02*
X3607Y202D01*
X193Y201D02*
X240Y201D01*
X681Y201D02*
X728Y201D01*
X905Y201D02*
X951Y201D01*
X1393Y201D02*
X1440Y201D01*
X1612Y201D02*
X1658Y201D01*
X2100Y201D02*
X2147Y201D01*
X2356Y201D02*
X2403Y201D01*
X2844Y201D02*
X2891Y201D01*
X3073Y201D02*
X3120Y201D01*
X3561Y201D02*
X3608Y201D01*
X192Y200D02*
X242Y200D01*
X680Y200D02*
X730Y200D01*
X903Y200D02*
X953Y200D01*
X1391Y200D02*
X1441Y200D01*
X1610Y200D02*
X1660Y200D01*
X2098Y200D02*
X2148Y200D01*
X2355Y200D02*
X2405Y200D01*
X2843Y200D02*
X2893Y200D01*
X3072Y200D02*
X3122Y200D01*
X3560Y200D02*
X3610Y200D01*
X190Y199D02*
X243Y199D01*
X678Y199D02*
X731Y199D01*
X902Y199D02*
X954Y199D01*
X1390Y199D02*
X1443Y199D01*
X1609Y199D02*
X1661Y199D01*
X2097Y199D02*
X2150Y199D01*
X2353Y199D02*
X2406Y199D01*
X2841Y199D02*
X2894Y199D01*
X3070Y199D02*
X3123Y199D01*
X3558Y199D02*
X3611Y199D01*
X189Y198D02*
X244Y198D01*
X677Y198D02*
X733Y198D01*
X900Y198D02*
X956Y198D01*
X1388Y198D02*
X1444Y198D01*
X1607Y198D02*
X1663Y198D01*
X2095Y198D02*
X2151Y198D01*
X2352Y198D02*
X2407Y198D01*
X2840Y198D02*
X2896Y198D01*
X3069Y198D02*
X3124Y198D01*
X3557Y198D02*
X3613Y198D01*
X188Y197D02*
X246Y197D01*
X676Y197D02*
X734Y197D01*
X899Y197D02*
X957Y197D01*
X1387Y197D02*
X1445Y197D01*
X1606Y197D02*
X1664Y197D01*
X2094Y197D02*
X2152Y197D01*
X2351Y197D02*
X2409Y197D01*
X2839Y197D02*
X2897Y197D01*
X3068Y197D02*
X3126Y197D01*
X3556Y197D02*
X3614Y197D01*
X186Y196D02*
X247Y196D01*
X675Y196D02*
X735Y196D01*
X898Y196D02*
X958Y196D01*
X1386Y196D02*
X1446Y196D01*
X1605Y196D02*
X1665Y196D01*
X2093Y196D02*
X2153Y196D01*
X2349Y196D02*
X2410Y196D01*
X2838Y196D02*
X2898Y196D01*
X3066Y196D02*
X3127Y196D01*
X3555Y196D02*
X3615Y196D01*
X185Y195D02*
X248Y195D01*
X673Y195D02*
X736Y195D01*
X897Y195D02*
X959Y195D01*
X1385Y195D02*
X1448Y195D01*
X1604Y195D02*
X1666Y195D01*
X2092Y195D02*
X2155Y195D01*
X2348Y195D02*
X2411Y195D01*
X2836Y195D02*
X2899Y195D01*
X3065Y195D02*
X3128Y195D01*
X3554Y195D02*
X3616Y195D01*
X184Y194D02*
X249Y194D01*
X672Y194D02*
X737Y194D01*
X896Y194D02*
X960Y194D01*
X1384Y194D02*
X1449Y194D01*
X1603Y194D02*
X1667Y194D01*
X2091Y194D02*
X2156Y194D01*
X2347Y194D02*
X2412Y194D01*
X2835Y194D02*
X2900Y194D01*
X3064Y194D02*
X3129Y194D01*
X3552Y194D02*
X3617Y194D01*
X183Y193D02*
X250Y193D01*
X672Y193D02*
X738Y193D01*
X895Y193D02*
X961Y193D01*
X1383Y193D02*
X1449Y193D01*
X1602Y193D02*
X1668Y193D01*
X2090Y193D02*
X2157Y193D01*
X2346Y193D02*
X2413Y193D01*
X2834Y193D02*
X2901Y193D01*
X3063Y193D02*
X3130Y193D01*
X3552Y193D02*
X3618Y193D01*
X182Y192D02*
X251Y192D01*
X671Y192D02*
X739Y192D01*
X894Y192D02*
X962Y192D01*
X1382Y192D02*
X1450Y192D01*
X1601Y192D02*
X1669Y192D01*
X2089Y192D02*
X2157Y192D01*
X2345Y192D02*
X2414Y192D01*
X2834Y192D02*
X2902Y192D01*
X3062Y192D02*
X3131Y192D01*
X3551Y192D02*
X3619Y192D01*
X182Y191D02*
X252Y191D01*
X670Y191D02*
X740Y191D01*
X893Y191D02*
X963Y191D01*
X1381Y191D02*
X1451Y191D01*
X1600Y191D02*
X1670Y191D01*
X2088Y191D02*
X2158Y191D01*
X2345Y191D02*
X2415Y191D01*
X2833Y191D02*
X2903Y191D01*
X3062Y191D02*
X3132Y191D01*
X3550Y191D02*
X3620Y191D01*
X181Y190D02*
X253Y190D01*
X669Y190D02*
X741Y190D01*
X892Y190D02*
X964Y190D01*
X1380Y190D02*
X1452Y190D01*
X1599Y190D02*
X1671Y190D01*
X2087Y190D02*
X2159Y190D01*
X2344Y190D02*
X2415Y190D01*
X2832Y190D02*
X2904Y190D01*
X3061Y190D02*
X3133Y190D01*
X3549Y190D02*
X3621Y190D01*
X180Y189D02*
X253Y189D01*
X668Y189D02*
X741Y189D01*
X891Y189D02*
X965Y189D01*
X1380Y189D02*
X1453Y189D01*
X1598Y189D02*
X1672Y189D01*
X2087Y189D02*
X2160Y189D01*
X2343Y189D02*
X2416Y189D01*
X2831Y189D02*
X2904Y189D01*
X3060Y189D02*
X3133Y189D01*
X3548Y189D02*
X3621Y189D01*
X179Y188D02*
X254Y188D01*
X667Y188D02*
X742Y188D01*
X891Y188D02*
X965Y188D01*
X1379Y188D02*
X1454Y188D01*
X1598Y188D02*
X1672Y188D01*
X2086Y188D02*
X2161Y188D01*
X2342Y188D02*
X2417Y188D01*
X2830Y188D02*
X2905Y188D01*
X3059Y188D02*
X3134Y188D01*
X3548Y188D02*
X3622Y188D01*
X179Y187D02*
X255Y187D01*
X667Y187D02*
X743Y187D01*
X890Y187D02*
X966Y187D01*
X1378Y187D02*
X1454Y187D01*
X1597Y187D02*
X1673Y187D01*
X2085Y187D02*
X2161Y187D01*
X2342Y187D02*
X2418Y187D01*
X2830Y187D02*
X2906Y187D01*
X3059Y187D02*
X3135Y187D01*
X3547Y187D02*
X3623Y187D01*
X178Y186D02*
X255Y186D01*
X666Y186D02*
X743Y186D01*
X889Y186D02*
X967Y186D01*
X1377Y186D02*
X1455Y186D01*
X1596Y186D02*
X1674Y186D01*
X2085Y186D02*
X2162Y186D01*
X2341Y186D02*
X2418Y186D01*
X2829Y186D02*
X2906Y186D01*
X3058Y186D02*
X3135Y186D01*
X3546Y186D02*
X3624Y186D01*
X177Y185D02*
X256Y185D01*
X666Y185D02*
X744Y185D01*
X889Y185D02*
X967Y185D01*
X1377Y185D02*
X1455Y185D01*
X1596Y185D02*
X1674Y185D01*
X2084Y185D02*
X2162Y185D01*
X2340Y185D02*
X2419Y185D01*
X2829Y185D02*
X2907Y185D01*
X3057Y185D02*
X3136Y185D01*
X3546Y185D02*
X3624Y185D01*
X177Y184D02*
X257Y184D01*
X665Y184D02*
X745Y184D01*
X888Y184D02*
X968Y184D01*
X1376Y184D02*
X1456Y184D01*
X1595Y184D02*
X1675Y184D01*
X2083Y184D02*
X2163Y184D01*
X2340Y184D02*
X2420Y184D01*
X2828Y184D02*
X2908Y184D01*
X3057Y184D02*
X3137Y184D01*
X3545Y184D02*
X3625Y184D01*
X176Y183D02*
X257Y183D01*
X664Y183D02*
X745Y183D01*
X888Y183D02*
X968Y183D01*
X1376Y183D02*
X1457Y183D01*
X1595Y183D02*
X1675Y183D01*
X2083Y183D02*
X2164Y183D01*
X2339Y183D02*
X2420Y183D01*
X2827Y183D02*
X2908Y183D01*
X3056Y183D02*
X3137Y183D01*
X3544Y183D02*
X3625Y183D01*
X176Y182D02*
X258Y182D01*
X664Y182D02*
X746Y182D01*
X887Y182D02*
X969Y182D01*
X1375Y182D02*
X1457Y182D01*
X1594Y182D02*
X1676Y182D01*
X2082Y182D02*
X2164Y182D01*
X2339Y182D02*
X2421Y182D01*
X2827Y182D02*
X2909Y182D01*
X3056Y182D02*
X3138Y182D01*
X3544Y182D02*
X3626Y182D01*
X175Y181D02*
X258Y181D01*
X663Y181D02*
X746Y181D01*
X887Y181D02*
X969Y181D01*
X1375Y181D02*
X1458Y181D01*
X1594Y181D02*
X1676Y181D01*
X2082Y181D02*
X2165Y181D01*
X2338Y181D02*
X2421Y181D01*
X2826Y181D02*
X2909Y181D01*
X3055Y181D02*
X3138Y181D01*
X3543Y181D02*
X3626Y181D01*
X175Y180D02*
X259Y180D01*
X663Y180D02*
X747Y180D01*
X886Y180D02*
X970Y180D01*
X1374Y180D02*
X1458Y180D01*
X1593Y180D02*
X1677Y180D01*
X2081Y180D02*
X2165Y180D01*
X2338Y180D02*
X2422Y180D01*
X2826Y180D02*
X2910Y180D01*
X3055Y180D02*
X3139Y180D01*
X3543Y180D02*
X3627Y180D01*
X174Y179D02*
X259Y179D01*
X662Y179D02*
X747Y179D01*
X886Y179D02*
X970Y179D01*
X1374Y179D02*
X1459Y179D01*
X1593Y179D02*
X1677Y179D01*
X2081Y179D02*
X2166Y179D01*
X2337Y179D02*
X2422Y179D01*
X2825Y179D02*
X2910Y179D01*
X3054Y179D02*
X3139Y179D01*
X3543Y179D02*
X3627Y179D01*
X174Y178D02*
X259Y178D01*
X662Y178D02*
X748Y178D01*
X885Y178D02*
X971Y178D01*
X1373Y178D02*
X1459Y178D01*
X1592Y178D02*
X1678Y178D01*
X2080Y178D02*
X2166Y178D01*
X2337Y178D02*
X2422Y178D01*
X2825Y178D02*
X2911Y178D01*
X3054Y178D02*
X3139Y178D01*
X3542Y178D02*
X3628Y178D01*
X174Y177D02*
X260Y177D01*
X662Y177D02*
X748Y177D01*
X885Y177D02*
X971Y177D01*
X1373Y177D02*
X1459Y177D01*
X1592Y177D02*
X1678Y177D01*
X2080Y177D02*
X2166Y177D01*
X2337Y177D02*
X2423Y177D01*
X2825Y177D02*
X2911Y177D01*
X3054Y177D02*
X3140Y177D01*
X3542Y177D02*
X3628Y177D01*
X173Y176D02*
X260Y176D01*
X661Y176D02*
X748Y176D01*
X885Y176D02*
X971Y176D01*
X1373Y176D02*
X1460Y176D01*
X1592Y176D02*
X1678Y176D01*
X2080Y176D02*
X2167Y176D01*
X2336Y176D02*
X2423Y176D01*
X2824Y176D02*
X2911Y176D01*
X3053Y176D02*
X3140Y176D01*
X3541Y176D02*
X3628Y176D01*
X173Y175D02*
X260Y175D01*
X661Y175D02*
X749Y175D01*
X884Y175D02*
X972Y175D01*
X1372Y175D02*
X1460Y175D01*
X1591Y175D02*
X1679Y175D01*
X2079Y175D02*
X2167Y175D01*
X2336Y175D02*
X2423Y175D01*
X2824Y175D02*
X2912Y175D01*
X3053Y175D02*
X3140Y175D01*
X3541Y175D02*
X3629Y175D01*
X173Y174D02*
X261Y174D01*
X661Y174D02*
X749Y174D01*
X884Y174D02*
X972Y174D01*
X1372Y174D02*
X1460Y174D01*
X1591Y174D02*
X1679Y174D01*
X2079Y174D02*
X2167Y174D01*
X2336Y174D02*
X2424Y174D01*
X2824Y174D02*
X2912Y174D01*
X3053Y174D02*
X3141Y174D01*
X3541Y174D02*
X3629Y174D01*
X172Y173D02*
X261Y173D01*
X661Y173D02*
X749Y173D01*
X884Y173D02*
X972Y173D01*
X1372Y173D02*
X1460Y173D01*
X1591Y173D02*
X1679Y173D01*
X2079Y173D02*
X2167Y173D01*
X2335Y173D02*
X2424Y173D01*
X2824Y173D02*
X2912Y173D01*
X3052Y173D02*
X3141Y173D01*
X3541Y173D02*
X3629Y173D01*
X172Y172D02*
X261Y172D01*
X660Y172D02*
X749Y172D01*
X883Y172D02*
X972Y172D01*
X1372Y172D02*
X1461Y172D01*
X1590Y172D02*
X1679Y172D01*
X2079Y172D02*
X2168Y172D01*
X2335Y172D02*
X2424Y172D01*
X2823Y172D02*
X2912Y172D01*
X3052Y172D02*
X3141Y172D01*
X3540Y172D02*
X3629Y172D01*
X172Y171D02*
X261Y171D01*
X660Y171D02*
X750Y171D01*
X883Y171D02*
X973Y171D01*
X1371Y171D02*
X1461Y171D01*
X1590Y171D02*
X1680Y171D01*
X2078Y171D02*
X2168Y171D01*
X2335Y171D02*
X2424Y171D01*
X2823Y171D02*
X2913Y171D01*
X3052Y171D02*
X3141Y171D01*
X3540Y171D02*
X3630Y171D01*
X172Y170D02*
X262Y170D01*
X660Y170D02*
X750Y170D01*
X883Y170D02*
X973Y170D01*
X1371Y170D02*
X1461Y170D01*
X1590Y170D02*
X1680Y170D01*
X2078Y170D02*
X2168Y170D01*
X2335Y170D02*
X2425Y170D01*
X2823Y170D02*
X2913Y170D01*
X3052Y170D02*
X3142Y170D01*
X3540Y170D02*
X3630Y170D01*
X172Y169D02*
X262Y169D01*
X660Y169D02*
X750Y169D01*
X883Y169D02*
X973Y169D01*
X1371Y169D02*
X1461Y169D01*
X1590Y169D02*
X1680Y169D01*
X2078Y169D02*
X2168Y169D01*
X2335Y169D02*
X2425Y169D01*
X2823Y169D02*
X2913Y169D01*
X3052Y169D02*
X3142Y169D01*
X3540Y169D02*
X3630Y169D01*
X171Y168D02*
X262Y168D01*
X660Y168D02*
X750Y168D01*
X883Y168D02*
X973Y168D01*
X1371Y168D02*
X1461Y168D01*
X1590Y168D02*
X1680Y168D01*
X2078Y168D02*
X2168Y168D01*
X2334Y168D02*
X2425Y168D01*
X2823Y168D02*
X2913Y168D01*
X3051Y168D02*
X3142Y168D01*
X3540Y168D02*
X3630Y168D01*
X171Y167D02*
X262Y167D01*
X659Y167D02*
X750Y167D01*
X883Y167D02*
X973Y167D01*
X1371Y167D02*
X1462Y167D01*
X1590Y167D02*
X1680Y167D01*
X2078Y167D02*
X2169Y167D01*
X2334Y167D02*
X2425Y167D01*
X2822Y167D02*
X2913Y167D01*
X3051Y167D02*
X3142Y167D01*
X3539Y167D02*
X3630Y167D01*
X171Y166D02*
X262Y166D01*
X659Y166D02*
X750Y166D01*
X882Y166D02*
X974Y166D01*
X1371Y166D02*
X1462Y166D01*
X1589Y166D02*
X1681Y166D01*
X2078Y166D02*
X2169Y166D01*
X2334Y166D02*
X2425Y166D01*
X2822Y166D02*
X2913Y166D01*
X3051Y166D02*
X3142Y166D01*
X3539Y166D02*
X3630Y166D01*
X171Y165D02*
X262Y165D01*
X659Y165D02*
X750Y165D01*
X882Y165D02*
X974Y165D01*
X1371Y165D02*
X1462Y165D01*
X1589Y165D02*
X1681Y165D01*
X2078Y165D02*
X2169Y165D01*
X2334Y165D02*
X2425Y165D01*
X2822Y165D02*
X2913Y165D01*
X3051Y165D02*
X3142Y165D01*
X3539Y165D02*
X3631Y165D01*
X171Y164D02*
X262Y164D01*
X659Y164D02*
X751Y164D01*
X882Y164D02*
X974Y164D01*
X1370Y164D02*
X1462Y164D01*
X1589Y164D02*
X1681Y164D01*
X2077Y164D02*
X2169Y164D01*
X2334Y164D02*
X2425Y164D01*
X2822Y164D02*
X2914Y164D01*
X3051Y164D02*
X3142Y164D01*
X3539Y164D02*
X3631Y164D01*
X171Y163D02*
X262Y163D01*
X659Y163D02*
X751Y163D01*
X882Y163D02*
X974Y163D01*
X1370Y163D02*
X1462Y163D01*
X1589Y163D02*
X1681Y163D01*
X2077Y163D02*
X2169Y163D01*
X2334Y163D02*
X2425Y163D01*
X2822Y163D02*
X2914Y163D01*
X3051Y163D02*
X3142Y163D01*
X3539Y163D02*
X3631Y163D01*
X171Y162D02*
X262Y162D01*
X659Y162D02*
X751Y162D01*
X882Y162D02*
X974Y162D01*
X1370Y162D02*
X1462Y162D01*
X1589Y162D02*
X1681Y162D01*
X2077Y162D02*
X2169Y162D01*
X2334Y162D02*
X2425Y162D01*
X2822Y162D02*
X2914Y162D01*
X3051Y162D02*
X3143Y162D01*
X3539Y162D02*
X3631Y162D01*
X171Y161D02*
X262Y161D01*
X659Y161D02*
X751Y161D01*
X882Y161D02*
X974Y161D01*
X1370Y161D02*
X1462Y161D01*
X1589Y161D02*
X1681Y161D01*
X2077Y161D02*
X2169Y161D01*
X2334Y161D02*
X2425Y161D01*
X2822Y161D02*
X2914Y161D01*
X3051Y161D02*
X3143Y161D01*
X3539Y161D02*
X3631Y161D01*
X171Y160D02*
X262Y160D01*
X659Y160D02*
X751Y160D01*
X882Y160D02*
X974Y160D01*
X1370Y160D02*
X1462Y160D01*
X1589Y160D02*
X1681Y160D01*
X2077Y160D02*
X2169Y160D01*
X2334Y160D02*
X2425Y160D01*
X2822Y160D02*
X2914Y160D01*
X3051Y160D02*
X3142Y160D01*
X3539Y160D02*
X3631Y160D01*
X171Y159D02*
X262Y159D01*
X659Y159D02*
X751Y159D01*
X882Y159D02*
X974Y159D01*
X1370Y159D02*
X1462Y159D01*
X1589Y159D02*
X1681Y159D01*
X2077Y159D02*
X2169Y159D01*
X2334Y159D02*
X2425Y159D01*
X2822Y159D02*
X2914Y159D01*
X3051Y159D02*
X3142Y159D01*
X3539Y159D02*
X3631Y159D01*
X171Y158D02*
X262Y158D01*
X659Y158D02*
X750Y158D01*
X882Y158D02*
X974Y158D01*
X1371Y158D02*
X1462Y158D01*
X1589Y158D02*
X1681Y158D01*
X2078Y158D02*
X2169Y158D01*
X2334Y158D02*
X2425Y158D01*
X2822Y158D02*
X2913Y158D01*
X3051Y158D02*
X3142Y158D01*
X3539Y158D02*
X3631Y158D01*
X171Y157D02*
X262Y157D01*
X659Y157D02*
X750Y157D01*
X882Y157D02*
X974Y157D01*
X1371Y157D02*
X1462Y157D01*
X1589Y157D02*
X1681Y157D01*
X2078Y157D02*
X2169Y157D01*
X2334Y157D02*
X2425Y157D01*
X2822Y157D02*
X2913Y157D01*
X3051Y157D02*
X3142Y157D01*
X3539Y157D02*
X3630Y157D01*
X171Y156D02*
X262Y156D01*
X659Y156D02*
X750Y156D01*
X883Y156D02*
X973Y156D01*
X1371Y156D02*
X1462Y156D01*
X1590Y156D02*
X1680Y156D01*
X2078Y156D02*
X2169Y156D01*
X2334Y156D02*
X2425Y156D01*
X2822Y156D02*
X2913Y156D01*
X3051Y156D02*
X3142Y156D01*
X3539Y156D02*
X3630Y156D01*
X171Y155D02*
X262Y155D01*
X660Y155D02*
X750Y155D01*
X883Y155D02*
X973Y155D01*
X1371Y155D02*
X1461Y155D01*
X1590Y155D02*
X1680Y155D01*
X2078Y155D02*
X2168Y155D01*
X2334Y155D02*
X2425Y155D01*
X2823Y155D02*
X2913Y155D01*
X3051Y155D02*
X3142Y155D01*
X3540Y155D02*
X3630Y155D01*
X172Y154D02*
X262Y154D01*
X660Y154D02*
X750Y154D01*
X883Y154D02*
X973Y154D01*
X1371Y154D02*
X1461Y154D01*
X1590Y154D02*
X1680Y154D01*
X2078Y154D02*
X2168Y154D01*
X2335Y154D02*
X2425Y154D01*
X2823Y154D02*
X2913Y154D01*
X3052Y154D02*
X3142Y154D01*
X3540Y154D02*
X3630Y154D01*
X172Y153D02*
X262Y153D01*
X660Y153D02*
X750Y153D01*
X883Y153D02*
X973Y153D01*
X1371Y153D02*
X1461Y153D01*
X1590Y153D02*
X1680Y153D01*
X2078Y153D02*
X2168Y153D01*
X2335Y153D02*
X2425Y153D01*
X2823Y153D02*
X2913Y153D01*
X3052Y153D02*
X3142Y153D01*
X3540Y153D02*
X3630Y153D01*
X172Y152D02*
X261Y152D01*
X660Y152D02*
X750Y152D01*
X883Y152D02*
X973Y152D01*
X1371Y152D02*
X1461Y152D01*
X1590Y152D02*
X1680Y152D01*
X2078Y152D02*
X2168Y152D01*
X2335Y152D02*
X2424Y152D01*
X2823Y152D02*
X2913Y152D01*
X3052Y152D02*
X3141Y152D01*
X3540Y152D02*
X3630Y152D01*
X172Y151D02*
X261Y151D01*
X660Y151D02*
X749Y151D01*
X883Y151D02*
X973Y151D01*
X1372Y151D02*
X1461Y151D01*
X1590Y151D02*
X1680Y151D01*
X2079Y151D02*
X2168Y151D01*
X2335Y151D02*
X2424Y151D01*
X2823Y151D02*
X2912Y151D01*
X3052Y151D02*
X3141Y151D01*
X3540Y151D02*
X3629Y151D01*
X172Y150D02*
X261Y150D01*
X661Y150D02*
X749Y150D01*
X884Y150D02*
X972Y150D01*
X1372Y150D02*
X1460Y150D01*
X1591Y150D02*
X1679Y150D01*
X2079Y150D02*
X2167Y150D01*
X2335Y150D02*
X2424Y150D01*
X2824Y150D02*
X2912Y150D01*
X3052Y150D02*
X3141Y150D01*
X3541Y150D02*
X3629Y150D01*
X173Y149D02*
X261Y149D01*
X661Y149D02*
X749Y149D01*
X884Y149D02*
X972Y149D01*
X1372Y149D02*
X1460Y149D01*
X1591Y149D02*
X1679Y149D01*
X2079Y149D02*
X2167Y149D01*
X2336Y149D02*
X2424Y149D01*
X2824Y149D02*
X2912Y149D01*
X3053Y149D02*
X3141Y149D01*
X3541Y149D02*
X3629Y149D01*
X173Y148D02*
X260Y148D01*
X661Y148D02*
X749Y148D01*
X884Y148D02*
X972Y148D01*
X1372Y148D02*
X1460Y148D01*
X1591Y148D02*
X1679Y148D01*
X2079Y148D02*
X2167Y148D01*
X2336Y148D02*
X2423Y148D01*
X2824Y148D02*
X2912Y148D01*
X3053Y148D02*
X3140Y148D01*
X3541Y148D02*
X3629Y148D01*
X173Y147D02*
X260Y147D01*
X661Y147D02*
X748Y147D01*
X884Y147D02*
X971Y147D01*
X1373Y147D02*
X1460Y147D01*
X1592Y147D02*
X1678Y147D01*
X2080Y147D02*
X2167Y147D01*
X2336Y147D02*
X2423Y147D01*
X2824Y147D02*
X2911Y147D01*
X3053Y147D02*
X3140Y147D01*
X3541Y147D02*
X3628Y147D01*
X174Y146D02*
X260Y146D01*
X662Y146D02*
X748Y146D01*
X885Y146D02*
X971Y146D01*
X1373Y146D02*
X1459Y146D01*
X1592Y146D02*
X1678Y146D01*
X2080Y146D02*
X2166Y146D01*
X2337Y146D02*
X2423Y146D01*
X2825Y146D02*
X2911Y146D01*
X3054Y146D02*
X3140Y146D01*
X3542Y146D02*
X3628Y146D01*
X174Y145D02*
X259Y145D01*
X662Y145D02*
X748Y145D01*
X885Y145D02*
X971Y145D01*
X1373Y145D02*
X1459Y145D01*
X1592Y145D02*
X1678Y145D01*
X2080Y145D02*
X2166Y145D01*
X2337Y145D02*
X2422Y145D01*
X2825Y145D02*
X2911Y145D01*
X3054Y145D02*
X3139Y145D01*
X3542Y145D02*
X3628Y145D01*
X174Y144D02*
X259Y144D01*
X662Y144D02*
X747Y144D01*
X886Y144D02*
X970Y144D01*
X1374Y144D02*
X1459Y144D01*
X1593Y144D02*
X1677Y144D01*
X2081Y144D02*
X2166Y144D01*
X2337Y144D02*
X2422Y144D01*
X2825Y144D02*
X2910Y144D01*
X3054Y144D02*
X3139Y144D01*
X3542Y144D02*
X3627Y144D01*
X175Y143D02*
X259Y143D01*
X663Y143D02*
X747Y143D01*
X886Y143D02*
X970Y143D01*
X1374Y143D02*
X1458Y143D01*
X1593Y143D02*
X1677Y143D01*
X2081Y143D02*
X2165Y143D01*
X2338Y143D02*
X2422Y143D01*
X2826Y143D02*
X2910Y143D01*
X3055Y143D02*
X3139Y143D01*
X3543Y143D02*
X3627Y143D01*
X175Y142D02*
X258Y142D01*
X663Y142D02*
X746Y142D01*
X886Y142D02*
X969Y142D01*
X1375Y142D02*
X1458Y142D01*
X1593Y142D02*
X1676Y142D01*
X2082Y142D02*
X2165Y142D01*
X2338Y142D02*
X2421Y142D01*
X2826Y142D02*
X2909Y142D01*
X3055Y142D02*
X3138Y142D01*
X3543Y142D02*
X3626Y142D01*
X176Y141D02*
X258Y141D01*
X664Y141D02*
X746Y141D01*
X887Y141D02*
X969Y141D01*
X1375Y141D02*
X1457Y141D01*
X1594Y141D02*
X1676Y141D01*
X2082Y141D02*
X2164Y141D01*
X2339Y141D02*
X2421Y141D01*
X2827Y141D02*
X2909Y141D01*
X3056Y141D02*
X3138Y141D01*
X3544Y141D02*
X3626Y141D01*
X176Y140D02*
X257Y140D01*
X664Y140D02*
X745Y140D01*
X887Y140D02*
X968Y140D01*
X1376Y140D02*
X1457Y140D01*
X1594Y140D02*
X1676Y140D01*
X2083Y140D02*
X2164Y140D01*
X2339Y140D02*
X2420Y140D01*
X2827Y140D02*
X2908Y140D01*
X3056Y140D02*
X3137Y140D01*
X3544Y140D02*
X3625Y140D01*
X177Y139D02*
X257Y139D01*
X665Y139D02*
X745Y139D01*
X888Y139D02*
X968Y139D01*
X1376Y139D02*
X1456Y139D01*
X1595Y139D02*
X1675Y139D01*
X2083Y139D02*
X2163Y139D01*
X2340Y139D02*
X2420Y139D01*
X2828Y139D02*
X2908Y139D01*
X3057Y139D02*
X3137Y139D01*
X3545Y139D02*
X3625Y139D01*
X177Y138D02*
X256Y138D01*
X665Y138D02*
X744Y138D01*
X889Y138D02*
X967Y138D01*
X1377Y138D02*
X1456Y138D01*
X1596Y138D02*
X1674Y138D01*
X2084Y138D02*
X2163Y138D01*
X2340Y138D02*
X2419Y138D01*
X2828Y138D02*
X2907Y138D01*
X3057Y138D02*
X3136Y138D01*
X3546Y138D02*
X3624Y138D01*
X178Y137D02*
X255Y137D01*
X666Y137D02*
X744Y137D01*
X889Y137D02*
X967Y137D01*
X1377Y137D02*
X1455Y137D01*
X1596Y137D02*
X1674Y137D01*
X2084Y137D02*
X2162Y137D01*
X2341Y137D02*
X2418Y137D01*
X2829Y137D02*
X2907Y137D01*
X3058Y137D02*
X3135Y137D01*
X3546Y137D02*
X3624Y137D01*
X179Y136D02*
X255Y136D01*
X667Y136D02*
X743Y136D01*
X890Y136D02*
X966Y136D01*
X1378Y136D02*
X1454Y136D01*
X1597Y136D02*
X1673Y136D01*
X2085Y136D02*
X2161Y136D01*
X2341Y136D02*
X2418Y136D01*
X2830Y136D02*
X2906Y136D01*
X3059Y136D02*
X3135Y136D01*
X3547Y136D02*
X3623Y136D01*
X179Y135D02*
X254Y135D01*
X667Y135D02*
X742Y135D01*
X891Y135D02*
X965Y135D01*
X1379Y135D02*
X1454Y135D01*
X1598Y135D02*
X1672Y135D01*
X2086Y135D02*
X2161Y135D01*
X2342Y135D02*
X2417Y135D01*
X2830Y135D02*
X2905Y135D01*
X3059Y135D02*
X3134Y135D01*
X3547Y135D02*
X3622Y135D01*
X180Y134D02*
X253Y134D01*
X668Y134D02*
X742Y134D01*
X891Y134D02*
X965Y134D01*
X1379Y134D02*
X1453Y134D01*
X1598Y134D02*
X1672Y134D01*
X2086Y134D02*
X2160Y134D01*
X2343Y134D02*
X2416Y134D01*
X2831Y134D02*
X2905Y134D01*
X3060Y134D02*
X3133Y134D01*
X3548Y134D02*
X3622Y134D01*
X181Y133D02*
X253Y133D01*
X669Y133D02*
X741Y133D01*
X892Y133D02*
X964Y133D01*
X1380Y133D02*
X1452Y133D01*
X1599Y133D02*
X1671Y133D01*
X2087Y133D02*
X2159Y133D01*
X2344Y133D02*
X2416Y133D01*
X2832Y133D02*
X2904Y133D01*
X3061Y133D02*
X3133Y133D01*
X3549Y133D02*
X3621Y133D01*
X181Y132D02*
X252Y132D01*
X670Y132D02*
X740Y132D01*
X893Y132D02*
X963Y132D01*
X1381Y132D02*
X1451Y132D01*
X1600Y132D02*
X1670Y132D01*
X2088Y132D02*
X2158Y132D01*
X2344Y132D02*
X2415Y132D01*
X2833Y132D02*
X2903Y132D01*
X3061Y132D02*
X3132Y132D01*
X3550Y132D02*
X3620Y132D01*
X182Y131D02*
X251Y131D01*
X670Y131D02*
X739Y131D01*
X894Y131D02*
X962Y131D01*
X1382Y131D02*
X1451Y131D01*
X1601Y131D02*
X1669Y131D01*
X2089Y131D02*
X2158Y131D01*
X2345Y131D02*
X2414Y131D01*
X2833Y131D02*
X2902Y131D01*
X3062Y131D02*
X3131Y131D01*
X3551Y131D02*
X3619Y131D01*
X183Y130D02*
X250Y130D01*
X671Y130D02*
X738Y130D01*
X894Y130D02*
X961Y130D01*
X1383Y130D02*
X1450Y130D01*
X1602Y130D02*
X1668Y130D01*
X2090Y130D02*
X2157Y130D01*
X2346Y130D02*
X2413Y130D01*
X2834Y130D02*
X2901Y130D01*
X3063Y130D02*
X3130Y130D01*
X3551Y130D02*
X3618Y130D01*
X184Y129D02*
X249Y129D01*
X672Y129D02*
X737Y129D01*
X895Y129D02*
X961Y129D01*
X1384Y129D02*
X1449Y129D01*
X1602Y129D02*
X1668Y129D01*
X2091Y129D02*
X2156Y129D01*
X2347Y129D02*
X2412Y129D01*
X2835Y129D02*
X2900Y129D01*
X3064Y129D02*
X3129Y129D01*
X3552Y129D02*
X3617Y129D01*
X185Y128D02*
X248Y128D01*
X673Y128D02*
X736Y128D01*
X896Y128D02*
X959Y128D01*
X1385Y128D02*
X1448Y128D01*
X1603Y128D02*
X1667Y128D01*
X2092Y128D02*
X2155Y128D01*
X2348Y128D02*
X2411Y128D01*
X2836Y128D02*
X2899Y128D01*
X3065Y128D02*
X3128Y128D01*
X3553Y128D02*
X3616Y128D01*
X186Y127D02*
X247Y127D01*
X674Y127D02*
X735Y127D01*
X898Y127D02*
X958Y127D01*
X1386Y127D02*
X1447Y127D01*
X1605Y127D02*
X1665Y127D01*
X2093Y127D02*
X2154Y127D01*
X2349Y127D02*
X2410Y127D01*
X2837Y127D02*
X2898Y127D01*
X3066Y127D02*
X3127Y127D01*
X3554Y127D02*
X3615Y127D01*
X187Y126D02*
X246Y126D01*
X676Y126D02*
X734Y126D01*
X899Y126D02*
X957Y126D01*
X1387Y126D02*
X1445Y126D01*
X1606Y126D02*
X1664Y126D01*
X2094Y126D02*
X2152Y126D01*
X2350Y126D02*
X2409Y126D01*
X2839Y126D02*
X2897Y126D01*
X3067Y126D02*
X3126Y126D01*
X3556Y126D02*
X3614Y126D01*
X189Y125D02*
X245Y125D01*
X677Y125D02*
X733Y125D01*
X900Y125D02*
X956Y125D01*
X1388Y125D02*
X1444Y125D01*
X1607Y125D02*
X1663Y125D01*
X2095Y125D02*
X2151Y125D01*
X2352Y125D02*
X2408Y125D01*
X2840Y125D02*
X2896Y125D01*
X3069Y125D02*
X3125Y125D01*
X3557Y125D02*
X3613Y125D01*
X190Y124D02*
X243Y124D01*
X678Y124D02*
X731Y124D01*
X901Y124D02*
X955Y124D01*
X1390Y124D02*
X1443Y124D01*
X1608Y124D02*
X1662Y124D01*
X2097Y124D02*
X2150Y124D01*
X2353Y124D02*
X2406Y124D01*
X2841Y124D02*
X2894Y124D01*
X3070Y124D02*
X3123Y124D01*
X3558Y124D02*
X3612Y124D01*
X191Y123D02*
X242Y123D01*
X680Y123D02*
X730Y123D01*
X903Y123D02*
X953Y123D01*
X1391Y123D02*
X1441Y123D01*
X1610Y123D02*
X1660Y123D01*
X2098Y123D02*
X2148Y123D01*
X2354Y123D02*
X2405Y123D01*
X2843Y123D02*
X2893Y123D01*
X3071Y123D02*
X3122Y123D01*
X3560Y123D02*
X3610Y123D01*
X193Y122D02*
X240Y122D01*
X681Y122D02*
X728Y122D01*
X904Y122D02*
X952Y122D01*
X1393Y122D02*
X1440Y122D01*
X1611Y122D02*
X1659Y122D01*
X2100Y122D02*
X2147Y122D01*
X2356Y122D02*
X2403Y122D01*
X2844Y122D02*
X2891Y122D01*
X3073Y122D02*
X3120Y122D01*
X3561Y122D02*
X3609Y122D01*
X195Y121D02*
X239Y121D01*
X683Y121D02*
X727Y121D01*
X906Y121D02*
X950Y121D01*
X1394Y121D02*
X1438Y121D01*
X1613Y121D02*
X1657Y121D01*
X2101Y121D02*
X2145Y121D01*
X2358Y121D02*
X2402Y121D01*
X2846Y121D02*
X2890Y121D01*
X3075Y121D02*
X3119Y121D01*
X3563Y121D02*
X3607Y121D01*
X197Y120D02*
X237Y120D01*
X685Y120D02*
X725Y120D01*
X908Y120D02*
X948Y120D01*
X1396Y120D02*
X1436Y120D01*
X1615Y120D02*
X1655Y120D01*
X2103Y120D02*
X2143Y120D01*
X2360Y120D02*
X2400Y120D01*
X2848Y120D02*
X2888Y120D01*
X3077Y120D02*
X3117Y120D01*
X3565Y120D02*
X3605Y120D01*
X199Y119D02*
X235Y119D01*
X687Y119D02*
X723Y119D01*
X910Y119D02*
X946Y119D01*
X1398Y119D02*
X1434Y119D01*
X1617Y119D02*
X1653Y119D01*
X2105Y119D02*
X2141Y119D01*
X2362Y119D02*
X2398Y119D01*
X2850Y119D02*
X2886Y119D01*
X3079Y119D02*
X3115Y119D01*
X3567Y119D02*
X3603Y119D01*
X201Y118D02*
X232Y118D01*
X689Y118D02*
X720Y118D01*
X912Y118D02*
X943Y118D01*
X1401Y118D02*
X1432Y118D01*
X1620Y118D02*
X1650Y118D01*
X2108Y118D02*
X2139Y118D01*
X2364Y118D02*
X2395Y118D01*
X2852Y118D02*
X2883Y118D01*
X3081Y118D02*
X3112Y118D01*
X3569Y118D02*
X3600Y118D01*
X204Y117D02*
X229Y117D01*
X692Y117D02*
X717Y117D01*
X916Y117D02*
X940Y117D01*
X1404Y117D02*
X1429Y117D01*
X1623Y117D02*
X1647Y117D01*
X2111Y117D02*
X2136Y117D01*
X2367Y117D02*
X2392Y117D01*
X2855Y117D02*
X2880Y117D01*
X3084Y117D02*
X3109Y117D01*
X3573Y117D02*
X3597Y117D01*
X208Y116D02*
X225Y116D01*
X697Y116D02*
X713Y116D01*
X920Y116D02*
X936Y116D01*
X1408Y116D02*
X1424Y116D01*
X1627Y116D02*
X1643Y116D01*
X2115Y116D02*
X2131Y116D01*
X2371Y116D02*
X2388Y116D01*
X2860Y116D02*
X2876Y116D01*
X3089Y116D02*
X3105Y116D01*
X3577Y116D02*
X3593Y116D01*
D02*
G04 End of Mask0*
M02*