G04 MADE WITH FRITZING*
G04 WWW.FRITZING.ORG*
G04 DOUBLE SIDED*
G04 HOLES PLATED*
G04 CONTOUR ON CENTER OF CONTOUR VECTOR*
%ASAXBY*%
%FSLAX23Y23*%
%MOIN*%
%OFA0B0*%
%SFA1.0B1.0*%
%ADD10C,0.084000*%
%ADD11C,0.096614*%
%ADD12C,0.084667*%
%ADD13C,0.084695*%
%ADD14C,0.134033*%
%ADD15C,0.088000*%
%LNMASK1*%
G90*
G70*
G54D10*
X3798Y259D03*
X3798Y366D03*
X3798Y473D03*
X3798Y259D03*
X3798Y366D03*
X3798Y473D03*
G54D11*
X78Y75D03*
X3856Y1104D03*
X80Y1106D03*
X3858Y73D03*
G54D12*
X3219Y716D03*
X3319Y716D03*
G54D13*
X3419Y716D03*
G54D14*
X3125Y1011D03*
X3513Y1011D03*
G54D12*
X2514Y716D03*
X2614Y716D03*
G54D13*
X2714Y716D03*
G54D14*
X2420Y1011D03*
X2808Y1011D03*
G54D12*
X1774Y716D03*
X1874Y716D03*
G54D13*
X1974Y716D03*
G54D14*
X1680Y1011D03*
X2068Y1011D03*
G54D12*
X1058Y716D03*
X1158Y716D03*
G54D13*
X1258Y716D03*
G54D14*
X964Y1011D03*
X1352Y1011D03*
G54D12*
X346Y716D03*
X446Y716D03*
G54D13*
X546Y716D03*
G54D14*
X252Y1011D03*
X641Y1011D03*
G54D15*
X3095Y358D03*
X3587Y358D03*
X3095Y161D03*
X3587Y161D03*
X2378Y358D03*
X2870Y358D03*
X2378Y161D03*
X2870Y161D03*
X1633Y358D03*
X2125Y358D03*
X1633Y161D03*
X2125Y161D03*
X926Y358D03*
X1418Y358D03*
X926Y161D03*
X1418Y161D03*
X215Y358D03*
X707Y358D03*
X215Y161D03*
X707Y161D03*
X85Y963D03*
X85Y863D03*
X85Y763D03*
G04 End of Mask1*
M02*