; NON-PLATED HOLES START AT T1
; THROUGH (PLATED) HOLES START AT T100
M48
INCH
T1C0.086614
T2C0.070866
T100C0.088356
T101C0.038000
T102C0.041361
T103C0.040000
T104C0.041333
%
T1
X038560Y011040
X038576Y000725
X000778Y000750
X000803Y011057
T2
X004606Y000821
X026236Y004365
X011719Y000821
X018789Y004365
X033406Y000821
X033406Y004365
X004606Y004365
X018789Y000821
X011719Y004365
X026236Y000821
T100
X016798Y010114
X020681Y010114
X031246Y010114
X035129Y010114
X009637Y010114
X024195Y010114
X006405Y010114
X002522Y010114
X013520Y010114
X028078Y010114
T101
X000846Y007634
X007066Y001609
X002145Y003577
X014180Y003577
X023775Y003577
X021250Y003577
X007066Y003577
X009258Y001609
X021250Y001609
X030946Y001609
X030946Y003577
X014180Y001609
X009258Y003577
X035867Y001609
X016328Y001609
X000846Y009634
X023775Y001609
X028696Y003577
X028696Y001609
X000846Y008634
X002145Y001609
X016328Y003577
X035867Y003577
T102
X012579Y007161
X034187Y007161
X019739Y007161
X027136Y007161
X005463Y007161
T103
X037980Y002590
X037980Y003660
X037980Y004730
T104
X018739Y007161
X003463Y007161
X011579Y007161
X033187Y007161
X010579Y007161
X026136Y007161
X025136Y007161
X004463Y007161
X032187Y007161
X017739Y007161
T00
M30
